{"glyphs":{"0":{"ha":749,"x_min":44,"x_max":704,"o":"m 325 -14 q 171 26 233 -14 q 76 137 108 67 q 44 299 44 207 q 92 530 44 428 q 224 691 139 632 q 424 750 310 750 q 578 710 517 750 q 672 599 640 669 q 704 438 704 529 q 657 206 704 308 q 524 45 610 104 q 325 -14 439 -14 m 338 92 q 503 133 436 92 q 604 246 569 175 q 639 403 639 317 q 578 578 639 513 q 408 644 517 644 q 247 602 314 644 q 144 489 179 560 q 110 332 110 418 q 170 158 110 224 q 338 92 231 92 z "},"1":{"ha":779,"x_min":71,"x_max":707,"o":"m 71 0 l 75 22 l 246 78 l 349 658 l 197 714 l 201 736 l 707 736 l 703 714 l 533 658 l 431 78 l 581 22 l 576 0 l 71 0 z "},"2":{"ha":779,"x_min":28,"x_max":658,"o":"m 28 0 l 36 47 q 247 224 164 153 q 378 344 331 294 q 444 435 425 393 q 463 524 463 476 q 431 608 463 575 q 333 642 399 642 q 226 604 271 642 q 149 506 181 567 l 104 525 q 239 692 156 635 q 426 750 322 750 q 598 696 538 750 q 658 556 658 642 q 610 409 658 471 q 468 286 563 347 q 233 143 374 225 l 542 143 l 635 278 l 657 278 l 593 0 l 28 0 z "},"3":{"ha":779,"x_min":-6,"x_max":656,"o":"m 257 -193 q 93 -162 158 -193 q 0 -83 28 -132 q -6 -61 -6 -72 q 24 -18 -6 -39 l 101 38 l 118 38 l 129 6 q 176 -95 147 -58 q 272 -132 204 -132 q 370 -101 331 -132 q 429 -21 410 -71 q 449 88 449 29 q 388 222 449 176 q 211 268 326 268 l 203 326 l 206 326 q 335 349 278 326 q 427 415 393 372 q 461 522 461 458 q 431 608 461 575 q 340 642 400 642 q 235 604 279 642 q 160 506 192 567 l 115 525 q 250 692 167 635 q 438 750 333 750 q 597 699 539 750 q 656 571 656 649 q 627 471 656 514 q 551 399 599 428 q 450 354 504 369 q 598 267 554 329 q 642 126 642 206 q 592 -36 642 36 q 455 -151 542 -108 q 257 -193 368 -193 z "},"4":{"ha":779,"x_min":-17,"x_max":689,"o":"m 289 -181 l 333 72 l -17 72 l -7 121 l 543 736 l 633 736 l 536 178 l 689 178 l 671 72 l 518 72 l 474 -181 l 289 -181 m 122 178 l 351 178 l 408 504 l 122 178 z "},"5":{"ha":779,"x_min":19,"x_max":676,"o":"m 250 -194 q 78 -160 136 -194 q 21 -89 19 -125 q 53 -49 24 -67 l 133 7 l 151 7 l 164 -29 q 209 -103 181 -76 q 294 -131 238 -131 q 423 -74 372 -131 q 474 79 474 -18 q 244 258 474 258 q 183 256 213 258 q 118 246 154 253 l 210 736 l 676 736 l 650 596 l 254 596 l 221 417 q 269 419 243 418 q 331 421 296 421 q 565 348 486 421 q 644 157 644 275 q 592 -19 644 61 q 451 -147 540 -99 q 250 -194 361 -194 z "},"6":{"ha":779,"x_min":50,"x_max":708,"o":"m 333 -14 q 124 64 199 -14 q 50 274 50 142 q 128 559 50 425 q 353 791 206 693 q 708 931 500 889 l 699 883 q 494 776 579 844 q 356 623 410 708 q 274 444 301 538 q 363 520 313 493 q 472 547 414 547 q 627 483 576 547 q 678 319 678 418 q 632 142 678 217 q 508 27 586 68 q 333 -14 431 -14 m 240 218 q 267 92 240 133 q 340 50 293 50 q 449 121 407 50 q 492 308 492 192 q 396 447 492 447 q 254 364 313 447 q 240 218 240 292 z "},"7":{"ha":779,"x_min":83,"x_max":733,"o":"m 83 -181 q 203 19 138 -85 q 360 255 269 124 q 578 560 450 386 l 122 560 l 154 736 l 733 736 l 725 683 q 557 422 640 556 q 398 140 474 289 q 260 -181 322 -8 l 83 -181 z "},"8":{"ha":779,"x_min":35,"x_max":708,"o":"m 314 -14 q 111 42 188 -14 q 35 190 35 97 q 95 338 35 276 q 258 451 156 399 q 169 549 194 500 q 143 657 143 597 q 185 794 143 732 q 298 893 226 856 q 458 931 369 931 q 640 872 572 931 q 708 726 708 814 q 656 603 708 656 q 504 508 603 551 q 622 390 590 447 q 654 267 654 332 q 609 120 654 183 q 487 22 564 57 q 314 -14 410 -14 m 319 726 q 343 641 319 685 q 450 543 367 597 q 542 631 513 586 q 572 739 572 675 q 540 836 572 803 q 453 869 507 869 q 352 826 385 869 q 319 726 319 783 m 181 199 q 220 87 181 126 q 328 47 260 47 q 442 88 399 47 q 485 197 485 129 q 469 275 485 242 q 413 341 453 308 q 306 418 374 374 q 231 349 258 381 q 192 283 204 318 q 181 199 181 249 z "},"9":{"ha":779,"x_min":32,"x_max":690,"o":"m 32 -194 l 42 -147 q 246 -40 161 -108 q 385 113 331 28 q 467 292 439 199 q 377 216 428 243 q 268 189 326 189 q 114 253 164 189 q 64 417 64 318 q 109 594 64 519 q 232 709 154 668 q 407 750 310 750 q 616 672 542 750 q 690 463 690 594 q 612 177 690 311 q 386 -54 533 43 q 32 -194 239 -151 m 249 428 q 344 289 249 289 q 486 372 428 289 q 500 518 500 444 q 474 644 500 603 q 400 686 447 686 q 292 615 335 686 q 249 428 249 544 z "}," ":{"ha":340,"x_min":0,"x_max":0,"o":""}," ":{"ha":694,"x_min":0,"x_max":0,"o":""}," ":{"ha":347,"x_min":0,"x_max":0,"o":""}," ":{"ha":174,"x_min":0,"x_max":0,"o":""}," ":{"ha":35,"x_min":0,"x_max":0,"o":""},"​":{"ha":0,"x_min":0,"x_max":0,"o":""},"A":{"ha":996,"x_min":-46,"x_max":896,"o":"m -46 0 l -42 22 l 39 65 l 526 924 l 636 924 l 815 71 l 896 22 l 890 0 l 489 0 l 492 22 l 613 72 l 567 304 l 260 304 l 128 69 l 232 22 l 226 0 l -46 0 m 300 378 l 553 378 l 486 710 l 300 378 z "},"B":{"ha":914,"x_min":-19,"x_max":835,"o":"m -19 0 l -15 22 l 103 79 l 236 838 l 138 894 l 142 917 l 525 917 q 747 869 661 917 q 832 725 832 822 q 772 586 832 651 q 606 494 711 521 q 777 423 719 478 q 835 283 835 368 q 789 147 835 213 q 653 41 743 82 q 429 0 564 0 l -19 0 m 474 843 l 428 843 l 368 506 l 422 506 q 578 560 525 506 q 632 694 632 614 q 597 805 632 767 q 474 843 561 843 m 443 440 l 357 440 l 292 74 l 404 74 q 531 102 481 74 q 605 178 581 131 q 629 282 629 225 q 585 401 629 363 q 443 440 542 440 z "},"C":{"ha":924,"x_min":67,"x_max":864,"o":"m 451 -14 q 246 35 332 -14 q 113 168 160 83 q 67 361 67 253 q 110 577 67 475 q 230 759 153 679 q 408 885 307 839 q 624 931 508 931 q 758 913 706 931 q 864 864 810 894 l 836 604 l 813 604 l 722 824 q 672 855 699 844 q 604 865 644 865 q 467 825 529 865 q 360 715 404 785 q 291 551 315 644 q 267 353 267 458 q 326 136 267 217 q 486 56 385 56 q 567 69 528 56 q 642 103 606 82 l 793 293 l 817 293 l 761 58 q 625 6 703 25 q 451 -14 547 -14 z "},"D":{"ha":1038,"x_min":-19,"x_max":976,"o":"m -19 0 l -15 22 l 100 78 l 233 839 l 138 894 l 142 917 l 506 917 q 768 868 664 917 q 924 732 872 819 q 976 531 976 644 q 935 335 976 429 q 818 165 894 240 q 635 44 742 89 q 394 0 528 0 l -19 0 m 475 844 l 426 844 l 289 68 l 410 68 q 602 126 519 68 q 731 290 685 185 q 778 533 778 394 q 700 761 778 678 q 475 844 622 844 z "},"E":{"ha":865,"x_min":-19,"x_max":833,"o":"m -19 0 l -15 22 l 103 79 l 236 838 l 138 894 l 142 917 l 833 917 l 792 676 l 769 676 l 704 843 l 429 843 l 369 506 l 558 506 l 658 626 l 681 626 l 626 322 l 604 322 l 547 440 l 357 440 l 292 74 l 607 74 l 744 283 l 767 283 l 717 0 l -19 0 z "},"F":{"ha":835,"x_min":-19,"x_max":828,"o":"m -19 0 l -15 22 l 103 79 l 236 838 l 138 894 l 142 917 l 828 917 l 786 676 l 764 676 l 699 843 l 429 843 l 368 506 l 550 506 l 649 626 l 671 626 l 617 322 l 594 322 l 539 440 l 357 440 l 293 79 l 428 22 l 424 0 l -19 0 z "},"G":{"ha":985,"x_min":67,"x_max":931,"o":"m 432 -14 q 240 34 322 -14 q 112 166 157 82 q 67 358 67 250 q 114 580 67 476 q 242 763 161 683 q 425 886 324 842 q 635 931 526 931 q 744 923 699 931 q 828 901 790 915 q 904 864 865 886 l 874 619 l 851 619 l 764 822 q 703 855 733 844 q 628 865 672 865 q 482 823 549 865 q 367 708 415 781 q 292 542 318 635 q 265 350 265 450 q 326 141 265 217 q 483 65 386 65 q 532 68 506 65 q 585 76 558 71 l 629 329 l 526 394 l 531 417 l 931 417 l 926 394 l 819 328 l 781 103 q 675 41 736 67 q 550 1 614 15 q 432 -14 486 -14 z "},"H":{"ha":1071,"x_min":-19,"x_max":1090,"o":"m -19 0 l -15 22 l 99 79 l 233 838 l 132 894 l 136 917 l 538 917 l 533 894 l 424 838 l 367 510 l 722 510 l 781 838 l 686 894 l 690 917 l 1090 917 l 1086 894 l 971 838 l 836 79 l 939 22 l 935 0 l 535 0 l 539 22 l 646 79 l 710 436 l 353 436 l 290 79 l 385 22 l 381 0 l -19 0 z "},"I":{"ha":525,"x_min":-19,"x_max":546,"o":"m -19 0 l -15 22 l 99 79 l 233 838 l 132 894 l 136 917 l 546 917 l 542 894 l 424 838 l 290 79 l 393 22 l 389 0 l -19 0 z "},"J":{"ha":539,"x_min":-111,"x_max":564,"o":"m -54 -240 q -97 -224 -83 -240 q -100 -174 -111 -207 l -74 -96 l -65 -96 q -33 -106 -47 -103 q 0 -108 -18 -108 q 53 -94 31 -108 q 94 -36 76 -81 q 128 101 111 8 l 258 838 l 151 894 l 154 917 l 564 917 l 560 894 l 450 838 l 356 324 q 268 63 328 174 q 139 -115 208 -47 q 58 -192 89 -165 q 2 -230 26 -219 q -54 -240 -22 -240 z "},"K":{"ha":1001,"x_min":-19,"x_max":992,"o":"m -19 0 l -15 22 l 103 79 l 236 838 l 138 894 l 142 917 l 551 917 l 546 894 l 428 838 l 293 79 l 394 22 l 389 0 l -19 0 m 650 0 l 364 464 l 776 846 l 689 894 l 693 917 l 992 917 l 986 894 l 901 861 l 535 528 l 832 72 l 913 22 l 908 0 l 650 0 z "},"L":{"ha":807,"x_min":-19,"x_max":736,"o":"m -19 0 l -15 22 l 103 79 l 236 838 l 138 894 l 142 917 l 564 917 l 560 894 l 428 838 l 293 74 l 558 74 l 714 328 l 736 328 l 675 0 l -19 0 z "},"M":{"ha":1297,"x_min":-19,"x_max":1292,"o":"m -19 0 l -15 22 l 103 79 l 264 838 l 151 894 l 157 917 l 478 917 l 632 267 l 988 917 l 1292 917 l 1286 894 l 1169 839 l 1082 79 l 1171 22 l 1167 0 l 779 0 l 783 22 l 893 78 l 968 717 l 569 -7 l 497 -7 l 325 735 l 190 78 l 293 22 l 289 0 l -19 0 z "},"N":{"ha":1057,"x_min":-15,"x_max":1079,"o":"m -15 0 l -11 22 l 108 79 l 242 836 l 142 894 l 146 917 l 388 917 l 767 285 l 864 839 l 725 894 l 731 917 l 1079 917 l 1075 894 l 957 838 l 808 -7 l 724 -7 l 307 676 l 203 79 l 340 22 l 336 0 l -15 0 z "},"O":{"ha":1075,"x_min":67,"x_max":1008,"o":"m 467 -14 q 251 36 340 -14 q 114 176 161 86 q 67 382 67 265 q 108 593 67 494 q 222 768 149 692 q 394 888 296 844 q 607 931 492 931 q 823 881 733 931 q 960 741 913 831 q 1008 535 1008 651 q 969 325 1008 424 q 857 150 929 226 q 685 30 785 74 q 467 -14 586 -14 m 493 56 q 622 95 564 56 q 721 203 679 135 q 785 363 763 272 q 807 553 807 453 q 751 776 807 690 q 585 861 696 861 q 459 822 517 861 q 359 715 401 783 q 293 556 317 646 q 269 365 269 467 q 296 205 269 275 q 372 95 322 135 q 493 56 422 56 z "},"P":{"ha":883,"x_min":-19,"x_max":863,"o":"m -19 0 l -15 22 l 103 79 l 236 838 l 138 894 l 142 917 l 511 917 q 863 696 863 917 q 813 554 863 619 q 666 449 764 489 q 421 410 568 410 l 351 410 l 293 79 l 415 22 l 411 0 l -19 0 m 428 843 l 363 475 l 444 475 q 608 536 556 475 q 660 688 660 597 q 612 803 660 764 q 474 843 564 843 l 428 843 z "},"Q":{"ha":1075,"x_min":67,"x_max":1025,"o":"m 844 -207 q 725 -191 793 -207 q 577 -133 657 -175 q 411 -11 497 -90 q 224 53 301 0 q 107 190 147 106 q 67 382 67 274 q 108 593 67 494 q 222 768 149 692 q 394 888 296 844 q 607 931 492 931 q 823 881 733 931 q 960 741 913 831 q 1008 535 1008 651 q 961 307 1008 414 q 829 122 914 200 q 629 10 744 44 q 764 -91 710 -57 q 860 -137 818 -125 q 947 -149 903 -149 q 990 -145 969 -149 q 1025 -136 1011 -142 l 1015 -169 q 940 -197 983 -186 q 844 -207 897 -207 m 493 56 q 622 95 564 56 q 721 203 679 135 q 785 363 763 272 q 807 553 807 453 q 751 776 807 690 q 585 861 696 861 q 459 822 517 861 q 359 715 401 783 q 293 556 317 646 q 269 365 269 467 q 296 205 269 275 q 372 95 322 135 q 493 56 422 56 z "},"R":{"ha":951,"x_min":-19,"x_max":874,"o":"m -19 0 l -17 22 l 103 79 l 236 838 l 136 894 l 140 917 l 504 917 q 741 863 656 917 q 826 708 826 808 q 769 563 826 624 q 613 469 711 503 l 790 78 l 874 22 l 871 0 l 614 0 l 440 426 l 354 426 l 293 81 l 390 22 l 386 0 l -19 0 m 469 843 l 428 843 l 365 492 l 439 492 q 543 519 500 492 q 609 591 586 546 q 632 690 632 636 q 469 843 632 843 z "},"S":{"ha":750,"x_min":25,"x_max":704,"o":"m 286 -14 q 141 5 201 -14 q 25 57 81 24 l 51 292 l 75 292 l 147 110 q 209 70 175 86 q 288 54 243 54 q 422 99 369 54 q 474 221 474 144 q 457 290 474 261 q 400 348 440 318 q 289 419 360 378 q 176 515 211 467 q 142 639 142 563 q 188 786 142 719 q 311 892 233 853 q 482 931 389 931 q 603 914 547 931 q 704 867 658 897 l 681 644 l 657 644 l 586 813 q 538 847 564 832 q 468 861 511 861 q 360 817 404 861 q 315 708 315 774 q 344 623 315 660 q 456 536 374 586 q 565 463 522 497 q 628 388 608 428 q 649 290 649 347 q 601 137 649 206 q 471 27 553 68 q 286 -14 389 -14 z "},"T":{"ha":889,"x_min":79,"x_max":933,"o":"m 139 0 l 144 22 l 288 79 l 424 843 l 242 843 l 101 611 l 79 611 l 131 917 l 933 917 l 881 611 l 858 611 l 797 843 l 615 843 l 479 79 l 606 22 l 601 0 l 139 0 z "},"U":{"ha":1057,"x_min":133,"x_max":1094,"o":"m 481 -14 q 305 15 381 -14 q 188 108 229 44 q 146 279 146 172 q 149 334 146 306 q 157 394 151 363 l 233 838 l 133 894 l 138 917 l 549 917 l 544 894 l 425 838 l 347 393 q 340 342 343 367 q 338 294 338 317 q 394 135 338 182 q 542 89 450 89 q 651 115 597 89 q 743 198 704 142 q 797 344 782 254 l 883 840 l 772 894 l 776 917 l 1094 917 l 1090 894 l 972 839 l 894 394 q 810 153 868 243 q 669 25 753 64 q 481 -14 586 -14 z "},"V":{"ha":958,"x_min":99,"x_max":1028,"o":"m 369 -7 l 179 844 l 99 894 l 104 917 l 494 917 l 489 894 l 376 846 l 510 233 l 521 233 l 853 846 l 750 894 l 754 917 l 1028 917 l 1022 894 l 943 850 l 468 -7 l 369 -7 z "},"W":{"ha":1321,"x_min":99,"x_max":1401,"o":"m 285 -7 l 188 844 l 99 894 l 103 917 l 500 917 l 497 894 l 378 843 l 436 285 l 446 285 l 765 924 l 858 924 l 968 288 l 976 288 l 1215 846 l 1110 894 l 1114 917 l 1401 917 l 1397 894 l 1303 847 l 925 -7 l 831 -7 l 715 638 l 707 638 l 381 -7 l 285 -7 z "},"X":{"ha":992,"x_min":-53,"x_max":1024,"o":"m -53 0 l -47 22 l 60 74 l 407 446 l 196 849 l 122 894 l 126 917 l 529 917 l 525 894 l 407 846 l 406 839 l 558 556 l 818 839 l 819 844 l 724 894 l 728 917 l 1024 917 l 1019 894 l 928 847 l 593 490 l 817 76 l 901 22 l 897 0 l 489 0 l 492 22 l 601 71 l 601 76 l 442 379 l 167 79 l 163 74 l 261 22 l 257 0 l -53 0 z "},"Y":{"ha":953,"x_min":101,"x_max":1032,"o":"m 204 0 l 208 22 l 332 79 l 393 426 l 175 847 l 101 894 l 107 917 l 493 917 l 488 894 l 376 847 l 375 842 l 556 500 l 829 840 l 831 846 l 735 894 l 740 917 l 1032 917 l 1028 894 l 939 853 l 585 431 l 522 79 l 628 22 l 624 0 l 204 0 z "},"Z":{"ha":849,"x_min":11,"x_max":832,"o":"m 11 0 l 19 50 l 597 843 l 290 843 l 153 633 l 131 633 l 183 917 l 832 917 l 824 867 l 250 82 l 581 82 l 722 297 l 744 297 l 689 0 l 11 0 z "},"À":{"ha":996,"x_min":-46,"x_max":896,"o":"m -46 0 l -42 22 l 39 65 l 526 924 l 636 924 l 815 71 l 896 22 l 890 0 l 489 0 l 492 22 l 613 72 l 567 304 l 260 304 l 128 69 l 232 22 l 226 0 l -46 0 m 300 378 l 553 378 l 486 710 l 300 378 m 575 986 l 376 1110 q 347 1149 350 1126 q 347 1197 344 1171 l 482 1197 l 603 986 l 575 986 z "},"Á":{"ha":996,"x_min":-46,"x_max":896,"o":"m -46 0 l -42 22 l 39 65 l 526 924 l 636 924 l 815 71 l 896 22 l 890 0 l 489 0 l 492 22 l 613 72 l 567 304 l 260 304 l 128 69 l 232 22 l 226 0 l -46 0 m 300 378 l 553 378 l 486 710 l 300 378 m 576 986 l 711 1197 l 860 1197 q 845 1154 856 1176 q 800 1110 835 1132 l 603 986 l 576 986 z "},"Â":{"ha":996,"x_min":-46,"x_max":896,"o":"m -46 0 l -42 22 l 39 65 l 526 924 l 636 924 l 815 71 l 896 22 l 890 0 l 489 0 l 492 22 l 613 72 l 567 304 l 260 304 l 128 69 l 232 22 l 226 0 l -46 0 m 300 378 l 553 378 l 486 710 l 300 378 m 376 986 l 594 1197 l 656 1197 l 793 986 l 767 986 l 607 1082 l 403 986 l 376 986 z "},"Ã":{"ha":996,"x_min":-46,"x_max":896,"o":"m -46 0 l -42 22 l 39 65 l 526 924 l 636 924 l 815 71 l 896 22 l 890 0 l 489 0 l 492 22 l 613 72 l 567 304 l 260 304 l 128 69 l 232 22 l 226 0 l -46 0 m 300 378 l 553 378 l 486 710 l 300 378 m 376 1003 q 438 1117 411 1081 q 488 1166 464 1154 q 539 1178 511 1178 q 607 1158 578 1178 q 663 1118 636 1138 q 718 1099 689 1099 q 761 1112 742 1099 q 810 1178 781 1125 l 840 1178 q 779 1063 806 1100 q 729 1014 753 1025 q 676 1003 706 1003 q 610 1022 639 1003 q 554 1061 581 1042 q 499 1081 528 1081 q 455 1068 475 1081 q 407 1003 435 1056 l 376 1003 z "},"Ä":{"ha":996,"x_min":-46,"x_max":896,"o":"m -46 0 l -42 22 l 39 65 l 526 924 l 636 924 l 815 71 l 896 22 l 890 0 l 489 0 l 492 22 l 613 72 l 567 304 l 260 304 l 128 69 l 232 22 l 226 0 l -46 0 m 300 378 l 553 378 l 486 710 l 300 378 m 478 1018 q 425 1040 446 1018 q 404 1092 404 1061 q 425 1144 404 1122 q 478 1165 446 1165 q 530 1144 508 1165 q 551 1092 551 1122 q 530 1040 551 1061 q 478 1018 508 1018 m 739 1018 q 686 1040 707 1018 q 665 1092 665 1061 q 686 1144 665 1122 q 739 1165 707 1165 q 790 1144 769 1165 q 811 1092 811 1122 q 790 1040 811 1061 q 739 1018 769 1018 z "},"Ā":{"ha":996,"x_min":-46,"x_max":896,"o":"m -46 0 l -42 22 l 39 65 l 526 924 l 636 924 l 815 71 l 896 22 l 890 0 l 489 0 l 492 22 l 613 72 l 567 304 l 260 304 l 128 69 l 232 22 l 226 0 l -46 0 m 300 378 l 553 378 l 486 710 l 300 378 m 403 1053 l 417 1132 l 814 1132 l 799 1053 l 403 1053 z "},"Ă":{"ha":996,"x_min":-46,"x_max":896,"o":"m -46 0 l -42 22 l 39 65 l 526 924 l 636 924 l 815 71 l 896 22 l 890 0 l 489 0 l 492 22 l 613 72 l 567 304 l 260 304 l 128 69 l 232 22 l 226 0 l -46 0 m 300 378 l 553 378 l 486 710 l 300 378 m 590 986 q 453 1037 492 986 q 407 1197 414 1088 l 433 1197 q 493 1108 451 1129 q 603 1086 535 1086 q 721 1106 669 1086 q 811 1197 772 1126 l 838 1197 q 740 1038 800 1089 q 590 986 681 986 z "},"Å":{"ha":996,"x_min":-46,"x_max":896,"o":"m -46 0 l -42 22 l 39 65 l 526 924 l 636 924 l 815 71 l 896 22 l 890 0 l 489 0 l 492 22 l 613 72 l 567 304 l 260 304 l 128 69 l 232 22 l 226 0 l -46 0 m 300 378 l 553 378 l 486 710 l 300 378 m 593 986 q 518 1014 542 986 q 494 1086 494 1042 q 531 1182 494 1142 q 628 1222 568 1222 q 702 1194 678 1222 q 726 1121 726 1165 q 690 1026 726 1067 q 593 986 654 986 m 600 1018 q 644 1047 628 1018 q 661 1122 661 1076 q 622 1190 661 1190 q 578 1162 594 1190 q 561 1086 561 1133 q 600 1018 561 1018 z "},"Ǻ":{"ha":996,"x_min":-46,"x_max":907,"o":"m -46 0 l -42 22 l 39 65 l 526 924 l 636 924 l 815 71 l 896 22 l 890 0 l 489 0 l 492 22 l 613 72 l 567 304 l 260 304 l 128 69 l 232 22 l 226 0 l -46 0 m 300 378 l 553 378 l 486 710 l 300 378 m 593 986 q 518 1014 542 986 q 494 1086 494 1042 q 531 1182 494 1142 q 628 1222 568 1222 q 702 1194 678 1222 q 726 1121 726 1165 q 690 1026 726 1067 q 593 986 654 986 m 600 1018 q 644 1047 628 1018 q 661 1122 661 1076 q 622 1190 661 1190 q 578 1162 594 1190 q 561 1086 561 1133 q 600 1018 561 1018 m 624 1257 l 758 1468 l 907 1468 q 892 1425 903 1447 q 847 1381 882 1403 l 650 1257 l 624 1257 z "},"Ạ":{"ha":996,"x_min":-46,"x_max":896,"o":"m -46 0 l -42 22 l 39 65 l 526 924 l 636 924 l 815 71 l 896 22 l 890 0 l 489 0 l 492 22 l 613 72 l 567 304 l 260 304 l 128 69 l 232 22 l 226 0 l -46 0 m 300 378 l 553 378 l 486 710 l 300 378 z "},"Ą":{"ha":996,"x_min":-46,"x_max":896,"o":"m -46 0 l -42 22 l 39 67 l 526 924 l 636 924 l 815 72 l 896 22 l 890 0 l 726 0 q 676 -93 696 -46 q 657 -186 657 -140 q 733 -261 657 -261 q 765 -256 747 -261 q 796 -239 782 -250 l 800 -239 l 794 -265 q 742 -315 774 -297 q 667 -333 710 -333 q 578 -303 611 -333 q 546 -222 546 -274 q 585 -108 546 -164 q 681 0 624 -53 l 489 0 l 492 22 l 611 71 l 564 304 l 260 304 l 128 69 l 232 22 l 226 0 l -46 0 m 300 378 l 550 378 l 483 706 l 300 378 z "},"Ȁ":{"ha":996,"x_min":-46,"x_max":896,"o":"m -46 0 l -42 22 l 39 65 l 526 924 l 636 924 l 815 71 l 896 22 l 890 0 l 489 0 l 492 22 l 613 72 l 567 304 l 260 304 l 128 69 l 232 22 l 226 0 l -46 0 m 300 378 l 553 378 l 486 710 l 300 378 m 664 986 l 508 1114 q 481 1154 486 1133 q 481 1197 476 1175 l 597 1197 l 690 986 l 664 986 m 481 986 l 297 1114 q 268 1153 272 1131 q 268 1197 264 1175 l 385 1197 l 507 986 l 481 986 z "},"Ȃ":{"ha":996,"x_min":-46,"x_max":896,"o":"m -46 0 l -42 22 l 39 65 l 526 924 l 636 924 l 815 71 l 896 22 l 890 0 l 489 0 l 492 22 l 613 72 l 567 304 l 260 304 l 128 69 l 232 22 l 226 0 l -46 0 m 300 378 l 553 378 l 486 710 l 300 378 m 376 986 q 474 1146 414 1094 q 624 1197 533 1197 q 761 1147 722 1197 q 807 986 800 1096 l 781 986 q 721 1076 763 1054 q 611 1097 679 1097 q 493 1077 544 1097 q 403 986 442 1057 l 376 986 z "},"Ắ":{"ha":996,"x_min":-46,"x_max":896,"o":"m -46 0 l -42 22 l 39 65 l 526 924 l 636 924 l 815 71 l 896 22 l 890 0 l 489 0 l 492 22 l 613 72 l 567 304 l 260 304 l 128 69 l 232 22 l 226 0 l -46 0 m 300 378 l 553 378 l 486 710 l 300 378 z "},"Ặ":{"ha":996,"x_min":-46,"x_max":896,"o":"m -46 0 l -42 22 l 39 65 l 526 924 l 636 924 l 815 71 l 896 22 l 890 0 l 489 0 l 492 22 l 613 72 l 567 304 l 260 304 l 128 69 l 232 22 l 226 0 l -46 0 m 300 378 l 553 378 l 486 710 l 300 378 m 590 986 q 453 1037 492 986 q 407 1197 414 1088 l 433 1197 q 493 1108 451 1129 q 603 1086 535 1086 q 721 1106 669 1086 q 811 1197 772 1126 l 838 1197 q 740 1038 800 1089 q 590 986 681 986 z "},"Ằ":{"ha":996,"x_min":-46,"x_max":896,"o":"m -46 0 l -42 22 l 39 65 l 526 924 l 636 924 l 815 71 l 896 22 l 890 0 l 489 0 l 492 22 l 613 72 l 567 304 l 260 304 l 128 69 l 232 22 l 226 0 l -46 0 m 300 378 l 553 378 l 486 710 l 300 378 z "},"Ẳ":{"ha":996,"x_min":-46,"x_max":896,"o":"m -46 0 l -42 22 l 39 65 l 526 924 l 636 924 l 815 71 l 896 22 l 890 0 l 489 0 l 492 22 l 613 72 l 567 304 l 260 304 l 128 69 l 232 22 l 226 0 l -46 0 m 300 378 l 553 378 l 486 710 l 300 378 z "},"Ẵ":{"ha":996,"x_min":-46,"x_max":896,"o":"m -46 0 l -42 22 l 39 65 l 526 924 l 636 924 l 815 71 l 896 22 l 890 0 l 489 0 l 492 22 l 613 72 l 567 304 l 260 304 l 128 69 l 232 22 l 226 0 l -46 0 m 300 378 l 553 378 l 486 710 l 300 378 z "},"Ấ":{"ha":996,"x_min":-46,"x_max":992,"o":"m -46 0 l -42 22 l 39 65 l 526 924 l 636 924 l 815 71 l 896 22 l 890 0 l 489 0 l 492 22 l 613 72 l 567 304 l 260 304 l 128 69 l 232 22 l 226 0 l -46 0 m 300 378 l 553 378 l 486 710 l 300 378 m 763 1118 l 853 1317 l 992 1317 q 976 1274 988 1296 q 933 1229 965 1253 l 788 1118 l 763 1118 m 376 986 l 594 1197 l 656 1197 l 793 986 l 767 986 l 607 1082 l 403 986 l 376 986 z "},"Ậ":{"ha":996,"x_min":-46,"x_max":896,"o":"m -46 0 l -42 22 l 39 65 l 526 924 l 636 924 l 815 71 l 896 22 l 890 0 l 489 0 l 492 22 l 613 72 l 567 304 l 260 304 l 128 69 l 232 22 l 226 0 l -46 0 m 300 378 l 553 378 l 486 710 l 300 378 m 376 986 l 594 1197 l 656 1197 l 793 986 l 767 986 l 607 1082 l 403 986 l 376 986 z "},"Ầ":{"ha":996,"x_min":-46,"x_max":896,"o":"m -46 0 l -42 22 l 39 65 l 526 924 l 636 924 l 815 71 l 896 22 l 890 0 l 489 0 l 492 22 l 613 72 l 567 304 l 260 304 l 128 69 l 232 22 l 226 0 l -46 0 m 300 378 l 553 378 l 486 710 l 300 378 m 425 1118 l 278 1229 q 240 1269 249 1251 q 233 1317 231 1288 l 364 1317 l 451 1118 l 425 1118 m 376 986 l 594 1197 l 656 1197 l 793 986 l 767 986 l 607 1082 l 403 986 l 376 986 z "},"Ẩ":{"ha":996,"x_min":-46,"x_max":896,"o":"m -46 0 l -42 22 l 39 65 l 526 924 l 636 924 l 815 71 l 896 22 l 890 0 l 489 0 l 492 22 l 613 72 l 567 304 l 260 304 l 128 69 l 232 22 l 226 0 l -46 0 m 300 378 l 553 378 l 486 710 l 300 378 z "},"Ẫ":{"ha":996,"x_min":-46,"x_max":896,"o":"m -46 0 l -42 22 l 39 65 l 526 924 l 636 924 l 815 71 l 896 22 l 890 0 l 489 0 l 492 22 l 613 72 l 567 304 l 260 304 l 128 69 l 232 22 l 226 0 l -46 0 m 300 378 l 553 378 l 486 710 l 300 378 z "},"Ả":{"ha":996,"x_min":-46,"x_max":896,"o":"m -46 0 l -42 22 l 39 65 l 526 924 l 636 924 l 815 71 l 896 22 l 890 0 l 489 0 l 492 22 l 613 72 l 567 304 l 260 304 l 128 69 l 232 22 l 226 0 l -46 0 m 300 378 l 553 378 l 486 710 l 300 378 m 538 972 l 528 985 l 528 986 q 600 1017 578 1000 q 622 1064 622 1035 q 603 1101 622 1085 q 540 1126 585 1117 l 572 1213 q 673 1172 643 1204 q 703 1104 703 1140 q 660 1017 703 1049 q 538 972 617 986 z "},"Æ":{"ha":1331,"x_min":-46,"x_max":1299,"o":"m -46 0 l -42 22 l 44 65 l 693 917 l 1299 917 l 1257 676 l 1235 676 l 1171 843 l 894 843 l 835 510 l 1025 510 l 1124 631 l 1146 631 l 1090 318 l 1068 318 l 1011 436 l 822 436 l 757 74 l 1072 74 l 1210 283 l 1232 283 l 1182 0 l 446 0 l 450 22 l 568 79 l 611 321 l 332 321 l 138 65 l 232 22 l 226 0 l -46 0 m 388 394 l 624 394 l 696 803 l 388 394 z "},"Ǽ":{"ha":1331,"x_min":-46,"x_max":1299,"o":"m -46 0 l -42 22 l 44 65 l 693 917 l 1299 917 l 1257 676 l 1235 676 l 1171 843 l 894 843 l 835 510 l 1025 510 l 1124 631 l 1146 631 l 1090 318 l 1068 318 l 1011 436 l 822 436 l 757 74 l 1072 74 l 1210 283 l 1232 283 l 1182 0 l 446 0 l 450 22 l 568 79 l 611 321 l 332 321 l 138 65 l 232 22 l 226 0 l -46 0 m 388 394 l 624 394 l 696 803 l 388 394 m 821 986 l 956 1197 l 1104 1197 q 1090 1154 1100 1176 q 1044 1110 1079 1132 l 847 986 l 821 986 z "},"Ć":{"ha":924,"x_min":67,"x_max":885,"o":"m 451 -14 q 246 35 332 -14 q 113 168 160 83 q 67 361 67 253 q 110 577 67 475 q 230 759 153 679 q 408 885 307 839 q 624 931 508 931 q 758 913 706 931 q 864 864 810 894 l 836 604 l 813 604 l 722 824 q 672 855 699 844 q 604 865 644 865 q 467 825 529 865 q 360 715 404 785 q 291 551 315 644 q 267 353 267 458 q 326 136 267 217 q 486 56 385 56 q 567 69 528 56 q 642 103 606 82 l 793 293 l 817 293 l 761 58 q 625 6 703 25 q 451 -14 547 -14 m 601 986 l 736 1197 l 885 1197 q 870 1154 881 1176 q 825 1110 860 1132 l 628 986 l 601 986 z "},"Ĉ":{"ha":924,"x_min":67,"x_max":864,"o":"m 451 -14 q 246 35 332 -14 q 113 168 160 83 q 67 361 67 253 q 110 577 67 475 q 230 759 153 679 q 408 885 307 839 q 624 931 508 931 q 758 913 706 931 q 864 864 810 894 l 836 604 l 813 604 l 722 824 q 672 855 699 844 q 604 865 644 865 q 467 825 529 865 q 360 715 404 785 q 291 551 315 644 q 267 353 267 458 q 326 136 267 217 q 486 56 385 56 q 567 69 528 56 q 642 103 606 82 l 793 293 l 817 293 l 761 58 q 625 6 703 25 q 451 -14 547 -14 m 401 986 l 619 1197 l 681 1197 l 818 986 l 792 986 l 632 1082 l 428 986 l 401 986 z "},"Č":{"ha":924,"x_min":67,"x_max":864,"o":"m 451 -14 q 246 35 332 -14 q 113 168 160 83 q 67 361 67 253 q 110 577 67 475 q 230 759 153 679 q 408 885 307 839 q 624 931 508 931 q 758 913 706 931 q 864 864 810 894 l 836 604 l 813 604 l 722 824 q 672 855 699 844 q 604 865 644 865 q 467 825 529 865 q 360 715 404 785 q 291 551 315 644 q 267 353 267 458 q 326 136 267 217 q 486 56 385 56 q 567 69 528 56 q 642 103 606 82 l 793 293 l 817 293 l 761 58 q 625 6 703 25 q 451 -14 547 -14 m 583 986 l 444 1197 l 471 1197 l 626 1101 l 835 1197 l 861 1197 l 643 986 l 583 986 z "},"Ċ":{"ha":924,"x_min":67,"x_max":864,"o":"m 451 -14 q 246 35 332 -14 q 113 168 160 83 q 67 361 67 253 q 110 577 67 475 q 230 759 153 679 q 408 885 307 839 q 624 931 508 931 q 758 913 706 931 q 864 864 810 894 l 836 604 l 813 604 l 722 824 q 672 855 699 844 q 604 865 644 865 q 467 825 529 865 q 360 715 404 785 q 291 551 315 644 q 267 353 267 458 q 326 136 267 217 q 486 56 385 56 q 567 69 528 56 q 642 103 606 82 l 793 293 l 817 293 l 761 58 q 625 6 703 25 q 451 -14 547 -14 m 632 996 q 564 1023 592 996 q 536 1090 536 1050 q 564 1160 536 1132 q 632 1188 592 1188 q 701 1160 674 1188 q 728 1090 728 1132 q 701 1023 728 1050 q 632 996 674 996 z "},"Ç":{"ha":924,"x_min":67,"x_max":864,"o":"m 408 -333 q 347 -325 372 -333 q 304 -301 321 -317 l 308 -276 l 314 -276 q 388 -292 344 -292 q 471 -231 471 -292 q 444 -181 471 -203 q 350 -142 418 -158 l 428 -14 q 235 41 315 -8 q 110 173 154 90 q 67 361 67 256 q 110 577 67 475 q 230 759 153 679 q 408 885 307 839 q 624 931 508 931 q 758 913 706 931 q 864 864 810 894 l 836 604 l 813 604 l 722 824 q 672 855 699 844 q 604 865 644 865 q 467 825 529 865 q 360 715 404 785 q 291 551 315 644 q 267 353 267 458 q 326 136 267 217 q 486 56 385 56 q 567 69 528 56 q 642 103 606 82 l 793 293 l 817 293 l 761 58 q 634 8 706 26 q 474 -14 563 -11 l 443 -67 q 538 -119 510 -86 q 567 -197 567 -151 q 524 -294 567 -256 q 408 -333 481 -333 z "},"Ḉ":{"ha":924,"x_min":67,"x_max":885,"o":"m 601 986 l 736 1197 l 885 1197 q 871 1154 881 1176 q 825 1110 861 1132 l 628 986 l 601 986 m 408 -333 q 347 -325 372 -333 q 304 -301 321 -317 l 308 -276 l 314 -276 q 388 -292 344 -292 q 471 -231 471 -292 q 444 -181 471 -203 q 350 -142 418 -158 l 428 -14 q 235 41 315 -8 q 110 173 154 90 q 67 361 67 256 q 110 577 67 475 q 230 759 153 679 q 408 885 307 839 q 624 931 508 931 q 758 913 706 931 q 864 864 810 894 l 836 604 l 813 604 l 722 824 q 672 855 699 844 q 604 865 644 865 q 467 825 529 865 q 360 715 404 785 q 291 551 315 644 q 267 353 267 458 q 326 136 267 217 q 486 56 385 56 q 567 69 528 56 q 642 103 606 82 l 793 293 l 817 293 l 761 58 q 634 8 706 26 q 474 -14 563 -11 l 443 -67 q 538 -119 510 -86 q 567 -197 567 -151 q 524 -294 567 -256 q 408 -333 481 -333 z "},"Ď":{"ha":1038,"x_min":-19,"x_max":976,"o":"m -19 0 l -15 22 l 100 78 l 233 839 l 138 894 l 142 917 l 506 917 q 768 868 664 917 q 924 732 872 819 q 976 531 976 644 q 935 335 976 429 q 818 165 894 240 q 635 44 742 89 q 394 0 528 0 l -19 0 m 475 844 l 426 844 l 289 68 l 410 68 q 602 126 519 68 q 731 290 685 185 q 778 533 778 394 q 700 761 778 678 q 475 844 622 844 m 528 986 l 389 1197 l 415 1197 l 571 1101 l 779 1197 l 806 1197 l 588 986 l 528 986 z "},"Đ":{"ha":1038,"x_min":-19,"x_max":976,"o":"m -19 0 l -15 22 l 100 78 l 164 442 l 58 442 l 71 507 l 175 507 l 233 839 l 138 894 l 142 917 l 506 917 q 768 868 664 917 q 924 732 872 819 q 976 531 976 644 q 935 335 976 429 q 818 165 894 240 q 635 44 742 89 q 394 0 528 0 l -19 0 m 547 442 l 354 442 l 289 68 l 410 68 q 602 126 519 68 q 731 290 685 185 q 778 533 778 394 q 700 761 778 678 q 475 844 622 844 l 426 844 l 367 507 l 558 507 l 547 442 z "},"Ḍ":{"ha":1038,"x_min":-19,"x_max":976,"o":"m -19 0 l -15 22 l 100 78 l 233 839 l 138 894 l 142 917 l 506 917 q 768 868 664 917 q 924 732 872 819 q 976 531 976 644 q 935 335 976 429 q 818 165 894 240 q 635 44 742 89 q 394 0 528 0 l -19 0 m 475 844 l 426 844 l 289 68 l 410 68 q 602 126 519 68 q 731 290 685 185 q 778 533 778 394 q 700 761 778 678 q 475 844 622 844 z "},"Ḏ":{"ha":1038,"x_min":-19,"x_max":976,"o":"m -19 0 l -15 22 l 100 78 l 233 839 l 138 894 l 142 917 l 506 917 q 768 868 664 917 q 924 732 872 819 q 976 531 976 644 q 935 335 976 429 q 818 165 894 240 q 635 44 742 89 q 394 0 528 0 l -19 0 m 475 844 l 426 844 l 289 68 l 410 68 q 602 126 519 68 q 731 290 685 185 q 778 533 778 394 q 700 761 778 678 q 475 844 622 844 z "},"È":{"ha":865,"x_min":-19,"x_max":833,"o":"m -19 0 l -15 22 l 103 79 l 236 838 l 138 894 l 142 917 l 833 917 l 792 676 l 769 676 l 704 843 l 429 843 l 369 506 l 558 506 l 658 626 l 681 626 l 626 322 l 604 322 l 547 440 l 357 440 l 292 74 l 607 74 l 744 283 l 767 283 l 717 0 l -19 0 m 528 986 l 329 1110 q 300 1149 303 1126 q 300 1197 297 1171 l 435 1197 l 556 986 l 528 986 z "},"É":{"ha":865,"x_min":-19,"x_max":833,"o":"m -19 0 l -15 22 l 103 79 l 236 838 l 138 894 l 142 917 l 833 917 l 792 676 l 769 676 l 704 843 l 429 843 l 369 506 l 558 506 l 658 626 l 681 626 l 626 322 l 604 322 l 547 440 l 357 440 l 292 74 l 607 74 l 744 283 l 767 283 l 717 0 l -19 0 m 529 986 l 664 1197 l 813 1197 q 798 1154 808 1176 q 753 1110 788 1132 l 556 986 l 529 986 z "},"Ê":{"ha":865,"x_min":-19,"x_max":833,"o":"m -19 0 l -15 22 l 103 79 l 236 838 l 138 894 l 142 917 l 833 917 l 792 676 l 769 676 l 704 843 l 429 843 l 369 506 l 558 506 l 658 626 l 681 626 l 626 322 l 604 322 l 547 440 l 357 440 l 292 74 l 607 74 l 744 283 l 767 283 l 717 0 l -19 0 m 329 986 l 547 1197 l 608 1197 l 746 986 l 719 986 l 560 1082 l 356 986 l 329 986 z "},"Ě":{"ha":865,"x_min":-19,"x_max":833,"o":"m -19 0 l -15 22 l 103 79 l 236 838 l 138 894 l 142 917 l 833 917 l 792 676 l 769 676 l 704 843 l 429 843 l 369 506 l 558 506 l 658 626 l 681 626 l 626 322 l 604 322 l 547 440 l 357 440 l 292 74 l 607 74 l 744 283 l 767 283 l 717 0 l -19 0 m 511 986 l 372 1197 l 399 1197 l 554 1101 l 763 1197 l 789 1197 l 571 986 l 511 986 z "},"Ẽ":{"ha":865,"x_min":-19,"x_max":833,"o":"m -19 0 l -15 22 l 103 79 l 236 838 l 138 894 l 142 917 l 833 917 l 792 676 l 769 676 l 704 843 l 429 843 l 369 506 l 558 506 l 658 626 l 681 626 l 626 322 l 604 322 l 547 440 l 357 440 l 292 74 l 607 74 l 744 283 l 767 283 l 717 0 l -19 0 m 329 1003 q 390 1117 364 1081 q 440 1166 417 1154 q 492 1178 464 1178 q 560 1158 531 1178 q 615 1118 589 1138 q 671 1099 642 1099 q 714 1112 694 1099 q 763 1178 733 1125 l 793 1178 q 732 1063 758 1100 q 682 1014 706 1025 q 629 1003 658 1003 q 563 1022 592 1003 q 507 1061 533 1042 q 451 1081 481 1081 q 408 1068 428 1081 q 360 1003 388 1056 l 329 1003 z "},"Ë":{"ha":865,"x_min":-19,"x_max":833,"o":"m -19 0 l -15 22 l 103 79 l 236 838 l 138 894 l 142 917 l 833 917 l 792 676 l 769 676 l 704 843 l 429 843 l 369 506 l 558 506 l 658 626 l 681 626 l 626 322 l 604 322 l 547 440 l 357 440 l 292 74 l 607 74 l 744 283 l 767 283 l 717 0 l -19 0 m 431 1018 q 378 1040 399 1018 q 357 1092 357 1061 q 378 1144 357 1122 q 431 1165 399 1165 q 483 1144 461 1165 q 504 1092 504 1122 q 483 1040 504 1061 q 431 1018 461 1018 m 692 1018 q 639 1040 660 1018 q 618 1092 618 1061 q 639 1144 618 1122 q 692 1165 660 1165 q 743 1144 722 1165 q 764 1092 764 1122 q 743 1040 764 1061 q 692 1018 722 1018 z "},"Ē":{"ha":865,"x_min":-19,"x_max":833,"o":"m -19 0 l -15 22 l 103 79 l 236 838 l 138 894 l 142 917 l 833 917 l 792 676 l 769 676 l 704 843 l 429 843 l 369 506 l 558 506 l 658 626 l 681 626 l 626 322 l 604 322 l 547 440 l 357 440 l 292 74 l 607 74 l 744 283 l 767 283 l 717 0 l -19 0 m 356 1053 l 369 1132 l 767 1132 l 751 1053 l 356 1053 z "},"Ĕ":{"ha":865,"x_min":-19,"x_max":833,"o":"m -19 0 l -15 22 l 103 79 l 236 838 l 138 894 l 142 917 l 833 917 l 792 676 l 769 676 l 704 843 l 429 843 l 369 506 l 558 506 l 658 626 l 681 626 l 626 322 l 604 322 l 547 440 l 357 440 l 292 74 l 607 74 l 744 283 l 767 283 l 717 0 l -19 0 m 543 986 q 406 1037 444 986 q 360 1197 367 1088 l 386 1197 q 446 1108 404 1129 q 556 1086 488 1086 q 674 1106 622 1086 q 764 1197 725 1126 l 790 1197 q 693 1038 753 1089 q 543 986 633 986 z "},"Ė":{"ha":865,"x_min":-19,"x_max":833,"o":"m -19 0 l -15 22 l 103 79 l 236 838 l 138 894 l 142 917 l 833 917 l 792 676 l 769 676 l 704 843 l 429 843 l 369 506 l 558 506 l 658 626 l 681 626 l 626 322 l 604 322 l 547 440 l 357 440 l 292 74 l 607 74 l 744 283 l 767 283 l 717 0 l -19 0 m 560 996 q 492 1023 519 996 q 464 1090 464 1050 q 492 1160 464 1132 q 560 1188 519 1188 q 628 1160 601 1188 q 656 1090 656 1132 q 628 1023 656 1050 q 560 996 601 996 z "},"Ę":{"ha":865,"x_min":-19,"x_max":833,"o":"m -19 0 l -15 22 l 103 79 l 236 838 l 138 894 l 142 917 l 833 917 l 792 676 l 769 676 l 704 843 l 429 843 l 369 506 l 558 506 l 658 626 l 681 626 l 626 322 l 604 322 l 547 440 l 357 440 l 292 74 l 607 74 l 744 283 l 767 283 l 717 0 l 607 0 q 558 -93 576 -46 q 539 -186 539 -140 q 614 -261 539 -261 q 645 -256 628 -261 q 676 -239 663 -250 l 681 -239 l 675 -265 q 622 -315 654 -297 q 547 -333 590 -333 q 459 -303 492 -333 q 426 -222 426 -274 q 465 -108 426 -164 q 561 0 504 -53 l -19 0 z "},"Ẹ":{"ha":865,"x_min":-19,"x_max":833,"o":"m -19 0 l -15 22 l 103 79 l 236 838 l 138 894 l 142 917 l 833 917 l 792 676 l 769 676 l 704 843 l 429 843 l 369 506 l 558 506 l 658 626 l 681 626 l 626 322 l 604 322 l 547 440 l 357 440 l 292 74 l 607 74 l 744 283 l 767 283 l 717 0 l -19 0 z "},"Ȅ":{"ha":865,"x_min":-19,"x_max":833,"o":"m -19 0 l -15 22 l 103 79 l 236 838 l 138 894 l 142 917 l 833 917 l 792 676 l 769 676 l 704 843 l 429 843 l 369 506 l 558 506 l 658 626 l 681 626 l 626 322 l 604 322 l 547 440 l 357 440 l 292 74 l 607 74 l 744 283 l 767 283 l 717 0 l -19 0 m 617 986 l 461 1114 q 434 1154 439 1133 q 433 1197 429 1175 l 550 1197 l 643 986 l 617 986 m 433 986 l 250 1114 q 221 1153 225 1131 q 221 1197 217 1175 l 338 1197 l 460 986 l 433 986 z "},"Ȇ":{"ha":865,"x_min":-19,"x_max":833,"o":"m -19 0 l -15 22 l 103 79 l 236 838 l 138 894 l 142 917 l 833 917 l 792 676 l 769 676 l 704 843 l 429 843 l 369 506 l 558 506 l 658 626 l 681 626 l 626 322 l 604 322 l 547 440 l 357 440 l 292 74 l 607 74 l 744 283 l 767 283 l 717 0 l -19 0 m 329 986 q 426 1146 367 1094 q 576 1197 486 1197 q 714 1147 675 1197 q 760 986 753 1096 l 733 986 q 674 1076 715 1054 q 564 1097 632 1097 q 446 1077 497 1097 q 356 986 394 1057 l 329 986 z "},"Ế":{"ha":865,"x_min":-19,"x_max":944,"o":"m -19 0 l -15 22 l 103 79 l 236 838 l 138 894 l 142 917 l 833 917 l 792 676 l 769 676 l 704 843 l 429 843 l 369 506 l 558 506 l 658 626 l 681 626 l 626 322 l 604 322 l 547 440 l 357 440 l 292 74 l 607 74 l 744 283 l 767 283 l 717 0 l -19 0 m 715 1118 l 806 1317 l 944 1317 q 929 1274 940 1296 q 886 1229 918 1253 l 740 1118 l 715 1118 m 329 986 l 547 1197 l 608 1197 l 746 986 l 719 986 l 560 1082 l 356 986 l 329 986 z "},"Ệ":{"ha":865,"x_min":-19,"x_max":833,"o":"m -19 0 l -15 22 l 103 79 l 236 838 l 138 894 l 142 917 l 833 917 l 792 676 l 769 676 l 704 843 l 429 843 l 369 506 l 558 506 l 658 626 l 681 626 l 626 322 l 604 322 l 547 440 l 357 440 l 292 74 l 607 74 l 744 283 l 767 283 l 717 0 l -19 0 m 329 986 l 547 1197 l 608 1197 l 746 986 l 719 986 l 560 1082 l 356 986 l 329 986 z "},"Ề":{"ha":865,"x_min":-19,"x_max":833,"o":"m -19 0 l -15 22 l 103 79 l 236 838 l 138 894 l 142 917 l 833 917 l 792 676 l 769 676 l 704 843 l 429 843 l 369 506 l 558 506 l 658 626 l 681 626 l 626 322 l 604 322 l 547 440 l 357 440 l 292 74 l 607 74 l 744 283 l 767 283 l 717 0 l -19 0 m 378 1118 l 231 1229 q 192 1269 201 1251 q 186 1317 183 1288 l 317 1317 l 404 1118 l 378 1118 m 329 986 l 547 1197 l 608 1197 l 746 986 l 719 986 l 560 1082 l 356 986 l 329 986 z "},"Ể":{"ha":865,"x_min":-19,"x_max":833,"o":"m -19 0 l -15 22 l 103 79 l 236 838 l 138 894 l 142 917 l 833 917 l 792 676 l 769 676 l 704 843 l 429 843 l 369 506 l 558 506 l 658 626 l 681 626 l 626 322 l 604 322 l 547 440 l 357 440 l 292 74 l 607 74 l 744 283 l 767 283 l 717 0 l -19 0 z "},"Ễ":{"ha":865,"x_min":-19,"x_max":843,"o":"m -19 0 l -15 22 l 103 79 l 236 838 l 138 894 l 142 917 l 833 917 l 792 676 l 769 676 l 704 843 l 429 843 l 369 506 l 558 506 l 658 626 l 681 626 l 626 322 l 604 322 l 547 440 l 357 440 l 292 74 l 607 74 l 744 283 l 767 283 l 717 0 l -19 0 z "},"Ẻ":{"ha":865,"x_min":-19,"x_max":833,"o":"m -19 0 l -15 22 l 103 79 l 236 838 l 138 894 l 142 917 l 833 917 l 792 676 l 769 676 l 704 843 l 429 843 l 369 506 l 558 506 l 658 626 l 681 626 l 626 322 l 604 322 l 547 440 l 357 440 l 292 74 l 607 74 l 744 283 l 767 283 l 717 0 l -19 0 m 490 972 l 481 985 l 481 986 q 553 1017 531 1000 q 575 1064 575 1035 q 556 1101 575 1085 q 493 1126 538 1117 l 525 1213 q 626 1172 596 1204 q 656 1104 656 1140 q 613 1017 656 1049 q 490 972 569 986 z "},"Ḕ":{"ha":865,"x_min":-19,"x_max":833,"o":"m -19 0 l -15 22 l 103 79 l 236 838 l 138 894 l 142 917 l 833 917 l 792 676 l 769 676 l 704 843 l 429 843 l 369 506 l 558 506 l 658 626 l 681 626 l 626 322 l 604 322 l 547 440 l 357 440 l 292 74 l 607 74 l 744 283 l 767 283 l 717 0 l -19 0 z "},"Ḗ":{"ha":865,"x_min":-19,"x_max":851,"o":"m -19 0 l -15 22 l 103 79 l 236 838 l 138 894 l 142 917 l 833 917 l 792 676 l 769 676 l 704 843 l 429 843 l 369 506 l 558 506 l 658 626 l 681 626 l 626 322 l 604 322 l 547 440 l 357 440 l 292 74 l 607 74 l 744 283 l 767 283 l 717 0 l -19 0 z "},"Ḝ":{"ha":865,"x_min":-19,"x_max":833,"o":"m 542 986 q 405 1037 444 986 q 358 1197 365 1088 l 385 1197 q 444 1108 403 1129 q 554 1086 486 1086 q 673 1106 621 1086 q 764 1197 725 1126 l 790 1197 q 692 1038 753 1089 q 542 986 632 986 m -19 0 l -15 22 l 103 79 l 236 838 l 138 894 l 142 917 l 833 917 l 792 676 l 769 676 l 704 843 l 429 843 l 369 506 l 558 506 l 658 626 l 681 626 l 626 322 l 604 322 l 547 440 l 357 440 l 292 74 l 607 74 l 744 283 l 767 283 l 717 0 l 428 0 l 389 -67 q 484 -119 456 -86 q 513 -197 513 -151 q 469 -294 513 -256 q 353 -333 425 -333 q 250 -301 285 -333 l 254 -276 l 258 -276 q 333 -292 289 -292 q 394 -276 372 -292 q 415 -231 415 -260 q 389 -181 415 -203 q 296 -142 363 -158 l 382 0 l -19 0 z "},"Ĝ":{"ha":985,"x_min":67,"x_max":931,"o":"m 432 -14 q 240 34 322 -14 q 112 166 157 82 q 67 358 67 250 q 114 580 67 476 q 242 763 161 683 q 425 886 324 842 q 635 931 526 931 q 744 923 699 931 q 828 901 790 915 q 904 864 865 886 l 874 619 l 851 619 l 764 822 q 703 855 733 844 q 628 865 672 865 q 482 823 549 865 q 367 708 415 781 q 292 542 318 635 q 265 350 265 450 q 326 141 265 217 q 483 65 386 65 q 532 68 506 65 q 585 76 558 71 l 629 329 l 526 394 l 531 417 l 931 417 l 926 394 l 819 328 l 781 103 q 675 41 736 67 q 550 1 614 15 q 432 -14 486 -14 m 417 986 l 635 1197 l 696 1197 l 833 986 l 807 986 l 647 1082 l 443 986 l 417 986 z "},"Ğ":{"ha":985,"x_min":67,"x_max":931,"o":"m 432 -14 q 240 34 322 -14 q 112 166 157 82 q 67 358 67 250 q 114 580 67 476 q 242 763 161 683 q 425 886 324 842 q 635 931 526 931 q 744 923 699 931 q 828 901 790 915 q 904 864 865 886 l 874 619 l 851 619 l 764 822 q 703 855 733 844 q 628 865 672 865 q 482 823 549 865 q 367 708 415 781 q 292 542 318 635 q 265 350 265 450 q 326 141 265 217 q 483 65 386 65 q 532 68 506 65 q 585 76 558 71 l 629 329 l 526 394 l 531 417 l 931 417 l 926 394 l 819 328 l 781 103 q 675 41 736 67 q 550 1 614 15 q 432 -14 486 -14 m 629 986 q 492 1037 531 986 q 446 1197 453 1088 l 472 1197 q 532 1108 490 1129 q 642 1086 574 1086 q 760 1106 708 1086 q 850 1197 811 1126 l 876 1197 q 779 1038 839 1089 q 629 986 719 986 z "},"Ġ":{"ha":985,"x_min":67,"x_max":931,"o":"m 432 -14 q 240 34 322 -14 q 112 166 157 82 q 67 358 67 250 q 114 580 67 476 q 242 763 161 683 q 425 886 324 842 q 635 931 526 931 q 744 923 699 931 q 828 901 790 915 q 904 864 865 886 l 874 619 l 851 619 l 764 822 q 703 855 733 844 q 628 865 672 865 q 482 823 549 865 q 367 708 415 781 q 292 542 318 635 q 265 350 265 450 q 326 141 265 217 q 483 65 386 65 q 532 68 506 65 q 585 76 558 71 l 629 329 l 526 394 l 531 417 l 931 417 l 926 394 l 819 328 l 781 103 q 675 41 736 67 q 550 1 614 15 q 432 -14 486 -14 m 647 996 q 579 1023 607 996 q 551 1090 551 1050 q 579 1160 551 1132 q 647 1188 607 1188 q 716 1160 689 1188 q 743 1090 743 1132 q 716 1023 743 1050 q 647 996 689 996 z "},"Ģ":{"ha":985,"x_min":67,"x_max":931,"o":"m 432 -14 q 240 34 322 -14 q 112 166 157 82 q 67 358 67 250 q 114 580 67 476 q 242 763 161 683 q 425 886 324 842 q 635 931 526 931 q 744 923 699 931 q 828 901 790 915 q 904 864 865 886 l 874 619 l 851 619 l 764 822 q 703 855 733 844 q 628 865 672 865 q 482 823 549 865 q 367 708 415 781 q 292 542 318 635 q 265 350 265 450 q 326 141 265 217 q 483 65 386 65 q 532 68 506 65 q 585 76 558 71 l 629 329 l 526 394 l 531 417 l 931 417 l 926 394 l 819 328 l 781 103 q 675 41 736 67 q 550 1 614 15 q 432 -14 486 -14 m 669 986 q 566 1014 601 986 q 531 1090 531 1042 q 581 1181 531 1150 q 707 1213 632 1213 q 734 1212 719 1213 q 760 1208 749 1211 l 754 1186 q 717 1190 735 1190 q 632 1131 632 1190 q 657 1087 632 1100 q 735 1074 682 1074 l 724 1015 q 710 994 721 1003 q 669 986 699 986 z "},"Ǧ":{"ha":985,"x_min":67,"x_max":931,"o":"m 432 -14 q 240 34 322 -14 q 112 166 157 82 q 67 358 67 250 q 114 580 67 476 q 242 763 161 683 q 425 886 324 842 q 635 931 526 931 q 744 923 699 931 q 828 901 790 915 q 904 864 865 886 l 874 619 l 851 619 l 764 822 q 703 855 733 844 q 628 865 672 865 q 482 823 549 865 q 367 708 415 781 q 292 542 318 635 q 265 350 265 450 q 326 141 265 217 q 483 65 386 65 q 532 68 506 65 q 585 76 558 71 l 629 329 l 526 394 l 531 417 l 931 417 l 926 394 l 819 328 l 781 103 q 675 41 736 67 q 550 1 614 15 q 432 -14 486 -14 m 599 986 l 460 1197 l 486 1197 l 642 1101 l 850 1197 l 876 1197 l 658 986 l 599 986 z "},"Ḡ":{"ha":985,"x_min":67,"x_max":931,"o":"m 432 -14 q 240 34 322 -14 q 112 166 157 82 q 67 358 67 250 q 114 580 67 476 q 242 763 161 683 q 425 886 324 842 q 635 931 526 931 q 744 923 699 931 q 828 901 790 915 q 904 864 865 886 l 874 619 l 851 619 l 764 822 q 703 855 733 844 q 628 865 672 865 q 482 823 549 865 q 367 708 415 781 q 292 542 318 635 q 265 350 265 450 q 326 141 265 217 q 483 65 386 65 q 532 68 506 65 q 585 76 558 71 l 629 329 l 526 394 l 531 417 l 931 417 l 926 394 l 819 328 l 781 103 q 675 41 736 67 q 550 1 614 15 q 432 -14 486 -14 m 442 1053 l 456 1132 l 853 1132 l 838 1053 l 442 1053 z "},"Ĥ":{"ha":1071,"x_min":-19,"x_max":1090,"o":"m -19 0 l -15 22 l 99 79 l 233 838 l 132 894 l 136 917 l 538 917 l 533 894 l 424 838 l 367 510 l 722 510 l 781 838 l 686 894 l 690 917 l 1090 917 l 1086 894 l 971 838 l 836 79 l 939 22 l 935 0 l 535 0 l 539 22 l 646 79 l 710 436 l 353 436 l 290 79 l 385 22 l 381 0 l -19 0 m 415 986 l 633 1197 l 694 1197 l 832 986 l 806 986 l 646 1082 l 442 986 l 415 986 z "},"Ħ":{"ha":1071,"x_min":-19,"x_max":1090,"o":"m -19 0 l -15 22 l 99 79 l 201 656 l 93 656 l 107 721 l 213 721 l 233 838 l 132 894 l 136 917 l 538 917 l 533 894 l 424 838 l 403 721 l 760 721 l 781 838 l 686 894 l 690 917 l 1090 917 l 1086 894 l 971 838 l 950 721 l 1057 721 l 1043 656 l 939 656 l 836 79 l 939 22 l 935 0 l 535 0 l 539 22 l 646 79 l 710 436 l 353 436 l 290 79 l 385 22 l 381 0 l -19 0 m 367 510 l 722 510 l 749 656 l 392 656 l 367 510 z "},"Ḥ":{"ha":1071,"x_min":-19,"x_max":1090,"o":"m -19 0 l -15 22 l 99 79 l 233 838 l 132 894 l 136 917 l 538 917 l 533 894 l 424 838 l 367 510 l 722 510 l 781 838 l 686 894 l 690 917 l 1090 917 l 1086 894 l 971 838 l 836 79 l 939 22 l 935 0 l 535 0 l 539 22 l 646 79 l 710 436 l 353 436 l 290 79 l 385 22 l 381 0 l -19 0 z "},"Ḫ":{"ha":1071,"x_min":-19,"x_max":1090,"o":"m -19 0 l -15 22 l 99 79 l 233 838 l 132 894 l 136 917 l 538 917 l 533 894 l 424 838 l 367 510 l 722 510 l 781 838 l 686 894 l 690 917 l 1090 917 l 1086 894 l 971 838 l 836 79 l 939 22 l 935 0 l 535 0 l 539 22 l 646 79 l 710 436 l 353 436 l 290 79 l 385 22 l 381 0 l -19 0 z "},"Ì":{"ha":525,"x_min":-19,"x_max":546,"o":"m -19 0 l -15 22 l 99 79 l 233 838 l 132 894 l 136 917 l 546 917 l 542 894 l 424 838 l 290 79 l 393 22 l 389 0 l -19 0 m 339 986 l 140 1110 q 111 1149 114 1126 q 111 1197 108 1171 l 246 1197 l 367 986 l 339 986 z "},"Í":{"ha":525,"x_min":-19,"x_max":624,"o":"m -19 0 l -15 22 l 99 79 l 233 838 l 132 894 l 136 917 l 546 917 l 542 894 l 424 838 l 290 79 l 393 22 l 389 0 l -19 0 m 340 986 l 475 1197 l 624 1197 q 609 1154 619 1176 q 564 1110 599 1132 l 367 986 l 340 986 z "},"Î":{"ha":525,"x_min":-19,"x_max":557,"o":"m -19 0 l -15 22 l 99 79 l 233 838 l 132 894 l 136 917 l 546 917 l 542 894 l 424 838 l 290 79 l 393 22 l 389 0 l -19 0 m 140 986 l 358 1197 l 419 1197 l 557 986 l 531 986 l 371 1082 l 167 986 l 140 986 z "},"Ĩ":{"ha":525,"x_min":-19,"x_max":604,"o":"m -19 0 l -15 22 l 99 79 l 233 838 l 132 894 l 136 917 l 546 917 l 542 894 l 424 838 l 290 79 l 393 22 l 389 0 l -19 0 m 140 1003 q 201 1117 175 1081 q 251 1166 228 1154 q 303 1178 275 1178 q 371 1158 342 1178 q 426 1118 400 1138 q 482 1099 453 1099 q 525 1112 506 1099 q 574 1178 544 1125 l 604 1178 q 543 1063 569 1100 q 493 1014 517 1025 q 440 1003 469 1003 q 374 1022 403 1003 q 318 1061 344 1042 q 263 1081 292 1081 q 219 1068 239 1081 q 171 1003 199 1056 l 140 1003 z "},"Ï":{"ha":525,"x_min":-19,"x_max":575,"o":"m -19 0 l -15 22 l 99 79 l 233 838 l 132 894 l 136 917 l 546 917 l 542 894 l 424 838 l 290 79 l 393 22 l 389 0 l -19 0 m 242 1018 q 189 1040 210 1018 q 168 1092 168 1061 q 189 1144 168 1122 q 242 1165 210 1165 q 294 1144 272 1165 q 315 1092 315 1122 q 294 1040 315 1061 q 242 1018 272 1018 m 503 1018 q 450 1040 471 1018 q 429 1092 429 1061 q 450 1144 429 1122 q 503 1165 471 1165 q 554 1144 533 1165 q 575 1092 575 1122 q 554 1040 575 1061 q 503 1018 533 1018 z "},"Ī":{"ha":525,"x_min":-19,"x_max":578,"o":"m -19 0 l -15 22 l 99 79 l 233 838 l 132 894 l 136 917 l 546 917 l 542 894 l 424 838 l 290 79 l 393 22 l 389 0 l -19 0 m 167 1053 l 181 1132 l 578 1132 l 563 1053 l 167 1053 z "},"Ĭ":{"ha":525,"x_min":-19,"x_max":601,"o":"m -19 0 l -15 22 l 99 79 l 233 838 l 132 894 l 136 917 l 546 917 l 542 894 l 424 838 l 290 79 l 393 22 l 389 0 l -19 0 m 354 986 q 217 1037 256 986 q 171 1197 178 1088 l 197 1197 q 257 1108 215 1129 q 367 1086 299 1086 q 485 1106 433 1086 q 575 1197 536 1126 l 601 1197 q 504 1038 564 1089 q 354 986 444 986 z "},"İ":{"ha":525,"x_min":-19,"x_max":546,"o":"m -19 0 l -15 22 l 99 79 l 233 838 l 132 894 l 136 917 l 546 917 l 542 894 l 424 838 l 290 79 l 393 22 l 389 0 l -19 0 m 371 996 q 303 1023 331 996 q 275 1090 275 1050 q 303 1160 275 1132 q 371 1188 331 1188 q 440 1160 413 1188 q 467 1090 467 1132 q 440 1023 467 1050 q 371 996 413 996 z "},"Į":{"ha":525,"x_min":-19,"x_max":546,"o":"m -19 0 l -15 22 l 99 79 l 233 838 l 132 894 l 136 917 l 546 917 l 542 894 l 424 838 l 290 79 l 393 22 l 389 0 l 206 0 q 155 -93 174 -46 q 136 -186 136 -140 q 211 -261 136 -261 q 243 -256 225 -261 q 275 -239 261 -250 l 279 -239 l 274 -265 q 220 -315 251 -297 q 146 -333 189 -333 q 57 -303 89 -333 q 25 -222 25 -274 q 64 -108 25 -164 q 158 0 103 -53 l -19 0 z "},"Ị":{"ha":525,"x_min":-19,"x_max":546,"o":"m -19 0 l -15 22 l 99 79 l 233 838 l 132 894 l 136 917 l 546 917 l 542 894 l 424 838 l 290 79 l 393 22 l 389 0 l -19 0 z "},"Ȉ":{"ha":525,"x_min":-19,"x_max":546,"o":"m -19 0 l -15 22 l 99 79 l 233 838 l 132 894 l 136 917 l 546 917 l 542 894 l 424 838 l 290 79 l 393 22 l 389 0 l -19 0 m 428 986 l 272 1114 q 245 1154 250 1133 q 244 1197 240 1175 l 361 1197 l 454 986 l 428 986 m 244 986 l 61 1114 q 32 1153 36 1131 q 32 1197 28 1175 l 149 1197 l 271 986 l 244 986 z "},"Ȋ":{"ha":525,"x_min":-19,"x_max":571,"o":"m -19 0 l -15 22 l 99 79 l 233 838 l 132 894 l 136 917 l 546 917 l 542 894 l 424 838 l 290 79 l 393 22 l 389 0 l -19 0 m 140 986 q 238 1146 178 1094 q 388 1197 297 1197 q 525 1147 486 1197 q 571 986 564 1096 l 544 986 q 485 1076 526 1054 q 375 1097 443 1097 q 257 1077 308 1097 q 167 986 206 1057 l 140 986 z "},"Ỉ":{"ha":525,"x_min":-19,"x_max":546,"o":"m -19 0 l -15 22 l 99 79 l 233 838 l 132 894 l 136 917 l 546 917 l 542 894 l 424 838 l 290 79 l 393 22 l 389 0 l -19 0 m 301 972 l 292 985 l 292 986 q 364 1017 342 1000 q 386 1064 386 1035 q 367 1101 386 1085 q 304 1126 349 1117 l 336 1213 q 437 1172 407 1204 q 467 1104 467 1140 q 424 1017 467 1049 q 301 972 381 986 z "},"Ḯ":{"ha":525,"x_min":-19,"x_max":663,"o":"m -19 0 l -15 22 l 99 79 l 233 838 l 132 894 l 136 917 l 546 917 l 542 894 l 424 838 l 290 79 l 393 22 l 389 0 l -19 0 z "},"Ĳ":{"ha":1065,"x_min":-19,"x_max":1089,"o":"m -19 0 l -15 22 l 99 79 l 233 838 l 132 894 l 136 917 l 546 917 l 542 894 l 424 838 l 290 79 l 393 22 l 389 0 l -19 0 m 471 -240 q 428 -224 442 -240 q 425 -174 414 -207 l 451 -96 l 460 -96 q 492 -106 478 -103 q 525 -108 507 -108 q 578 -94 556 -108 q 619 -36 601 -81 q 653 101 636 8 l 783 838 l 676 894 l 679 917 l 1089 917 l 1085 894 l 975 838 l 881 324 q 793 63 853 174 q 664 -115 733 -47 q 583 -192 614 -165 q 527 -230 551 -219 q 471 -240 503 -240 z "},"Ĵ":{"ha":539,"x_min":-111,"x_max":582,"o":"m -54 -240 q -97 -224 -83 -240 q -100 -174 -111 -207 l -74 -96 l -65 -96 q -33 -106 -47 -103 q 0 -108 -18 -108 q 53 -94 31 -108 q 94 -36 76 -81 q 128 101 111 8 l 258 838 l 151 894 l 154 917 l 564 917 l 560 894 l 450 838 l 356 324 q 268 63 328 174 q 139 -115 208 -47 q 58 -192 89 -165 q 2 -230 26 -219 q -54 -240 -22 -240 m 165 986 l 383 1197 l 444 1197 l 582 986 l 556 986 l 396 1082 l 192 986 l 165 986 z "},"Ķ":{"ha":1001,"x_min":-19,"x_max":992,"o":"m -19 0 l -15 22 l 103 79 l 236 838 l 138 894 l 142 917 l 551 917 l 546 894 l 428 838 l 293 79 l 394 22 l 389 0 l -19 0 m 650 0 l 364 464 l 776 846 l 689 894 l 693 917 l 992 917 l 986 894 l 901 861 l 535 528 l 832 72 l 913 22 l 908 0 l 650 0 m 358 -332 q 331 -331 346 -332 q 306 -326 315 -329 l 311 -306 q 331 -308 321 -307 q 349 -308 340 -308 q 433 -249 433 -308 q 408 -206 433 -218 q 331 -193 382 -193 l 342 -135 q 355 -114 343 -122 q 396 -106 367 -106 q 500 -133 465 -106 q 535 -210 535 -161 q 484 -301 535 -269 q 358 -332 433 -332 z "},"Ĺ":{"ha":807,"x_min":-19,"x_max":736,"o":"m -19 0 l -15 22 l 103 79 l 236 838 l 138 894 l 142 917 l 564 917 l 560 894 l 428 838 l 293 74 l 558 74 l 714 328 l 736 328 l 675 0 l -19 0 m 344 986 l 479 1197 l 628 1197 q 613 1154 624 1176 q 568 1110 603 1132 l 371 986 l 344 986 z "},"Ľ":{"ha":807,"x_min":-19,"x_max":789,"o":"m -19 0 l -15 22 l 103 79 l 236 838 l 138 894 l 142 917 l 564 917 l 560 894 l 428 838 l 293 74 l 558 74 l 714 328 l 736 328 l 675 0 l -19 0 m 582 657 l 653 917 l 786 917 q 784 873 789 896 q 757 824 779 850 l 610 657 l 582 657 z "},"Ļ":{"ha":807,"x_min":-19,"x_max":736,"o":"m -19 0 l -15 22 l 103 79 l 236 838 l 138 894 l 142 917 l 564 917 l 560 894 l 428 838 l 293 74 l 558 74 l 714 328 l 736 328 l 675 0 l -19 0 m 261 -332 q 233 -331 249 -332 q 208 -326 218 -329 l 214 -306 q 233 -308 224 -307 q 251 -308 243 -308 q 336 -249 336 -308 q 310 -206 336 -218 q 233 -193 285 -193 l 244 -135 q 258 -114 246 -122 q 299 -106 269 -106 q 403 -133 368 -106 q 438 -210 438 -161 q 387 -301 438 -269 q 261 -332 336 -332 z "},"Ł":{"ha":807,"x_min":-19,"x_max":736,"o":"m -19 0 l -15 22 l 103 79 l 147 335 l 28 267 l 42 353 l 163 422 l 236 838 l 138 894 l 142 917 l 564 917 l 560 894 l 428 838 l 372 524 l 593 647 l 576 560 l 357 438 l 293 74 l 558 74 l 714 328 l 736 328 l 675 0 l -19 0 z "},"Ŀ":{"ha":807,"x_min":-19,"x_max":771,"o":"m -19 0 l -15 22 l 103 79 l 236 838 l 138 894 l 142 917 l 564 917 l 560 894 l 428 838 l 293 74 l 558 74 l 714 328 l 736 328 l 675 0 l -19 0 m 675 393 q 607 420 635 393 q 579 488 579 447 q 607 557 579 529 q 675 585 635 585 q 744 557 717 585 q 771 488 771 529 q 744 420 771 447 q 675 393 717 393 z "},"Ḷ":{"ha":807,"x_min":-19,"x_max":736,"o":"m -19 0 l -15 22 l 103 79 l 236 838 l 138 894 l 142 917 l 564 917 l 560 894 l 428 838 l 293 74 l 558 74 l 714 328 l 736 328 l 675 0 l -19 0 z "},"Ḻ":{"ha":807,"x_min":-19,"x_max":736,"o":"m -19 0 l -15 22 l 103 79 l 236 838 l 138 894 l 142 917 l 564 917 l 560 894 l 428 838 l 293 74 l 558 74 l 714 328 l 736 328 l 675 0 l -19 0 z "},"Ṃ":{"ha":1297,"x_min":-19,"x_max":1292,"o":"m -19 0 l -15 22 l 103 79 l 264 838 l 151 894 l 157 917 l 478 917 l 632 267 l 988 917 l 1292 917 l 1286 894 l 1169 839 l 1082 79 l 1171 22 l 1167 0 l 779 0 l 783 22 l 893 78 l 968 717 l 569 -7 l 497 -7 l 325 735 l 190 78 l 293 22 l 289 0 l -19 0 z "},"Ń":{"ha":1057,"x_min":-15,"x_max":1079,"o":"m -15 0 l -11 22 l 108 79 l 242 836 l 142 894 l 146 917 l 388 917 l 767 285 l 864 839 l 725 894 l 731 917 l 1079 917 l 1075 894 l 957 838 l 808 -7 l 724 -7 l 307 676 l 203 79 l 340 22 l 336 0 l -15 0 m 622 986 l 757 1197 l 906 1197 q 891 1154 901 1176 q 846 1110 881 1132 l 649 986 l 622 986 z "},"Ň":{"ha":1057,"x_min":-15,"x_max":1079,"o":"m -15 0 l -11 22 l 108 79 l 242 836 l 142 894 l 146 917 l 388 917 l 767 285 l 864 839 l 725 894 l 731 917 l 1079 917 l 1075 894 l 957 838 l 808 -7 l 724 -7 l 307 676 l 203 79 l 340 22 l 336 0 l -15 0 m 606 986 l 467 1197 l 493 1197 l 649 1101 l 857 1197 l 883 1197 l 665 986 l 606 986 z "},"Ñ":{"ha":1057,"x_min":-15,"x_max":1079,"o":"m -15 0 l -11 22 l 108 79 l 242 836 l 142 894 l 146 917 l 388 917 l 767 285 l 864 839 l 725 894 l 731 917 l 1079 917 l 1075 894 l 957 838 l 808 -7 l 724 -7 l 307 676 l 203 79 l 340 22 l 336 0 l -15 0 m 422 1003 q 483 1117 457 1081 q 533 1166 510 1154 q 585 1178 557 1178 q 653 1158 624 1178 q 708 1118 682 1138 q 764 1099 735 1099 q 807 1112 788 1099 q 856 1178 826 1125 l 886 1178 q 825 1063 851 1100 q 775 1014 799 1025 q 722 1003 751 1003 q 656 1022 685 1003 q 600 1061 626 1042 q 544 1081 574 1081 q 501 1068 521 1081 q 453 1003 481 1056 l 422 1003 z "},"Ņ":{"ha":1057,"x_min":-15,"x_max":1079,"o":"m -15 0 l -11 22 l 108 79 l 242 836 l 142 894 l 146 917 l 388 917 l 767 285 l 864 839 l 725 894 l 731 917 l 1079 917 l 1075 894 l 957 838 l 808 -7 l 724 -7 l 307 676 l 203 79 l 340 22 l 336 0 l -15 0 m 368 -332 q 340 -331 356 -332 q 315 -326 325 -329 l 321 -306 q 340 -308 331 -307 q 358 -308 350 -308 q 443 -249 443 -308 q 417 -206 443 -218 q 340 -193 392 -193 l 351 -135 q 365 -114 353 -122 q 406 -106 376 -106 q 510 -133 475 -106 q 544 -210 544 -161 q 494 -301 544 -269 q 368 -332 443 -332 z "},"Ṅ":{"ha":1057,"x_min":-15,"x_max":1079,"o":"m -15 0 l -11 22 l 108 79 l 242 836 l 142 894 l 146 917 l 388 917 l 767 285 l 864 839 l 725 894 l 731 917 l 1079 917 l 1075 894 l 957 838 l 808 -7 l 724 -7 l 307 676 l 203 79 l 340 22 l 336 0 l -15 0 m 653 996 q 585 1023 613 996 q 557 1090 557 1050 q 585 1160 557 1132 q 653 1188 613 1188 q 722 1160 694 1188 q 749 1090 749 1132 q 722 1023 749 1050 q 653 996 694 996 z "},"Ṇ":{"ha":1057,"x_min":-15,"x_max":1079,"o":"m -15 0 l -11 22 l 108 79 l 242 836 l 142 894 l 146 917 l 388 917 l 767 285 l 864 839 l 725 894 l 731 917 l 1079 917 l 1075 894 l 957 838 l 808 -7 l 724 -7 l 307 676 l 203 79 l 340 22 l 336 0 l -15 0 z "},"Ṉ":{"ha":1057,"x_min":-15,"x_max":1079,"o":"m -15 0 l -11 22 l 108 79 l 242 836 l 142 894 l 146 917 l 388 917 l 767 285 l 864 839 l 725 894 l 731 917 l 1079 917 l 1075 894 l 957 838 l 808 -7 l 724 -7 l 307 676 l 203 79 l 340 22 l 336 0 l -15 0 z "},"Ò":{"ha":1075,"x_min":67,"x_max":1008,"o":"m 467 -14 q 251 36 340 -14 q 114 176 161 86 q 67 382 67 265 q 108 593 67 494 q 222 768 149 692 q 394 888 296 844 q 607 931 492 931 q 823 881 733 931 q 960 741 913 831 q 1008 535 1008 651 q 969 325 1008 424 q 857 150 929 226 q 685 30 785 74 q 467 -14 586 -14 m 493 56 q 622 95 564 56 q 721 203 679 135 q 785 363 763 272 q 807 553 807 453 q 751 776 807 690 q 585 861 696 861 q 459 822 517 861 q 359 715 401 783 q 293 556 317 646 q 269 365 269 467 q 296 205 269 275 q 372 95 322 135 q 493 56 422 56 m 614 986 l 415 1110 q 386 1149 389 1126 q 386 1197 383 1171 l 521 1197 l 642 986 l 614 986 z "},"Ó":{"ha":1075,"x_min":67,"x_max":1008,"o":"m 467 -14 q 251 36 340 -14 q 114 176 161 86 q 67 382 67 265 q 108 593 67 494 q 222 768 149 692 q 394 888 296 844 q 607 931 492 931 q 823 881 733 931 q 960 741 913 831 q 1008 535 1008 651 q 969 325 1008 424 q 857 150 929 226 q 685 30 785 74 q 467 -14 586 -14 m 493 56 q 622 95 564 56 q 721 203 679 135 q 785 363 763 272 q 807 553 807 453 q 751 776 807 690 q 585 861 696 861 q 459 822 517 861 q 359 715 401 783 q 293 556 317 646 q 269 365 269 467 q 296 205 269 275 q 372 95 322 135 q 493 56 422 56 m 617 986 l 751 1197 l 900 1197 q 885 1154 896 1176 q 840 1110 875 1132 l 643 986 l 617 986 z "},"Ô":{"ha":1075,"x_min":67,"x_max":1008,"o":"m 467 -14 q 251 36 340 -14 q 114 176 161 86 q 67 382 67 265 q 108 593 67 494 q 222 768 149 692 q 394 888 296 844 q 607 931 492 931 q 823 881 733 931 q 960 741 913 831 q 1008 535 1008 651 q 969 325 1008 424 q 857 150 929 226 q 685 30 785 74 q 467 -14 586 -14 m 493 56 q 622 95 564 56 q 721 203 679 135 q 785 363 763 272 q 807 553 807 453 q 751 776 807 690 q 585 861 696 861 q 459 822 517 861 q 359 715 401 783 q 293 556 317 646 q 269 365 269 467 q 296 205 269 275 q 372 95 322 135 q 493 56 422 56 m 417 986 l 635 1197 l 696 1197 l 833 986 l 807 986 l 647 1082 l 443 986 l 417 986 z "},"Õ":{"ha":1075,"x_min":67,"x_max":1008,"o":"m 467 -14 q 251 36 340 -14 q 114 176 161 86 q 67 382 67 265 q 108 593 67 494 q 222 768 149 692 q 394 888 296 844 q 607 931 492 931 q 823 881 733 931 q 960 741 913 831 q 1008 535 1008 651 q 969 325 1008 424 q 857 150 929 226 q 685 30 785 74 q 467 -14 586 -14 m 493 56 q 622 95 564 56 q 721 203 679 135 q 785 363 763 272 q 807 553 807 453 q 751 776 807 690 q 585 861 696 861 q 459 822 517 861 q 359 715 401 783 q 293 556 317 646 q 269 365 269 467 q 296 205 269 275 q 372 95 322 135 q 493 56 422 56 m 415 1003 q 476 1117 450 1081 q 526 1166 503 1154 q 578 1178 550 1178 q 646 1158 617 1178 q 701 1118 675 1138 q 757 1099 728 1099 q 800 1112 781 1099 q 849 1178 819 1125 l 879 1178 q 818 1063 844 1100 q 768 1014 792 1025 q 715 1003 744 1003 q 649 1022 678 1003 q 593 1061 619 1042 q 538 1081 567 1081 q 494 1068 514 1081 q 446 1003 474 1056 l 415 1003 z "},"Ö":{"ha":1075,"x_min":67,"x_max":1008,"o":"m 467 -14 q 251 36 340 -14 q 114 176 161 86 q 67 382 67 265 q 108 593 67 494 q 222 768 149 692 q 394 888 296 844 q 607 931 492 931 q 823 881 733 931 q 960 741 913 831 q 1008 535 1008 651 q 969 325 1008 424 q 857 150 929 226 q 685 30 785 74 q 467 -14 586 -14 m 493 56 q 622 95 564 56 q 721 203 679 135 q 785 363 763 272 q 807 553 807 453 q 751 776 807 690 q 585 861 696 861 q 459 822 517 861 q 359 715 401 783 q 293 556 317 646 q 269 365 269 467 q 296 205 269 275 q 372 95 322 135 q 493 56 422 56 m 517 1018 q 464 1040 485 1018 q 443 1092 443 1061 q 464 1144 443 1122 q 517 1165 485 1165 q 569 1144 547 1165 q 590 1092 590 1122 q 569 1040 590 1061 q 517 1018 547 1018 m 778 1018 q 725 1040 746 1018 q 704 1092 704 1061 q 725 1144 704 1122 q 778 1165 746 1165 q 829 1144 808 1165 q 850 1092 850 1122 q 829 1040 850 1061 q 778 1018 808 1018 z "},"Ō":{"ha":1075,"x_min":67,"x_max":1008,"o":"m 467 -14 q 251 36 340 -14 q 114 176 161 86 q 67 382 67 265 q 108 593 67 494 q 222 768 149 692 q 394 888 296 844 q 607 931 492 931 q 823 881 733 931 q 960 741 913 831 q 1008 535 1008 651 q 969 325 1008 424 q 857 150 929 226 q 685 30 785 74 q 467 -14 586 -14 m 493 56 q 622 95 564 56 q 721 203 679 135 q 785 363 763 272 q 807 553 807 453 q 751 776 807 690 q 585 861 696 861 q 459 822 517 861 q 359 715 401 783 q 293 556 317 646 q 269 365 269 467 q 296 205 269 275 q 372 95 322 135 q 493 56 422 56 m 442 1053 l 456 1132 l 853 1132 l 838 1053 l 442 1053 z "},"Ŏ":{"ha":1075,"x_min":67,"x_max":1008,"o":"m 467 -14 q 251 36 340 -14 q 114 176 161 86 q 67 382 67 265 q 108 593 67 494 q 222 768 149 692 q 394 888 296 844 q 607 931 492 931 q 823 881 733 931 q 960 741 913 831 q 1008 535 1008 651 q 969 325 1008 424 q 857 150 929 226 q 685 30 785 74 q 467 -14 586 -14 m 493 56 q 622 95 564 56 q 721 203 679 135 q 785 363 763 272 q 807 553 807 453 q 751 776 807 690 q 585 861 696 861 q 459 822 517 861 q 359 715 401 783 q 293 556 317 646 q 269 365 269 467 q 296 205 269 275 q 372 95 322 135 q 493 56 422 56 m 629 986 q 492 1037 531 986 q 446 1197 453 1088 l 472 1197 q 532 1108 490 1129 q 642 1086 574 1086 q 760 1106 708 1086 q 850 1197 811 1126 l 876 1197 q 779 1038 839 1089 q 629 986 719 986 z "},"Ő":{"ha":1075,"x_min":67,"x_max":1008,"o":"m 467 -14 q 251 36 340 -14 q 114 176 161 86 q 67 382 67 265 q 108 593 67 494 q 222 768 149 692 q 394 888 296 844 q 607 931 492 931 q 823 881 733 931 q 960 741 913 831 q 1008 535 1008 651 q 969 325 1008 424 q 857 150 929 226 q 685 30 785 74 q 467 -14 586 -14 m 493 56 q 622 95 564 56 q 721 203 679 135 q 785 363 763 272 q 807 553 807 453 q 751 776 807 690 q 585 861 696 861 q 459 822 517 861 q 359 715 401 783 q 293 556 317 646 q 269 365 269 467 q 296 205 269 275 q 372 95 322 135 q 493 56 422 56 m 519 986 l 621 1197 l 739 1197 q 738 1151 743 1175 q 708 1110 732 1128 l 546 986 l 519 986 m 707 986 l 836 1197 l 953 1197 q 952 1151 957 1175 q 922 1110 947 1126 l 733 986 l 707 986 z "},"Ọ":{"ha":1075,"x_min":67,"x_max":1008,"o":"m 467 -14 q 251 36 340 -14 q 114 176 161 86 q 67 382 67 265 q 108 593 67 494 q 222 768 149 692 q 394 888 296 844 q 607 931 492 931 q 823 881 733 931 q 960 741 913 831 q 1008 535 1008 651 q 969 325 1008 424 q 857 150 929 226 q 685 30 785 74 q 467 -14 586 -14 m 493 56 q 622 95 564 56 q 721 203 679 135 q 785 363 763 272 q 807 553 807 453 q 751 776 807 690 q 585 861 696 861 q 459 822 517 861 q 359 715 401 783 q 293 556 317 646 q 269 365 269 467 q 296 205 269 275 q 372 95 322 135 q 493 56 422 56 z "},"Ǫ":{"ha":1075,"x_min":67,"x_max":1008,"o":"m 432 -333 q 343 -303 375 -333 q 311 -222 311 -274 q 346 -115 311 -167 q 432 -12 381 -62 q 235 46 317 -6 q 110 184 153 97 q 67 382 67 271 q 108 593 67 494 q 222 768 149 692 q 394 888 296 844 q 607 931 492 931 q 823 881 733 931 q 960 741 913 831 q 1008 535 1008 651 q 970 328 1008 426 q 862 155 932 231 q 696 34 792 79 q 483 -14 600 -11 q 440 -101 456 -57 q 424 -186 424 -144 q 499 -261 424 -261 q 531 -256 514 -261 q 561 -239 547 -250 l 567 -239 l 560 -265 q 507 -315 539 -297 q 432 -333 475 -333 m 493 56 q 622 95 564 56 q 721 203 679 135 q 785 363 763 272 q 807 553 807 453 q 751 776 807 690 q 585 861 696 861 q 459 822 517 861 q 359 715 401 783 q 293 556 317 646 q 269 365 269 467 q 296 205 269 275 q 372 95 322 135 q 493 56 422 56 z "},"Ȍ":{"ha":1075,"x_min":67,"x_max":1008,"o":"m 467 -14 q 251 36 340 -14 q 114 176 161 86 q 67 382 67 265 q 108 593 67 494 q 222 768 149 692 q 394 888 296 844 q 607 931 492 931 q 823 881 733 931 q 960 741 913 831 q 1008 535 1008 651 q 969 325 1008 424 q 857 150 929 226 q 685 30 785 74 q 467 -14 586 -14 m 493 56 q 622 95 564 56 q 721 203 679 135 q 785 363 763 272 q 807 553 807 453 q 751 776 807 690 q 585 861 696 861 q 459 822 517 861 q 359 715 401 783 q 293 556 317 646 q 269 365 269 467 q 296 205 269 275 q 372 95 322 135 q 493 56 422 56 m 704 986 l 549 1114 q 522 1154 526 1133 q 521 1197 517 1175 l 638 1197 l 731 986 l 704 986 m 521 986 l 338 1114 q 308 1153 313 1131 q 308 1197 304 1175 l 425 1197 l 547 986 l 521 986 z "},"Ȏ":{"ha":1075,"x_min":67,"x_max":1008,"o":"m 467 -14 q 251 36 340 -14 q 114 176 161 86 q 67 382 67 265 q 108 593 67 494 q 222 768 149 692 q 394 888 296 844 q 607 931 492 931 q 823 881 733 931 q 960 741 913 831 q 1008 535 1008 651 q 969 325 1008 424 q 857 150 929 226 q 685 30 785 74 q 467 -14 586 -14 m 493 56 q 622 95 564 56 q 721 203 679 135 q 785 363 763 272 q 807 553 807 453 q 751 776 807 690 q 585 861 696 861 q 459 822 517 861 q 359 715 401 783 q 293 556 317 646 q 269 365 269 467 q 296 205 269 275 q 372 95 322 135 q 493 56 422 56 m 415 986 q 513 1146 453 1094 q 663 1197 572 1197 q 800 1147 761 1197 q 846 986 839 1096 l 819 986 q 760 1076 801 1054 q 650 1097 718 1097 q 532 1077 583 1097 q 442 986 481 1057 l 415 986 z "},"Ȫ":{"ha":1075,"x_min":67,"x_max":1008,"o":"m 467 -14 q 251 36 340 -14 q 114 176 161 86 q 67 382 67 265 q 108 593 67 494 q 222 768 149 692 q 394 888 296 844 q 607 931 492 931 q 823 881 733 931 q 960 741 913 831 q 1008 535 1008 651 q 969 325 1008 424 q 857 150 929 226 q 685 30 785 74 q 467 -14 586 -14 m 493 56 q 622 95 564 56 q 721 203 679 135 q 785 363 763 272 q 807 553 807 453 q 751 776 807 690 q 585 861 696 861 q 459 822 517 861 q 359 715 401 783 q 293 556 317 646 q 269 365 269 467 q 296 205 269 275 q 372 95 322 135 q 493 56 422 56 z "},"Ȭ":{"ha":1075,"x_min":67,"x_max":1008,"o":"m 467 -14 q 251 36 340 -14 q 114 176 161 86 q 67 382 67 265 q 108 593 67 494 q 222 768 149 692 q 394 888 296 844 q 607 931 492 931 q 823 881 733 931 q 960 741 913 831 q 1008 535 1008 651 q 969 325 1008 424 q 857 150 929 226 q 685 30 785 74 q 467 -14 586 -14 m 493 56 q 622 95 564 56 q 721 203 679 135 q 785 363 763 272 q 807 553 807 453 q 751 776 807 690 q 585 861 696 861 q 459 822 517 861 q 359 715 401 783 q 293 556 317 646 q 269 365 269 467 q 296 205 269 275 q 372 95 322 135 q 493 56 422 56 z "},"Ȱ":{"ha":1075,"x_min":67,"x_max":1008,"o":"m 467 -14 q 251 36 340 -14 q 114 176 161 86 q 67 382 67 265 q 108 593 67 494 q 222 768 149 692 q 394 888 296 844 q 607 931 492 931 q 823 881 733 931 q 960 741 913 831 q 1008 535 1008 651 q 969 325 1008 424 q 857 150 929 226 q 685 30 785 74 q 467 -14 586 -14 m 493 56 q 622 95 564 56 q 721 203 679 135 q 785 363 763 272 q 807 553 807 453 q 751 776 807 690 q 585 861 696 861 q 459 822 517 861 q 359 715 401 783 q 293 556 317 646 q 269 365 269 467 q 296 205 269 275 q 372 95 322 135 q 493 56 422 56 z "},"Ố":{"ha":1075,"x_min":67,"x_max":1032,"o":"m 467 -14 q 251 36 340 -14 q 114 176 161 86 q 67 382 67 265 q 108 593 67 494 q 222 768 149 692 q 394 888 296 844 q 607 931 492 931 q 823 881 733 931 q 960 741 913 831 q 1008 535 1008 651 q 969 325 1008 424 q 857 150 929 226 q 685 30 785 74 q 467 -14 586 -14 m 493 56 q 622 95 564 56 q 721 203 679 135 q 785 363 763 272 q 807 553 807 453 q 751 776 807 690 q 585 861 696 861 q 459 822 517 861 q 359 715 401 783 q 293 556 317 646 q 269 365 269 467 q 296 205 269 275 q 372 95 322 135 q 493 56 422 56 m 803 1118 l 893 1317 l 1032 1317 q 1017 1274 1028 1296 q 974 1229 1006 1253 l 828 1118 l 803 1118 m 417 986 l 635 1197 l 696 1197 l 833 986 l 807 986 l 647 1082 l 443 986 l 417 986 z "},"Ộ":{"ha":1075,"x_min":67,"x_max":1008,"o":"m 467 -14 q 251 36 340 -14 q 114 176 161 86 q 67 382 67 265 q 108 593 67 494 q 222 768 149 692 q 394 888 296 844 q 607 931 492 931 q 823 881 733 931 q 960 741 913 831 q 1008 535 1008 651 q 969 325 1008 424 q 857 150 929 226 q 685 30 785 74 q 467 -14 586 -14 m 493 56 q 622 95 564 56 q 721 203 679 135 q 785 363 763 272 q 807 553 807 453 q 751 776 807 690 q 585 861 696 861 q 459 822 517 861 q 359 715 401 783 q 293 556 317 646 q 269 365 269 467 q 296 205 269 275 q 372 95 322 135 q 493 56 422 56 m 417 986 l 635 1197 l 696 1197 l 833 986 l 807 986 l 647 1082 l 443 986 l 417 986 z "},"Ồ":{"ha":1075,"x_min":67,"x_max":1008,"o":"m 467 -14 q 251 36 340 -14 q 114 176 161 86 q 67 382 67 265 q 108 593 67 494 q 222 768 149 692 q 394 888 296 844 q 607 931 492 931 q 823 881 733 931 q 960 741 913 831 q 1008 535 1008 651 q 969 325 1008 424 q 857 150 929 226 q 685 30 785 74 q 467 -14 586 -14 m 493 56 q 622 95 564 56 q 721 203 679 135 q 785 363 763 272 q 807 553 807 453 q 751 776 807 690 q 585 861 696 861 q 459 822 517 861 q 359 715 401 783 q 293 556 317 646 q 269 365 269 467 q 296 205 269 275 q 372 95 322 135 q 493 56 422 56 m 465 1118 l 318 1229 q 280 1269 289 1251 q 274 1317 271 1288 l 404 1317 l 492 1118 l 465 1118 m 417 986 l 635 1197 l 696 1197 l 833 986 l 807 986 l 647 1082 l 443 986 l 417 986 z "},"Ổ":{"ha":1075,"x_min":67,"x_max":1008,"o":"m 467 -14 q 251 36 340 -14 q 114 176 161 86 q 67 382 67 265 q 108 593 67 494 q 222 768 149 692 q 394 888 296 844 q 607 931 492 931 q 823 881 733 931 q 960 741 913 831 q 1008 535 1008 651 q 969 325 1008 424 q 857 150 929 226 q 685 30 785 74 q 467 -14 586 -14 m 493 56 q 622 95 564 56 q 721 203 679 135 q 785 363 763 272 q 807 553 807 453 q 751 776 807 690 q 585 861 696 861 q 459 822 517 861 q 359 715 401 783 q 293 556 317 646 q 269 365 269 467 q 296 205 269 275 q 372 95 322 135 q 493 56 422 56 z "},"Ỗ":{"ha":1075,"x_min":67,"x_max":1008,"o":"m 467 -14 q 251 36 340 -14 q 114 176 161 86 q 67 382 67 265 q 108 593 67 494 q 222 768 149 692 q 394 888 296 844 q 607 931 492 931 q 823 881 733 931 q 960 741 913 831 q 1008 535 1008 651 q 969 325 1008 424 q 857 150 929 226 q 685 30 785 74 q 467 -14 586 -14 m 493 56 q 622 95 564 56 q 721 203 679 135 q 785 363 763 272 q 807 553 807 453 q 751 776 807 690 q 585 861 696 861 q 459 822 517 861 q 359 715 401 783 q 293 556 317 646 q 269 365 269 467 q 296 205 269 275 q 372 95 322 135 q 493 56 422 56 z "},"Ỏ":{"ha":1075,"x_min":67,"x_max":1008,"o":"m 467 -14 q 251 36 340 -14 q 114 176 161 86 q 67 382 67 265 q 108 593 67 494 q 222 768 149 692 q 394 888 296 844 q 607 931 492 931 q 823 881 733 931 q 960 741 913 831 q 1008 535 1008 651 q 969 325 1008 424 q 857 150 929 226 q 685 30 785 74 q 467 -14 586 -14 m 493 56 q 622 95 564 56 q 721 203 679 135 q 785 363 763 272 q 807 553 807 453 q 751 776 807 690 q 585 861 696 861 q 459 822 517 861 q 359 715 401 783 q 293 556 317 646 q 269 365 269 467 q 296 205 269 275 q 372 95 322 135 q 493 56 422 56 m 578 972 l 568 985 l 568 986 q 640 1017 618 1000 q 663 1064 663 1035 q 644 1101 663 1085 q 581 1126 625 1117 l 613 1213 q 713 1172 683 1204 q 743 1104 743 1140 q 700 1017 743 1049 q 578 972 657 986 z "},"Ṍ":{"ha":1075,"x_min":67,"x_max":1008,"o":"m 467 -14 q 251 36 340 -14 q 114 176 161 86 q 67 382 67 265 q 108 593 67 494 q 222 768 149 692 q 394 888 296 844 q 607 931 492 931 q 823 881 733 931 q 960 741 913 831 q 1008 535 1008 651 q 969 325 1008 424 q 857 150 929 226 q 685 30 785 74 q 467 -14 586 -14 m 493 56 q 622 95 564 56 q 721 203 679 135 q 785 363 763 272 q 807 553 807 453 q 751 776 807 690 q 585 861 696 861 q 459 822 517 861 q 359 715 401 783 q 293 556 317 646 q 269 365 269 467 q 296 205 269 275 q 372 95 322 135 q 493 56 422 56 z "},"Ṏ":{"ha":1075,"x_min":67,"x_max":1008,"o":"m 467 -14 q 251 36 340 -14 q 114 176 161 86 q 67 382 67 265 q 108 593 67 494 q 222 768 149 692 q 394 888 296 844 q 607 931 492 931 q 823 881 733 931 q 960 741 913 831 q 1008 535 1008 651 q 969 325 1008 424 q 857 150 929 226 q 685 30 785 74 q 467 -14 586 -14 m 493 56 q 622 95 564 56 q 721 203 679 135 q 785 363 763 272 q 807 553 807 453 q 751 776 807 690 q 585 861 696 861 q 459 822 517 861 q 359 715 401 783 q 293 556 317 646 q 269 365 269 467 q 296 205 269 275 q 372 95 322 135 q 493 56 422 56 z "},"Ṑ":{"ha":1075,"x_min":67,"x_max":1008,"o":"m 467 -14 q 251 36 340 -14 q 114 176 161 86 q 67 382 67 265 q 108 593 67 494 q 222 768 149 692 q 394 888 296 844 q 607 931 492 931 q 823 881 733 931 q 960 741 913 831 q 1008 535 1008 651 q 969 325 1008 424 q 857 150 929 226 q 685 30 785 74 q 467 -14 586 -14 m 493 56 q 622 95 564 56 q 721 203 679 135 q 785 363 763 272 q 807 553 807 453 q 751 776 807 690 q 585 861 696 861 q 459 822 517 861 q 359 715 401 783 q 293 556 317 646 q 269 365 269 467 q 296 205 269 275 q 372 95 322 135 q 493 56 422 56 z "},"Ṓ":{"ha":1075,"x_min":67,"x_max":1008,"o":"m 467 -14 q 251 36 340 -14 q 114 176 161 86 q 67 382 67 265 q 108 593 67 494 q 222 768 149 692 q 394 888 296 844 q 607 931 492 931 q 823 881 733 931 q 960 741 913 831 q 1008 535 1008 651 q 969 325 1008 424 q 857 150 929 226 q 685 30 785 74 q 467 -14 586 -14 m 493 56 q 622 95 564 56 q 721 203 679 135 q 785 363 763 272 q 807 553 807 453 q 751 776 807 690 q 585 861 696 861 q 459 822 517 861 q 359 715 401 783 q 293 556 317 646 q 269 365 269 467 q 296 205 269 275 q 372 95 322 135 q 493 56 422 56 z "},"Ø":{"ha":1075,"x_min":-8,"x_max":1083,"o":"m -8 -14 l 143 131 q 67 382 67 232 q 108 593 67 494 q 222 768 149 692 q 394 888 296 844 q 607 931 493 931 q 765 906 694 931 q 886 836 835 881 l 985 931 l 1083 931 l 932 786 q 1008 535 1008 685 q 969 325 1008 424 q 857 150 929 226 q 685 30 785 74 q 467 -14 586 -14 q 310 10 379 -14 q 189 81 240 35 l 90 -14 l -8 -14 m 269 365 q 279 260 269 308 l 775 732 q 702 826 750 792 q 585 861 654 861 q 459 822 517 861 q 359 715 401 783 q 293 556 317 646 q 269 365 269 467 m 493 56 q 622 95 564 56 q 721 203 679 135 q 785 363 763 272 q 807 553 807 453 q 797 658 807 610 l 303 188 q 378 91 331 126 q 493 56 426 56 z "},"Ǿ":{"ha":1075,"x_min":-8,"x_max":1083,"o":"m -8 -14 l 143 131 q 67 382 67 232 q 108 593 67 494 q 222 768 149 692 q 394 888 296 844 q 607 931 493 931 q 765 906 694 931 q 886 836 835 881 l 985 931 l 1083 931 l 932 786 q 1008 535 1008 685 q 969 325 1008 424 q 857 150 929 226 q 685 30 785 74 q 467 -14 586 -14 q 310 10 379 -14 q 189 81 240 35 l 90 -14 l -8 -14 m 269 365 q 279 260 269 308 l 775 732 q 702 826 750 792 q 585 861 654 861 q 459 822 517 861 q 359 715 401 783 q 293 556 317 646 q 269 365 269 467 m 493 56 q 622 95 564 56 q 721 203 679 135 q 785 363 763 272 q 807 553 807 453 q 797 658 807 610 l 303 188 q 378 91 331 126 q 493 56 426 56 m 617 986 l 751 1197 l 900 1197 q 885 1154 896 1176 q 840 1110 875 1132 l 643 986 l 617 986 z "},"Ơ":{"ha":1075,"x_min":67,"x_max":1067,"o":"m 467 -14 q 251 36 340 -14 q 114 176 161 86 q 67 382 67 265 q 108 593 67 494 q 222 768 149 692 q 394 888 296 844 q 607 931 492 931 q 796 893 713 931 q 831 890 813 890 q 908 912 883 890 q 939 971 933 933 l 949 1038 l 958 1046 l 1033 1046 q 1059 1041 1051 1046 q 1067 1021 1067 1036 q 1015 903 1067 954 q 868 853 963 853 q 865 853 867 853 q 972 719 935 800 q 1008 535 1008 638 q 969 325 1008 424 q 857 150 929 226 q 685 30 785 74 q 467 -14 586 -14 m 493 56 q 622 95 564 56 q 721 203 679 135 q 785 363 763 272 q 807 553 807 453 q 751 776 807 690 q 585 861 696 861 q 459 822 517 861 q 359 715 401 783 q 293 556 317 646 q 269 365 269 467 q 296 205 269 275 q 372 95 322 135 q 493 56 422 56 z "},"Ớ":{"ha":1075,"x_min":67,"x_max":1067,"o":"m 467 -14 q 251 36 340 -14 q 114 176 161 86 q 67 382 67 265 q 108 593 67 494 q 222 768 149 692 q 394 888 296 844 q 607 931 492 931 q 796 893 713 931 q 831 890 813 890 q 908 912 883 890 q 939 971 933 933 l 949 1038 l 958 1046 l 1033 1046 q 1059 1041 1051 1046 q 1067 1021 1067 1036 q 1015 903 1067 954 q 868 853 963 853 q 865 853 867 853 q 972 719 935 800 q 1008 535 1008 638 q 969 325 1008 424 q 857 150 929 226 q 685 30 785 74 q 467 -14 586 -14 m 493 56 q 622 95 564 56 q 721 203 679 135 q 785 363 763 272 q 807 553 807 453 q 751 776 807 690 q 585 861 696 861 q 459 822 517 861 q 359 715 401 783 q 293 556 317 646 q 269 365 269 467 q 296 205 269 275 q 372 95 322 135 q 493 56 422 56 m 617 986 l 751 1197 l 900 1197 q 885 1154 896 1176 q 840 1110 875 1132 l 643 986 l 617 986 z "},"Ợ":{"ha":1075,"x_min":67,"x_max":1067,"o":"m 467 -14 q 251 36 340 -14 q 114 176 161 86 q 67 382 67 265 q 108 593 67 494 q 222 768 149 692 q 394 888 296 844 q 607 931 492 931 q 796 893 713 931 q 831 890 813 890 q 908 912 883 890 q 939 971 933 933 l 949 1038 l 958 1046 l 1033 1046 q 1059 1041 1051 1046 q 1067 1021 1067 1036 q 1015 903 1067 954 q 868 853 963 853 q 865 853 867 853 q 972 719 935 800 q 1008 535 1008 638 q 969 325 1008 424 q 857 150 929 226 q 685 30 785 74 q 467 -14 586 -14 m 493 56 q 622 95 564 56 q 721 203 679 135 q 785 363 763 272 q 807 553 807 453 q 751 776 807 690 q 585 861 696 861 q 459 822 517 861 q 359 715 401 783 q 293 556 317 646 q 269 365 269 467 q 296 205 269 275 q 372 95 322 135 q 493 56 422 56 z "},"Ờ":{"ha":1075,"x_min":67,"x_max":1067,"o":"m 467 -14 q 251 36 340 -14 q 114 176 161 86 q 67 382 67 265 q 108 593 67 494 q 222 768 149 692 q 394 888 296 844 q 607 931 492 931 q 796 893 713 931 q 831 890 813 890 q 908 912 883 890 q 939 971 933 933 l 949 1038 l 958 1046 l 1033 1046 q 1059 1041 1051 1046 q 1067 1021 1067 1036 q 1015 903 1067 954 q 868 853 963 853 q 865 853 867 853 q 972 719 935 800 q 1008 535 1008 638 q 969 325 1008 424 q 857 150 929 226 q 685 30 785 74 q 467 -14 586 -14 m 493 56 q 622 95 564 56 q 721 203 679 135 q 785 363 763 272 q 807 553 807 453 q 751 776 807 690 q 585 861 696 861 q 459 822 517 861 q 359 715 401 783 q 293 556 317 646 q 269 365 269 467 q 296 205 269 275 q 372 95 322 135 q 493 56 422 56 m 614 986 l 415 1110 q 386 1149 389 1126 q 386 1197 383 1171 l 521 1197 l 642 986 l 614 986 z "},"Ở":{"ha":1075,"x_min":67,"x_max":1067,"o":"m 467 -14 q 251 36 340 -14 q 114 176 161 86 q 67 382 67 265 q 108 593 67 494 q 222 768 149 692 q 394 888 296 844 q 607 931 492 931 q 796 893 713 931 q 831 890 813 890 q 908 912 883 890 q 939 971 933 933 l 949 1038 l 958 1046 l 1033 1046 q 1059 1041 1051 1046 q 1067 1021 1067 1036 q 1015 903 1067 954 q 868 853 963 853 q 865 853 867 853 q 972 719 935 800 q 1008 535 1008 638 q 969 325 1008 424 q 857 150 929 226 q 685 30 785 74 q 467 -14 586 -14 m 493 56 q 622 95 564 56 q 721 203 679 135 q 785 363 763 272 q 807 553 807 453 q 751 776 807 690 q 585 861 696 861 q 459 822 517 861 q 359 715 401 783 q 293 556 317 646 q 269 365 269 467 q 296 205 269 275 q 372 95 322 135 q 493 56 422 56 m 578 972 l 568 985 l 568 986 q 640 1017 618 1000 q 663 1064 663 1035 q 644 1101 663 1085 q 581 1126 625 1117 l 613 1213 q 713 1172 683 1204 q 743 1104 743 1140 q 700 1017 743 1049 q 578 972 657 986 z "},"Ỡ":{"ha":1075,"x_min":67,"x_max":1067,"o":"m 467 -14 q 251 36 340 -14 q 114 176 161 86 q 67 382 67 265 q 108 593 67 494 q 222 768 149 692 q 394 888 296 844 q 607 931 492 931 q 796 893 713 931 q 831 890 813 890 q 908 912 883 890 q 939 971 933 933 l 949 1038 l 958 1046 l 1033 1046 q 1059 1041 1051 1046 q 1067 1021 1067 1036 q 1015 903 1067 954 q 868 853 963 853 q 865 853 867 853 q 972 719 935 800 q 1008 535 1008 638 q 969 325 1008 424 q 857 150 929 226 q 685 30 785 74 q 467 -14 586 -14 m 493 56 q 622 95 564 56 q 721 203 679 135 q 785 363 763 272 q 807 553 807 453 q 751 776 807 690 q 585 861 696 861 q 459 822 517 861 q 359 715 401 783 q 293 556 317 646 q 269 365 269 467 q 296 205 269 275 q 372 95 322 135 q 493 56 422 56 m 415 1003 q 476 1117 450 1081 q 526 1166 503 1154 q 578 1178 550 1178 q 646 1158 617 1178 q 701 1118 675 1138 q 757 1099 728 1099 q 800 1112 781 1099 q 849 1178 819 1125 l 879 1178 q 818 1063 844 1100 q 768 1014 792 1025 q 715 1003 744 1003 q 649 1022 678 1003 q 593 1061 619 1042 q 538 1081 567 1081 q 494 1068 514 1081 q 446 1003 474 1056 l 415 1003 z "},"Œ":{"ha":1369,"x_min":67,"x_max":1338,"o":"m 533 0 q 274 49 378 0 q 118 188 169 99 q 67 396 67 276 q 138 663 67 546 q 338 849 208 781 q 642 917 467 917 l 1338 917 l 1294 676 l 1274 676 l 1208 843 l 933 843 l 874 510 l 1063 510 l 1163 631 l 1185 631 l 1129 318 l 1107 318 l 1050 436 l 861 436 l 796 74 l 1111 74 l 1249 283 l 1271 283 l 1221 0 l 533 0 m 557 72 l 606 72 l 742 849 l 644 849 q 439 791 524 849 q 310 630 354 733 q 265 388 265 526 q 341 151 265 231 q 557 72 417 72 z "},"Ŕ":{"ha":951,"x_min":-19,"x_max":874,"o":"m -19 0 l -17 22 l 103 79 l 236 838 l 136 894 l 140 917 l 504 917 q 741 863 656 917 q 826 708 826 808 q 769 563 826 624 q 613 469 711 503 l 790 78 l 874 22 l 871 0 l 614 0 l 440 426 l 354 426 l 293 81 l 390 22 l 386 0 l -19 0 m 469 843 l 428 843 l 365 492 l 439 492 q 543 519 500 492 q 609 591 586 546 q 632 690 632 636 q 469 843 632 843 m 486 986 l 621 1197 l 769 1197 q 755 1154 765 1176 q 710 1110 744 1132 l 513 986 l 486 986 z "},"Ř":{"ha":951,"x_min":-19,"x_max":874,"o":"m -19 0 l -17 22 l 103 79 l 236 838 l 136 894 l 140 917 l 504 917 q 741 863 656 917 q 826 708 826 808 q 769 563 826 624 q 613 469 711 503 l 790 78 l 874 22 l 871 0 l 614 0 l 440 426 l 354 426 l 293 81 l 390 22 l 386 0 l -19 0 m 469 843 l 428 843 l 365 492 l 439 492 q 543 519 500 492 q 609 591 586 546 q 632 690 632 636 q 469 843 632 843 m 469 986 l 331 1197 l 357 1197 l 513 1101 l 721 1197 l 747 1197 l 529 986 l 469 986 z "},"Ŗ":{"ha":951,"x_min":-19,"x_max":874,"o":"m -19 0 l -17 22 l 103 79 l 236 838 l 136 894 l 140 917 l 504 917 q 741 863 656 917 q 826 708 826 808 q 769 563 826 624 q 613 469 711 503 l 790 78 l 874 22 l 871 0 l 614 0 l 440 426 l 354 426 l 293 81 l 390 22 l 386 0 l -19 0 m 469 843 l 428 843 l 365 492 l 439 492 q 543 519 500 492 q 609 591 586 546 q 632 690 632 636 q 469 843 632 843 m 311 -332 q 283 -331 299 -332 q 258 -326 268 -329 l 264 -306 q 283 -308 274 -307 q 301 -308 293 -308 q 386 -249 386 -308 q 360 -206 386 -218 q 283 -193 335 -193 l 294 -135 q 308 -114 296 -122 q 349 -106 319 -106 q 453 -133 418 -106 q 488 -210 488 -161 q 437 -301 488 -269 q 311 -332 386 -332 z "},"Ȑ":{"ha":951,"x_min":-19,"x_max":874,"o":"m -19 0 l -17 22 l 103 79 l 236 838 l 136 894 l 140 917 l 504 917 q 741 863 656 917 q 826 708 826 808 q 769 563 826 624 q 613 469 711 503 l 790 78 l 874 22 l 871 0 l 614 0 l 440 426 l 354 426 l 293 81 l 390 22 l 386 0 l -19 0 m 469 843 l 428 843 l 365 492 l 439 492 q 543 519 500 492 q 609 591 586 546 q 632 690 632 636 q 469 843 632 843 m 575 986 l 419 1114 q 392 1154 397 1133 q 392 1197 388 1175 l 508 1197 l 601 986 l 575 986 m 392 986 l 208 1114 q 179 1153 183 1131 q 179 1197 175 1175 l 296 1197 l 418 986 l 392 986 z "},"Ȓ":{"ha":951,"x_min":-19,"x_max":874,"o":"m -19 0 l -17 22 l 103 79 l 236 838 l 136 894 l 140 917 l 504 917 q 741 863 656 917 q 826 708 826 808 q 769 563 826 624 q 613 469 711 503 l 790 78 l 874 22 l 871 0 l 614 0 l 440 426 l 354 426 l 293 81 l 390 22 l 386 0 l -19 0 m 469 843 l 428 843 l 365 492 l 439 492 q 543 519 500 492 q 609 591 586 546 q 632 690 632 636 q 469 843 632 843 m 286 986 q 383 1146 324 1094 q 533 1197 443 1197 q 671 1147 632 1197 q 717 986 710 1096 l 690 986 q 631 1076 672 1054 q 521 1097 589 1097 q 403 1077 454 1097 q 313 986 351 1057 l 286 986 z "},"Ṛ":{"ha":951,"x_min":-19,"x_max":874,"o":"m -19 0 l -17 22 l 103 79 l 236 838 l 136 894 l 140 917 l 504 917 q 741 863 656 917 q 826 708 826 808 q 769 563 826 624 q 613 469 711 503 l 790 78 l 874 22 l 871 0 l 614 0 l 440 426 l 354 426 l 293 81 l 390 22 l 386 0 l -19 0 m 469 843 l 428 843 l 365 492 l 439 492 q 543 519 500 492 q 609 591 586 546 q 632 690 632 636 q 469 843 632 843 z "},"Ṟ":{"ha":951,"x_min":-19,"x_max":874,"o":"m -19 0 l -17 22 l 103 79 l 236 838 l 136 894 l 140 917 l 504 917 q 741 863 656 917 q 826 708 826 808 q 769 563 826 624 q 613 469 711 503 l 790 78 l 874 22 l 871 0 l 614 0 l 440 426 l 354 426 l 293 81 l 390 22 l 386 0 l -19 0 m 469 843 l 428 843 l 365 492 l 439 492 q 543 519 500 492 q 609 591 586 546 q 632 690 632 636 q 469 843 632 843 z "},"ẞ":{"ha":1492,"x_min":25,"x_max":1446,"o":"m 286 -14 q 141 5 201 -14 q 25 57 81 24 l 51 292 l 75 292 l 147 110 q 209 70 175 86 q 288 54 243 54 q 422 99 369 54 q 474 221 474 144 q 457 290 474 261 q 400 348 440 318 q 289 419 360 378 q 176 515 211 467 q 142 639 142 563 q 188 786 142 719 q 311 892 233 853 q 482 931 389 931 q 603 914 547 931 q 704 867 658 897 l 681 644 l 657 644 l 586 813 q 538 847 564 832 q 468 861 511 861 q 360 817 404 861 q 315 708 315 774 q 344 623 315 660 q 456 536 374 586 q 565 463 522 497 q 628 388 608 428 q 649 290 649 347 q 601 137 649 206 q 471 27 553 68 q 286 -14 389 -14 m 1028 -14 q 883 5 943 -14 q 767 57 822 24 l 793 292 l 817 292 l 889 110 q 951 70 917 86 q 1029 54 985 54 q 1163 99 1111 54 q 1215 221 1215 144 q 1199 290 1215 261 q 1142 348 1182 318 q 1031 419 1101 378 q 918 515 953 467 q 883 639 883 563 q 929 786 883 719 q 1053 892 975 853 q 1224 931 1131 931 q 1344 914 1289 931 q 1446 867 1400 897 l 1422 644 l 1399 644 l 1328 813 q 1279 847 1306 832 q 1210 861 1253 861 q 1101 817 1146 861 q 1057 708 1057 774 q 1086 623 1057 660 q 1197 536 1115 586 q 1307 463 1264 497 q 1370 388 1350 428 q 1390 290 1390 347 q 1342 137 1390 206 q 1213 27 1294 68 q 1028 -14 1131 -14 z "},"Ś":{"ha":750,"x_min":25,"x_max":764,"o":"m 286 -14 q 141 5 201 -14 q 25 57 81 24 l 51 292 l 75 292 l 147 110 q 209 70 175 86 q 288 54 243 54 q 422 99 369 54 q 474 221 474 144 q 457 290 474 261 q 400 348 440 318 q 289 419 360 378 q 176 515 211 467 q 142 639 142 563 q 188 786 142 719 q 311 892 233 853 q 482 931 389 931 q 603 914 547 931 q 704 867 658 897 l 681 644 l 657 644 l 586 813 q 538 847 564 832 q 468 861 511 861 q 360 817 404 861 q 315 708 315 774 q 344 623 315 660 q 456 536 374 586 q 565 463 522 497 q 628 388 608 428 q 649 290 649 347 q 601 137 649 206 q 471 27 553 68 q 286 -14 389 -14 m 481 986 l 615 1197 l 764 1197 q 749 1154 760 1176 q 704 1110 739 1132 l 507 986 l 481 986 z "},"Ŝ":{"ha":750,"x_min":25,"x_max":704,"o":"m 286 -14 q 141 5 201 -14 q 25 57 81 24 l 51 292 l 75 292 l 147 110 q 209 70 175 86 q 288 54 243 54 q 422 99 369 54 q 474 221 474 144 q 457 290 474 261 q 400 348 440 318 q 289 419 360 378 q 176 515 211 467 q 142 639 142 563 q 188 786 142 719 q 311 892 233 853 q 482 931 389 931 q 603 914 547 931 q 704 867 658 897 l 681 644 l 657 644 l 586 813 q 538 847 564 832 q 468 861 511 861 q 360 817 404 861 q 315 708 315 774 q 344 623 315 660 q 456 536 374 586 q 565 463 522 497 q 628 388 608 428 q 649 290 649 347 q 601 137 649 206 q 471 27 553 68 q 286 -14 389 -14 m 281 986 l 499 1197 l 560 1197 l 697 986 l 671 986 l 511 1082 l 307 986 l 281 986 z "},"Š":{"ha":750,"x_min":25,"x_max":740,"o":"m 286 -14 q 141 5 201 -14 q 25 57 81 24 l 51 292 l 75 292 l 147 110 q 209 70 175 86 q 288 54 243 54 q 422 99 369 54 q 474 221 474 144 q 457 290 474 261 q 400 348 440 318 q 289 419 360 378 q 176 515 211 467 q 142 639 142 563 q 188 786 142 719 q 311 892 233 853 q 482 931 389 931 q 603 914 547 931 q 704 867 658 897 l 681 644 l 657 644 l 586 813 q 538 847 564 832 q 468 861 511 861 q 360 817 404 861 q 315 708 315 774 q 344 623 315 660 q 456 536 374 586 q 565 463 522 497 q 628 388 608 428 q 649 290 649 347 q 601 137 649 206 q 471 27 553 68 q 286 -14 389 -14 m 463 986 l 324 1197 l 350 1197 l 506 1101 l 714 1197 l 740 1197 l 522 986 l 463 986 z "},"Ş":{"ha":750,"x_min":25,"x_max":704,"o":"m 247 -333 q 143 -301 179 -333 l 147 -276 l 153 -276 q 228 -292 183 -292 q 288 -276 267 -292 q 310 -231 310 -260 q 283 -181 310 -203 q 189 -142 257 -158 l 267 -14 q 133 7 190 -11 q 25 57 76 25 l 51 292 l 75 292 l 147 110 q 205 72 171 89 q 288 54 239 54 q 423 101 372 54 q 474 221 474 149 q 455 293 474 264 q 395 350 436 322 q 289 417 354 378 q 178 511 214 464 q 142 639 142 558 q 190 790 142 724 q 317 893 239 856 q 482 931 394 931 q 603 914 547 931 q 704 867 658 897 l 681 644 l 657 644 l 586 813 q 538 847 564 832 q 468 861 511 861 q 360 817 404 861 q 315 708 315 774 q 347 621 315 657 q 456 539 379 585 q 563 466 519 500 q 627 391 606 432 q 649 290 649 350 q 603 138 649 204 q 481 32 557 72 q 313 -12 404 -8 l 282 -67 q 377 -119 349 -86 q 406 -197 406 -151 q 363 -294 406 -256 q 247 -333 319 -333 z "},"Ș":{"ha":750,"x_min":25,"x_max":704,"o":"m 286 -14 q 141 5 201 -14 q 25 57 81 24 l 51 292 l 75 292 l 147 110 q 209 70 175 86 q 288 54 243 54 q 422 99 369 54 q 474 221 474 144 q 457 290 474 261 q 400 348 440 318 q 289 419 360 378 q 176 515 211 467 q 142 639 142 563 q 188 786 142 719 q 311 892 233 853 q 482 931 389 931 q 603 914 547 931 q 704 867 658 897 l 681 644 l 657 644 l 586 813 q 538 847 564 832 q 468 861 511 861 q 360 817 404 861 q 315 708 315 774 q 344 623 315 660 q 456 536 374 586 q 565 463 522 497 q 628 388 608 428 q 649 290 649 347 q 601 137 649 206 q 471 27 553 68 q 286 -14 389 -14 z "},"Ṡ":{"ha":750,"x_min":25,"x_max":704,"o":"m 286 -14 q 141 5 201 -14 q 25 57 81 24 l 51 292 l 75 292 l 147 110 q 209 70 175 86 q 288 54 243 54 q 422 99 369 54 q 474 221 474 144 q 457 290 474 261 q 400 348 440 318 q 289 419 360 378 q 176 515 211 467 q 142 639 142 563 q 188 786 142 719 q 311 892 233 853 q 482 931 389 931 q 603 914 547 931 q 704 867 658 897 l 681 644 l 657 644 l 586 813 q 538 847 564 832 q 468 861 511 861 q 360 817 404 861 q 315 708 315 774 q 344 623 315 660 q 456 536 374 586 q 565 463 522 497 q 628 388 608 428 q 649 290 649 347 q 601 137 649 206 q 471 27 553 68 q 286 -14 389 -14 m 511 996 q 443 1023 471 996 q 415 1090 415 1050 q 443 1160 415 1132 q 511 1188 471 1188 q 580 1160 553 1188 q 607 1090 607 1132 q 580 1023 607 1050 q 511 996 553 996 z "},"Ṣ":{"ha":750,"x_min":25,"x_max":704,"o":"m 286 -14 q 141 5 201 -14 q 25 57 81 24 l 51 292 l 75 292 l 147 110 q 209 70 175 86 q 288 54 243 54 q 422 99 369 54 q 474 221 474 144 q 457 290 474 261 q 400 348 440 318 q 289 419 360 378 q 176 515 211 467 q 142 639 142 563 q 188 786 142 719 q 311 892 233 853 q 482 931 389 931 q 603 914 547 931 q 704 867 658 897 l 681 644 l 657 644 l 586 813 q 538 847 564 832 q 468 861 511 861 q 360 817 404 861 q 315 708 315 774 q 344 623 315 660 q 456 536 374 586 q 565 463 522 497 q 628 388 608 428 q 649 290 649 347 q 601 137 649 206 q 471 27 553 68 q 286 -14 389 -14 z "},"Ṥ":{"ha":750,"x_min":25,"x_max":764,"o":"m 286 -14 q 141 5 201 -14 q 25 57 81 24 l 51 292 l 75 292 l 147 110 q 209 70 175 86 q 288 54 243 54 q 422 99 369 54 q 474 221 474 144 q 457 290 474 261 q 400 348 440 318 q 289 419 360 378 q 176 515 211 467 q 142 639 142 563 q 188 786 142 719 q 311 892 233 853 q 482 931 389 931 q 603 914 547 931 q 704 867 658 897 l 681 644 l 657 644 l 586 813 q 538 847 564 832 q 468 861 511 861 q 360 817 404 861 q 315 708 315 774 q 344 623 315 660 q 456 536 374 586 q 565 463 522 497 q 628 388 608 428 q 649 290 649 347 q 601 137 649 206 q 471 27 553 68 q 286 -14 389 -14 z "},"Ṧ":{"ha":750,"x_min":25,"x_max":740,"o":"m 286 -14 q 141 5 201 -14 q 25 57 81 24 l 51 292 l 75 292 l 147 110 q 209 70 175 86 q 288 54 243 54 q 422 99 369 54 q 474 221 474 144 q 457 290 474 261 q 400 348 440 318 q 289 419 360 378 q 176 515 211 467 q 142 639 142 563 q 188 786 142 719 q 311 892 233 853 q 482 931 389 931 q 603 914 547 931 q 704 867 658 897 l 681 644 l 657 644 l 586 813 q 538 847 564 832 q 468 861 511 861 q 360 817 404 861 q 315 708 315 774 q 344 623 315 660 q 456 536 374 586 q 565 463 522 497 q 628 388 608 428 q 649 290 649 347 q 601 137 649 206 q 471 27 553 68 q 286 -14 389 -14 z "},"Ṩ":{"ha":750,"x_min":25,"x_max":704,"o":"m 286 -14 q 141 5 201 -14 q 25 57 81 24 l 51 292 l 75 292 l 147 110 q 209 70 175 86 q 288 54 243 54 q 422 99 369 54 q 474 221 474 144 q 457 290 474 261 q 400 348 440 318 q 289 419 360 378 q 176 515 211 467 q 142 639 142 563 q 188 786 142 719 q 311 892 233 853 q 482 931 389 931 q 603 914 547 931 q 704 867 658 897 l 681 644 l 657 644 l 586 813 q 538 847 564 832 q 468 861 511 861 q 360 817 404 861 q 315 708 315 774 q 344 623 315 660 q 456 536 374 586 q 565 463 522 497 q 628 388 608 428 q 649 290 649 347 q 601 137 649 206 q 471 27 553 68 q 286 -14 389 -14 m 511 996 q 443 1023 471 996 q 415 1090 415 1050 q 443 1160 415 1132 q 511 1188 471 1188 q 580 1160 553 1188 q 607 1090 607 1132 q 580 1023 607 1050 q 511 996 553 996 z "},"Ť":{"ha":889,"x_min":79,"x_max":933,"o":"m 139 0 l 144 22 l 288 79 l 424 843 l 242 843 l 101 611 l 79 611 l 131 917 l 933 917 l 881 611 l 858 611 l 797 843 l 615 843 l 479 79 l 606 22 l 601 0 l 139 0 m 511 986 l 372 1197 l 399 1197 l 554 1101 l 763 1197 l 789 1197 l 571 986 l 511 986 z "},"Ț":{"ha":889,"x_min":79,"x_max":933,"o":"m 139 0 l 144 22 l 288 79 l 424 843 l 242 843 l 101 611 l 79 611 l 131 917 l 933 917 l 881 611 l 858 611 l 797 843 l 615 843 l 479 79 l 606 22 l 601 0 l 139 0 z "},"Ŧ":{"ha":889,"x_min":79,"x_max":933,"o":"m 207 442 l 219 507 l 364 507 l 424 843 l 242 843 l 101 611 l 79 611 l 131 917 l 933 917 l 881 611 l 858 611 l 797 843 l 615 843 l 556 507 l 700 507 l 688 442 l 544 442 l 479 79 l 606 22 l 601 0 l 139 0 l 144 22 l 288 79 l 353 442 l 207 442 z "},"Ţ":{"ha":889,"x_min":79,"x_max":933,"o":"m 139 0 l 144 22 l 288 79 l 424 843 l 242 843 l 101 611 l 79 611 l 131 917 l 933 917 l 881 611 l 858 611 l 797 843 l 615 843 l 479 79 l 606 22 l 601 0 l 389 0 l 350 -67 q 445 -119 417 -86 q 474 -197 474 -151 q 431 -294 474 -256 q 315 -333 388 -333 q 211 -301 247 -333 l 215 -276 l 221 -276 q 296 -292 251 -292 q 356 -276 335 -292 q 378 -231 378 -260 q 351 -181 378 -203 q 257 -142 325 -158 l 343 0 l 139 0 z "},"Ṭ":{"ha":889,"x_min":79,"x_max":933,"o":"m 139 0 l 144 22 l 288 79 l 424 843 l 242 843 l 101 611 l 79 611 l 131 917 l 933 917 l 881 611 l 858 611 l 797 843 l 615 843 l 479 79 l 606 22 l 601 0 l 139 0 z "},"Ṯ":{"ha":889,"x_min":79,"x_max":933,"o":"m 139 0 l 144 22 l 288 79 l 424 843 l 242 843 l 101 611 l 79 611 l 131 917 l 933 917 l 881 611 l 858 611 l 797 843 l 615 843 l 479 79 l 606 22 l 601 0 l 139 0 z "},"Ù":{"ha":1057,"x_min":133,"x_max":1094,"o":"m 481 -14 q 305 15 381 -14 q 188 108 229 44 q 146 279 146 172 q 149 334 146 306 q 157 394 151 363 l 233 838 l 133 894 l 138 917 l 549 917 l 544 894 l 425 838 l 347 393 q 340 342 343 367 q 338 294 338 317 q 394 135 338 182 q 542 89 450 89 q 651 115 597 89 q 743 198 704 142 q 797 344 782 254 l 883 840 l 772 894 l 776 917 l 1094 917 l 1090 894 l 972 839 l 894 394 q 810 153 868 243 q 669 25 753 64 q 481 -14 586 -14 m 660 986 l 461 1110 q 432 1149 435 1126 q 432 1197 429 1171 l 567 1197 l 688 986 l 660 986 z "},"Ú":{"ha":1057,"x_min":133,"x_max":1094,"o":"m 481 -14 q 305 15 381 -14 q 188 108 229 44 q 146 279 146 172 q 149 334 146 306 q 157 394 151 363 l 233 838 l 133 894 l 138 917 l 549 917 l 544 894 l 425 838 l 347 393 q 340 342 343 367 q 338 294 338 317 q 394 135 338 182 q 542 89 450 89 q 651 115 597 89 q 743 198 704 142 q 797 344 782 254 l 883 840 l 772 894 l 776 917 l 1094 917 l 1090 894 l 972 839 l 894 394 q 810 153 868 243 q 669 25 753 64 q 481 -14 586 -14 m 661 986 l 796 1197 l 944 1197 q 930 1154 940 1176 q 885 1110 919 1132 l 688 986 l 661 986 z "},"Û":{"ha":1057,"x_min":133,"x_max":1094,"o":"m 481 -14 q 305 15 381 -14 q 188 108 229 44 q 146 279 146 172 q 149 334 146 306 q 157 394 151 363 l 233 838 l 133 894 l 138 917 l 549 917 l 544 894 l 425 838 l 347 393 q 340 342 343 367 q 338 294 338 317 q 394 135 338 182 q 542 89 450 89 q 651 115 597 89 q 743 198 704 142 q 797 344 782 254 l 883 840 l 772 894 l 776 917 l 1094 917 l 1090 894 l 972 839 l 894 394 q 810 153 868 243 q 669 25 753 64 q 481 -14 586 -14 m 463 986 l 681 1197 l 742 1197 l 879 986 l 853 986 l 693 1082 l 489 986 l 463 986 z "},"Ũ":{"ha":1057,"x_min":133,"x_max":1094,"o":"m 481 -14 q 305 15 381 -14 q 188 108 229 44 q 146 279 146 172 q 149 334 146 306 q 157 394 151 363 l 233 838 l 133 894 l 138 917 l 549 917 l 544 894 l 425 838 l 347 393 q 340 342 343 367 q 338 294 338 317 q 394 135 338 182 q 542 89 450 89 q 651 115 597 89 q 743 198 704 142 q 797 344 782 254 l 883 840 l 772 894 l 776 917 l 1094 917 l 1090 894 l 972 839 l 894 394 q 810 153 868 243 q 669 25 753 64 q 481 -14 586 -14 m 461 1003 q 522 1117 496 1081 q 572 1166 549 1154 q 624 1178 596 1178 q 692 1158 663 1178 q 747 1118 721 1138 q 803 1099 774 1099 q 846 1112 826 1099 q 894 1178 865 1125 l 925 1178 q 864 1063 890 1100 q 814 1014 838 1025 q 761 1003 790 1003 q 694 1022 724 1003 q 639 1061 665 1042 q 583 1081 613 1081 q 540 1068 560 1081 q 492 1003 519 1056 l 461 1003 z "},"Ü":{"ha":1057,"x_min":133,"x_max":1094,"o":"m 481 -14 q 305 15 381 -14 q 188 108 229 44 q 146 279 146 172 q 149 334 146 306 q 157 394 151 363 l 233 838 l 133 894 l 138 917 l 549 917 l 544 894 l 425 838 l 347 393 q 340 342 343 367 q 338 294 338 317 q 394 135 338 182 q 542 89 450 89 q 651 115 597 89 q 743 198 704 142 q 797 344 782 254 l 883 840 l 772 894 l 776 917 l 1094 917 l 1090 894 l 972 839 l 894 394 q 810 153 868 243 q 669 25 753 64 q 481 -14 586 -14 m 563 1018 q 510 1040 531 1018 q 489 1092 489 1061 q 510 1144 489 1122 q 563 1165 531 1165 q 615 1144 593 1165 q 636 1092 636 1122 q 615 1040 636 1061 q 563 1018 593 1018 m 824 1018 q 771 1040 792 1018 q 750 1092 750 1061 q 771 1144 750 1122 q 824 1165 792 1165 q 875 1144 854 1165 q 896 1092 896 1122 q 875 1040 896 1061 q 824 1018 854 1018 z "},"Ū":{"ha":1057,"x_min":133,"x_max":1094,"o":"m 481 -14 q 305 15 381 -14 q 188 108 229 44 q 146 279 146 172 q 149 334 146 306 q 157 394 151 363 l 233 838 l 133 894 l 138 917 l 549 917 l 544 894 l 425 838 l 347 393 q 340 342 343 367 q 338 294 338 317 q 394 135 338 182 q 542 89 450 89 q 651 115 597 89 q 743 198 704 142 q 797 344 782 254 l 883 840 l 772 894 l 776 917 l 1094 917 l 1090 894 l 972 839 l 894 394 q 810 153 868 243 q 669 25 753 64 q 481 -14 586 -14 m 488 1053 l 501 1132 l 899 1132 l 883 1053 l 488 1053 z "},"Ŭ":{"ha":1057,"x_min":133,"x_max":1094,"o":"m 481 -14 q 305 15 381 -14 q 188 108 229 44 q 146 279 146 172 q 149 334 146 306 q 157 394 151 363 l 233 838 l 133 894 l 138 917 l 549 917 l 544 894 l 425 838 l 347 393 q 340 342 343 367 q 338 294 338 317 q 394 135 338 182 q 542 89 450 89 q 651 115 597 89 q 743 198 704 142 q 797 344 782 254 l 883 840 l 772 894 l 776 917 l 1094 917 l 1090 894 l 972 839 l 894 394 q 810 153 868 243 q 669 25 753 64 q 481 -14 586 -14 m 675 986 q 538 1037 576 986 q 492 1197 499 1088 l 518 1197 q 578 1108 536 1129 q 688 1086 619 1086 q 806 1106 754 1086 q 896 1197 857 1126 l 922 1197 q 825 1038 885 1089 q 675 986 765 986 z "},"Ů":{"ha":1057,"x_min":133,"x_max":1094,"o":"m 481 -14 q 305 15 381 -14 q 188 108 229 44 q 146 279 146 172 q 149 334 146 306 q 157 394 151 363 l 233 838 l 133 894 l 138 917 l 549 917 l 544 894 l 425 838 l 347 393 q 340 342 343 367 q 338 294 338 317 q 394 135 338 182 q 542 89 450 89 q 651 115 597 89 q 743 198 704 142 q 797 344 782 254 l 883 840 l 772 894 l 776 917 l 1094 917 l 1090 894 l 972 839 l 894 394 q 810 153 868 243 q 669 25 753 64 q 481 -14 586 -14 m 678 986 q 603 1014 626 986 q 579 1086 579 1042 q 616 1182 579 1142 q 713 1222 653 1222 q 787 1194 763 1222 q 811 1121 811 1165 q 775 1026 811 1067 q 678 986 739 986 m 685 1018 q 729 1047 713 1018 q 746 1122 746 1076 q 707 1190 746 1190 q 663 1162 679 1190 q 646 1086 646 1133 q 685 1018 646 1018 z "},"Ű":{"ha":1057,"x_min":133,"x_max":1094,"o":"m 481 -14 q 305 15 381 -14 q 188 108 229 44 q 146 279 146 172 q 149 334 146 306 q 157 394 151 363 l 233 838 l 133 894 l 138 917 l 549 917 l 544 894 l 425 838 l 347 393 q 340 342 343 367 q 338 294 338 317 q 394 135 338 182 q 542 89 450 89 q 651 115 597 89 q 743 198 704 142 q 797 344 782 254 l 883 840 l 772 894 l 776 917 l 1094 917 l 1090 894 l 972 839 l 894 394 q 810 153 868 243 q 669 25 753 64 q 481 -14 586 -14 m 564 986 l 665 1197 l 783 1197 q 782 1151 788 1175 q 753 1110 776 1128 l 590 986 l 564 986 m 751 986 l 881 1197 l 997 1197 q 997 1151 1001 1175 q 967 1110 992 1126 l 778 986 l 751 986 z "},"Ų":{"ha":1057,"x_min":143,"x_max":1103,"o":"m 575 -265 q 522 -315 554 -297 q 447 -333 490 -333 q 359 -303 392 -333 q 326 -222 326 -274 q 361 -115 326 -167 q 449 -12 396 -62 q 234 63 314 -4 q 154 279 154 131 q 157 334 154 306 q 165 394 160 363 l 243 838 l 143 894 l 147 917 l 557 917 l 553 894 l 433 838 l 356 393 q 347 297 347 339 q 405 135 347 181 q 550 89 463 89 q 656 114 603 89 q 749 195 708 139 q 806 344 789 251 l 892 840 l 781 894 l 786 917 l 1103 917 l 1099 894 l 981 839 l 903 394 q 820 156 876 244 q 682 27 764 67 q 499 -14 600 -12 q 455 -101 471 -57 q 439 -186 439 -144 q 514 -261 439 -261 q 545 -256 528 -261 q 576 -239 563 -250 l 582 -239 l 575 -265 z "},"Ụ":{"ha":1057,"x_min":133,"x_max":1094,"o":"m 481 -14 q 305 15 381 -14 q 188 108 229 44 q 146 279 146 172 q 149 334 146 306 q 157 394 151 363 l 233 838 l 133 894 l 138 917 l 549 917 l 544 894 l 425 838 l 347 393 q 340 342 343 367 q 338 294 338 317 q 394 135 338 182 q 542 89 450 89 q 651 115 597 89 q 743 198 704 142 q 797 344 782 254 l 883 840 l 772 894 l 776 917 l 1094 917 l 1090 894 l 972 839 l 894 394 q 810 153 868 243 q 669 25 753 64 q 481 -14 586 -14 z "},"Ȕ":{"ha":1057,"x_min":133,"x_max":1094,"o":"m 481 -14 q 305 15 381 -14 q 188 108 229 44 q 146 279 146 172 q 149 334 146 306 q 157 394 151 363 l 233 838 l 133 894 l 138 917 l 549 917 l 544 894 l 425 838 l 347 393 q 340 342 343 367 q 338 294 338 317 q 394 135 338 182 q 542 89 450 89 q 651 115 597 89 q 743 198 704 142 q 797 344 782 254 l 883 840 l 772 894 l 776 917 l 1094 917 l 1090 894 l 972 839 l 894 394 q 810 153 868 243 q 669 25 753 64 q 481 -14 586 -14 m 749 986 l 593 1114 q 566 1154 571 1133 q 565 1197 561 1175 l 682 1197 l 775 986 l 749 986 m 565 986 l 382 1114 q 353 1153 357 1131 q 353 1197 349 1175 l 469 1197 l 592 986 l 565 986 z "},"Ȗ":{"ha":1057,"x_min":133,"x_max":1094,"o":"m 481 -14 q 305 15 381 -14 q 188 108 229 44 q 146 279 146 172 q 149 334 146 306 q 157 394 151 363 l 233 838 l 133 894 l 138 917 l 549 917 l 544 894 l 425 838 l 347 393 q 340 342 343 367 q 338 294 338 317 q 394 135 338 182 q 542 89 450 89 q 651 115 597 89 q 743 198 704 142 q 797 344 782 254 l 883 840 l 772 894 l 776 917 l 1094 917 l 1090 894 l 972 839 l 894 394 q 810 153 868 243 q 669 25 753 64 q 481 -14 586 -14 m 461 986 q 558 1146 499 1094 q 708 1197 618 1197 q 846 1147 807 1197 q 892 986 885 1096 l 865 986 q 806 1076 847 1054 q 696 1097 764 1097 q 578 1077 629 1097 q 488 986 526 1057 l 461 986 z "},"Ủ":{"ha":1057,"x_min":133,"x_max":1094,"o":"m 481 -14 q 305 15 381 -14 q 188 108 229 44 q 146 279 146 172 q 149 334 146 306 q 157 394 151 363 l 233 838 l 133 894 l 138 917 l 549 917 l 544 894 l 425 838 l 347 393 q 340 342 343 367 q 338 294 338 317 q 394 135 338 182 q 542 89 450 89 q 651 115 597 89 q 743 198 704 142 q 797 344 782 254 l 883 840 l 772 894 l 776 917 l 1094 917 l 1090 894 l 972 839 l 894 394 q 810 153 868 243 q 669 25 753 64 q 481 -14 586 -14 m 624 972 l 614 985 l 614 986 q 686 1017 664 1000 q 708 1064 708 1035 q 690 1101 708 1085 q 626 1126 671 1117 l 658 1213 q 759 1172 729 1204 q 789 1104 789 1140 q 746 1017 789 1049 q 624 972 703 986 z "},"Ṹ":{"ha":1057,"x_min":133,"x_max":1094,"o":"m 481 -14 q 305 15 381 -14 q 188 108 229 44 q 146 279 146 172 q 149 334 146 306 q 157 394 151 363 l 233 838 l 133 894 l 138 917 l 549 917 l 544 894 l 425 838 l 347 393 q 340 342 343 367 q 338 294 338 317 q 394 135 338 182 q 542 89 450 89 q 651 115 597 89 q 743 198 704 142 q 797 344 782 254 l 883 840 l 772 894 l 776 917 l 1094 917 l 1090 894 l 972 839 l 894 394 q 810 153 868 243 q 669 25 753 64 q 481 -14 586 -14 z "},"Ṻ":{"ha":1057,"x_min":133,"x_max":1094,"o":"m 481 -14 q 305 15 381 -14 q 188 108 229 44 q 146 279 146 172 q 149 334 146 306 q 157 394 151 363 l 233 838 l 133 894 l 138 917 l 549 917 l 544 894 l 425 838 l 347 393 q 340 342 343 367 q 338 294 338 317 q 394 135 338 182 q 542 89 450 89 q 651 115 597 89 q 743 198 704 142 q 797 344 782 254 l 883 840 l 772 894 l 776 917 l 1094 917 l 1090 894 l 972 839 l 894 394 q 810 153 868 243 q 669 25 753 64 q 481 -14 586 -14 z "},"Ư":{"ha":1057,"x_min":133,"x_max":1294,"o":"m 481 -14 q 305 15 381 -14 q 188 108 229 44 q 146 279 146 172 q 149 334 146 306 q 157 394 151 363 l 233 838 l 133 894 l 138 917 l 549 917 l 544 894 l 425 838 l 347 393 q 339 297 339 339 q 397 135 339 181 q 542 89 454 89 q 647 114 594 89 q 740 195 700 139 q 797 344 781 251 l 883 840 l 772 894 l 776 917 l 1063 917 q 1140 933 1115 917 q 1168 979 1164 949 l 1178 1038 l 1188 1046 l 1263 1046 q 1287 1041 1279 1046 q 1294 1021 1294 1036 q 1246 926 1294 965 q 1101 886 1197 886 l 1072 886 l 972 839 l 894 394 q 810 153 868 242 q 669 25 753 64 q 481 -14 585 -14 z "},"Ứ":{"ha":1057,"x_min":133,"x_max":1294,"o":"m 481 -14 q 305 15 381 -14 q 188 108 229 44 q 146 279 146 172 q 149 334 146 306 q 157 394 151 363 l 233 838 l 133 894 l 138 917 l 549 917 l 544 894 l 425 838 l 347 393 q 339 297 339 339 q 397 135 339 181 q 542 89 454 89 q 647 114 594 89 q 740 195 700 139 q 797 344 781 251 l 883 840 l 772 894 l 776 917 l 1063 917 q 1140 933 1115 917 q 1168 979 1164 949 l 1178 1038 l 1188 1046 l 1263 1046 q 1287 1041 1279 1046 q 1294 1021 1294 1036 q 1246 926 1294 965 q 1101 886 1197 886 l 1072 886 l 972 839 l 894 394 q 810 153 868 242 q 669 25 753 64 q 481 -14 585 -14 m 661 986 l 796 1197 l 944 1197 q 930 1154 940 1176 q 885 1110 919 1132 l 688 986 l 661 986 z "},"Ự":{"ha":1057,"x_min":133,"x_max":1294,"o":"m 481 -14 q 305 15 381 -14 q 188 108 229 44 q 146 279 146 172 q 149 334 146 306 q 157 394 151 363 l 233 838 l 133 894 l 138 917 l 549 917 l 544 894 l 425 838 l 347 393 q 339 297 339 339 q 397 135 339 181 q 542 89 454 89 q 647 114 594 89 q 740 195 700 139 q 797 344 781 251 l 883 840 l 772 894 l 776 917 l 1063 917 q 1140 933 1115 917 q 1168 979 1164 949 l 1178 1038 l 1188 1046 l 1263 1046 q 1287 1041 1279 1046 q 1294 1021 1294 1036 q 1246 926 1294 965 q 1101 886 1197 886 l 1072 886 l 972 839 l 894 394 q 810 153 868 242 q 669 25 753 64 q 481 -14 585 -14 z "},"Ừ":{"ha":1057,"x_min":133,"x_max":1294,"o":"m 481 -14 q 305 15 381 -14 q 188 108 229 44 q 146 279 146 172 q 149 334 146 306 q 157 394 151 363 l 233 838 l 133 894 l 138 917 l 549 917 l 544 894 l 425 838 l 347 393 q 339 297 339 339 q 397 135 339 181 q 542 89 454 89 q 647 114 594 89 q 740 195 700 139 q 797 344 781 251 l 883 840 l 772 894 l 776 917 l 1063 917 q 1140 933 1115 917 q 1168 979 1164 949 l 1178 1038 l 1188 1046 l 1263 1046 q 1287 1041 1279 1046 q 1294 1021 1294 1036 q 1246 926 1294 965 q 1101 886 1197 886 l 1072 886 l 972 839 l 894 394 q 810 153 868 242 q 669 25 753 64 q 481 -14 585 -14 m 660 986 l 461 1110 q 432 1149 435 1126 q 432 1197 429 1171 l 567 1197 l 688 986 l 660 986 z "},"Ử":{"ha":1057,"x_min":133,"x_max":1294,"o":"m 481 -14 q 305 15 381 -14 q 188 108 229 44 q 146 279 146 172 q 149 334 146 306 q 157 394 151 363 l 233 838 l 133 894 l 138 917 l 549 917 l 544 894 l 425 838 l 347 393 q 339 297 339 339 q 397 135 339 181 q 542 89 454 89 q 647 114 594 89 q 740 195 700 139 q 797 344 781 251 l 883 840 l 772 894 l 776 917 l 1063 917 q 1140 933 1115 917 q 1168 979 1164 949 l 1178 1038 l 1188 1046 l 1263 1046 q 1287 1041 1279 1046 q 1294 1021 1294 1036 q 1246 926 1294 965 q 1101 886 1197 886 l 1072 886 l 972 839 l 894 394 q 810 153 868 242 q 669 25 753 64 q 481 -14 585 -14 m 624 972 l 614 985 l 614 986 q 686 1017 664 1000 q 708 1064 708 1035 q 690 1101 708 1085 q 626 1126 671 1117 l 658 1213 q 759 1172 729 1204 q 789 1104 789 1140 q 746 1017 789 1049 q 624 972 703 986 z "},"Ữ":{"ha":1057,"x_min":133,"x_max":1294,"o":"m 481 -14 q 305 15 381 -14 q 188 108 229 44 q 146 279 146 172 q 149 334 146 306 q 157 394 151 363 l 233 838 l 133 894 l 138 917 l 549 917 l 544 894 l 425 838 l 347 393 q 339 297 339 339 q 397 135 339 181 q 542 89 454 89 q 647 114 594 89 q 740 195 700 139 q 797 344 781 251 l 883 840 l 772 894 l 776 917 l 1063 917 q 1140 933 1115 917 q 1168 979 1164 949 l 1178 1038 l 1188 1046 l 1263 1046 q 1287 1041 1279 1046 q 1294 1021 1294 1036 q 1246 926 1294 965 q 1101 886 1197 886 l 1072 886 l 972 839 l 894 394 q 810 153 868 242 q 669 25 753 64 q 481 -14 585 -14 m 461 1003 q 522 1117 496 1081 q 572 1166 549 1154 q 624 1178 596 1178 q 692 1158 663 1178 q 747 1118 721 1138 q 803 1099 774 1099 q 846 1112 826 1099 q 894 1178 865 1125 l 925 1178 q 864 1063 890 1100 q 814 1014 838 1025 q 761 1003 790 1003 q 694 1022 724 1003 q 639 1061 665 1042 q 583 1081 613 1081 q 540 1068 560 1081 q 492 1003 519 1056 l 461 1003 z "},"Ẁ":{"ha":1321,"x_min":99,"x_max":1401,"o":"m 285 -7 l 188 844 l 99 894 l 103 917 l 500 917 l 497 894 l 378 843 l 436 285 l 446 285 l 765 924 l 858 924 l 968 288 l 976 288 l 1215 846 l 1110 894 l 1114 917 l 1401 917 l 1397 894 l 1303 847 l 925 -7 l 831 -7 l 715 638 l 707 638 l 381 -7 l 285 -7 m 806 986 l 607 1110 q 578 1149 581 1126 q 578 1197 575 1171 l 713 1197 l 833 986 l 806 986 z "},"Ẃ":{"ha":1321,"x_min":99,"x_max":1401,"o":"m 285 -7 l 188 844 l 99 894 l 103 917 l 500 917 l 497 894 l 378 843 l 436 285 l 446 285 l 765 924 l 858 924 l 968 288 l 976 288 l 1215 846 l 1110 894 l 1114 917 l 1401 917 l 1397 894 l 1303 847 l 925 -7 l 831 -7 l 715 638 l 707 638 l 381 -7 l 285 -7 m 808 986 l 943 1197 l 1092 1197 q 1077 1154 1088 1176 q 1032 1110 1067 1132 l 835 986 l 808 986 z "},"Ŵ":{"ha":1321,"x_min":99,"x_max":1401,"o":"m 285 -7 l 188 844 l 99 894 l 103 917 l 500 917 l 497 894 l 378 843 l 436 285 l 446 285 l 765 924 l 858 924 l 968 288 l 976 288 l 1215 846 l 1110 894 l 1114 917 l 1401 917 l 1397 894 l 1303 847 l 925 -7 l 831 -7 l 715 638 l 707 638 l 381 -7 l 285 -7 m 608 986 l 826 1197 l 888 1197 l 1025 986 l 999 986 l 839 1082 l 635 986 l 608 986 z "},"Ẅ":{"ha":1321,"x_min":99,"x_max":1401,"o":"m 285 -7 l 188 844 l 99 894 l 103 917 l 500 917 l 497 894 l 378 843 l 436 285 l 446 285 l 765 924 l 858 924 l 968 288 l 976 288 l 1215 846 l 1110 894 l 1114 917 l 1401 917 l 1397 894 l 1303 847 l 925 -7 l 831 -7 l 715 638 l 707 638 l 381 -7 l 285 -7 m 708 1018 q 656 1040 676 1018 q 635 1092 635 1061 q 656 1144 635 1122 q 708 1165 676 1165 q 760 1144 739 1165 q 782 1092 782 1122 q 760 1040 782 1061 q 708 1018 739 1018 m 969 1018 q 917 1040 938 1018 q 896 1092 896 1061 q 917 1144 896 1122 q 969 1165 938 1165 q 1021 1144 1000 1165 q 1042 1092 1042 1122 q 1021 1040 1042 1061 q 969 1018 1000 1018 z "},"Ỳ":{"ha":953,"x_min":101,"x_max":1032,"o":"m 204 0 l 208 22 l 332 79 l 393 426 l 175 847 l 101 894 l 107 917 l 493 917 l 488 894 l 376 847 l 375 842 l 556 500 l 829 840 l 831 846 l 735 894 l 740 917 l 1032 917 l 1028 894 l 939 853 l 585 431 l 522 79 l 628 22 l 624 0 l 204 0 m 607 986 l 408 1110 q 379 1149 382 1126 q 379 1197 376 1171 l 514 1197 l 635 986 l 607 986 z "},"Ý":{"ha":953,"x_min":101,"x_max":1032,"o":"m 204 0 l 208 22 l 332 79 l 393 426 l 175 847 l 101 894 l 107 917 l 493 917 l 488 894 l 376 847 l 375 842 l 556 500 l 829 840 l 831 846 l 735 894 l 740 917 l 1032 917 l 1028 894 l 939 853 l 585 431 l 522 79 l 628 22 l 624 0 l 204 0 m 610 986 l 744 1197 l 893 1197 q 878 1154 889 1176 q 833 1110 868 1132 l 636 986 l 610 986 z "},"Ŷ":{"ha":953,"x_min":101,"x_max":1032,"o":"m 204 0 l 208 22 l 332 79 l 393 426 l 175 847 l 101 894 l 107 917 l 493 917 l 488 894 l 376 847 l 375 842 l 556 500 l 829 840 l 831 846 l 735 894 l 740 917 l 1032 917 l 1028 894 l 939 853 l 585 431 l 522 79 l 628 22 l 624 0 l 204 0 m 410 986 l 628 1197 l 689 1197 l 826 986 l 800 986 l 640 1082 l 436 986 l 410 986 z "},"Ÿ":{"ha":953,"x_min":101,"x_max":1032,"o":"m 204 0 l 208 22 l 332 79 l 393 426 l 175 847 l 101 894 l 107 917 l 493 917 l 488 894 l 376 847 l 375 842 l 556 500 l 829 840 l 831 846 l 735 894 l 740 917 l 1032 917 l 1028 894 l 939 853 l 585 431 l 522 79 l 628 22 l 624 0 l 204 0 m 511 1018 q 458 1040 479 1018 q 438 1092 438 1061 q 458 1144 438 1122 q 511 1165 479 1165 q 563 1144 542 1165 q 585 1092 585 1122 q 563 1040 585 1061 q 511 1018 542 1018 m 772 1018 q 719 1040 740 1018 q 699 1092 699 1061 q 719 1144 699 1122 q 772 1165 740 1165 q 824 1144 803 1165 q 844 1092 844 1122 q 824 1040 844 1061 q 772 1018 803 1018 z "},"Ỹ":{"ha":953,"x_min":101,"x_max":1032,"o":"m 204 0 l 208 22 l 332 79 l 393 426 l 175 847 l 101 894 l 107 917 l 493 917 l 488 894 l 376 847 l 375 842 l 556 500 l 829 840 l 831 846 l 735 894 l 740 917 l 1032 917 l 1028 894 l 939 853 l 585 431 l 522 79 l 628 22 l 624 0 l 204 0 m 408 1003 q 469 1117 443 1081 q 519 1166 496 1154 q 571 1178 543 1178 q 639 1158 610 1178 q 694 1118 668 1138 q 750 1099 721 1099 q 793 1112 774 1099 q 842 1178 813 1125 l 872 1178 q 811 1063 838 1100 q 761 1014 785 1025 q 708 1003 738 1003 q 642 1022 671 1003 q 586 1061 613 1042 q 531 1081 560 1081 q 487 1068 507 1081 q 439 1003 467 1056 l 408 1003 z "},"Ȳ":{"ha":953,"x_min":101,"x_max":1032,"o":"m 204 0 l 208 22 l 332 79 l 393 426 l 175 847 l 101 894 l 107 917 l 493 917 l 488 894 l 376 847 l 375 842 l 556 500 l 829 840 l 831 846 l 735 894 l 740 917 l 1032 917 l 1028 894 l 939 853 l 585 431 l 522 79 l 628 22 l 624 0 l 204 0 m 435 1053 l 449 1132 l 846 1132 l 831 1053 l 435 1053 z "},"Ỵ":{"ha":953,"x_min":101,"x_max":1032,"o":"m 204 0 l 208 22 l 332 79 l 393 426 l 175 847 l 101 894 l 107 917 l 493 917 l 488 894 l 376 847 l 375 842 l 556 500 l 829 840 l 831 846 l 735 894 l 740 917 l 1032 917 l 1028 894 l 939 853 l 585 431 l 522 79 l 628 22 l 624 0 l 204 0 z "},"Ỷ":{"ha":953,"x_min":101,"x_max":1032,"o":"m 204 0 l 208 22 l 332 79 l 393 426 l 175 847 l 101 894 l 107 917 l 493 917 l 488 894 l 376 847 l 375 842 l 556 500 l 829 840 l 831 846 l 735 894 l 740 917 l 1032 917 l 1028 894 l 939 853 l 585 431 l 522 79 l 628 22 l 624 0 l 204 0 m 571 972 l 561 985 l 561 986 q 633 1017 611 1000 q 656 1064 656 1035 q 637 1101 656 1085 q 574 1126 618 1117 l 606 1213 q 706 1172 676 1204 q 736 1104 736 1140 q 693 1017 736 1049 q 571 972 650 986 z "},"Ẏ":{"ha":953,"x_min":101,"x_max":1032,"o":"m 204 0 l 208 22 l 332 79 l 393 426 l 175 847 l 101 894 l 107 917 l 493 917 l 488 894 l 376 847 l 375 842 l 556 500 l 829 840 l 831 846 l 735 894 l 740 917 l 1032 917 l 1028 894 l 939 853 l 585 431 l 522 79 l 628 22 l 624 0 l 204 0 m 640 996 q 572 1023 600 996 q 544 1090 544 1050 q 572 1160 544 1132 q 640 1188 600 1188 q 709 1160 682 1188 q 736 1090 736 1132 q 709 1023 736 1050 q 640 996 682 996 z "},"Ź":{"ha":849,"x_min":11,"x_max":832,"o":"m 11 0 l 19 50 l 597 843 l 290 843 l 153 633 l 131 633 l 183 917 l 832 917 l 824 867 l 250 82 l 581 82 l 722 297 l 744 297 l 689 0 l 11 0 m 510 986 l 644 1197 l 793 1197 q 778 1154 789 1176 q 733 1110 768 1132 l 536 986 l 510 986 z "},"Ž":{"ha":849,"x_min":11,"x_max":832,"o":"m 11 0 l 19 50 l 597 843 l 290 843 l 153 633 l 131 633 l 183 917 l 832 917 l 824 867 l 250 82 l 581 82 l 722 297 l 744 297 l 689 0 l 11 0 m 492 986 l 353 1197 l 379 1197 l 535 1101 l 743 1197 l 769 1197 l 551 986 l 492 986 z "},"Ż":{"ha":849,"x_min":11,"x_max":832,"o":"m 11 0 l 19 50 l 597 843 l 290 843 l 153 633 l 131 633 l 183 917 l 832 917 l 824 867 l 250 82 l 581 82 l 722 297 l 744 297 l 689 0 l 11 0 m 540 996 q 472 1023 500 996 q 444 1090 444 1050 q 472 1160 444 1132 q 540 1188 500 1188 q 609 1160 582 1188 q 636 1090 636 1132 q 609 1023 636 1050 q 540 996 582 996 z "},"Ẓ":{"ha":849,"x_min":11,"x_max":832,"o":"m 11 0 l 19 50 l 597 843 l 290 843 l 153 633 l 131 633 l 183 917 l 832 917 l 824 867 l 250 82 l 581 82 l 722 297 l 744 297 l 689 0 l 11 0 z "},"Ə":{"ha":903,"x_min":54,"x_max":849,"o":"m 360 -12 q 133 69 211 -12 q 54 299 54 150 q 56 351 54 324 q 61 406 57 378 l 72 415 l 647 415 q 654 525 654 468 q 594 726 654 653 q 401 799 533 799 q 251 768 317 799 q 117 679 186 738 l 111 679 l 119 728 q 277 874 179 817 q 493 931 375 931 q 756 836 663 931 q 849 582 849 742 q 813 349 849 457 q 710 160 776 240 q 555 33 644 79 q 360 -12 465 -12 m 238 283 q 272 117 238 172 q 389 63 306 63 q 545 140 482 63 q 636 342 608 217 l 240 342 q 239 312 240 326 q 238 283 238 297 z "},"Ŋ":{"ha":1047,"x_min":-15,"x_max":1079,"o":"m -15 0 l -11 22 l 108 79 l 242 836 l 142 894 l 146 917 l 388 917 l 767 285 l 864 839 l 725 894 l 731 917 l 1079 917 l 1075 894 l 957 838 l 807 -18 q 755 -183 789 -125 q 678 -275 721 -242 q 590 -319 642 -304 q 490 -333 538 -333 q 460 -325 468 -333 q 457 -293 451 -317 l 481 -192 l 489 -185 l 539 -185 q 630 -172 597 -185 q 681 -126 663 -160 q 711 -31 700 -92 l 717 4 l 307 676 l 203 79 l 340 22 l 336 0 l -15 0 z "},"Ð":{"ha":1038,"x_min":-19,"x_max":976,"o":"m -19 0 l -15 22 l 100 78 l 164 442 l 58 442 l 71 507 l 175 507 l 233 839 l 138 894 l 142 917 l 506 917 q 768 868 664 917 q 924 732 872 819 q 976 531 976 644 q 935 335 976 429 q 818 165 894 240 q 635 44 742 89 q 394 0 528 0 l -19 0 m 547 442 l 354 442 l 289 68 l 410 68 q 602 126 519 68 q 731 290 685 185 q 778 533 778 394 q 700 761 778 678 q 475 844 622 844 l 426 844 l 367 507 l 558 507 l 547 442 z "},"Þ":{"ha":867,"x_min":-19,"x_max":833,"o":"m 549 917 l 544 894 l 426 838 l 408 732 l 481 732 q 744 677 654 732 q 833 511 833 622 q 784 369 833 433 q 636 265 735 304 q 390 225 538 225 l 318 225 l 293 79 l 397 22 l 393 0 l -19 0 l -15 22 l 103 79 l 236 838 l 136 894 l 140 917 l 549 917 m 444 658 l 394 658 l 331 290 l 414 290 q 578 352 525 290 q 631 503 631 414 q 582 619 631 581 q 444 658 533 658 z "},"Ǆ":{"ha":1881,"x_min":-19,"x_max":1864,"o":"m -19 0 l -15 22 l 100 78 l 233 839 l 138 894 l 142 917 l 506 917 q 768 868 664 917 q 924 732 872 819 q 976 531 976 644 q 935 335 976 429 q 818 165 894 240 q 635 44 742 89 q 394 0 528 0 l -19 0 m 475 844 l 426 844 l 289 68 l 410 68 q 602 126 519 68 q 731 290 685 185 q 778 533 778 394 q 700 761 778 678 q 475 844 622 844 m 1043 0 l 1051 50 l 1629 843 l 1322 843 l 1185 633 l 1163 633 l 1215 917 l 1864 917 l 1856 867 l 1282 82 l 1613 82 l 1754 297 l 1776 297 l 1721 0 l 1043 0 m 1524 986 l 1385 1197 l 1411 1197 l 1567 1101 l 1775 1197 l 1801 1197 l 1583 986 l 1524 986 z "},"Ǉ":{"ha":1346,"x_min":-19,"x_max":1371,"o":"m -19 0 l -15 22 l 103 79 l 236 838 l 138 894 l 142 917 l 564 917 l 560 894 l 428 838 l 293 74 l 558 74 l 714 328 l 736 328 l 675 0 l -19 0 m 753 -240 q 710 -224 724 -240 q 707 -174 696 -207 l 733 -96 l 742 -96 q 774 -106 760 -103 q 807 -108 789 -108 q 860 -94 838 -108 q 901 -36 883 -81 q 935 101 918 8 l 1065 838 l 958 894 l 961 917 l 1371 917 l 1367 894 l 1257 838 l 1163 324 q 1075 63 1135 174 q 946 -115 1015 -47 q 865 -192 896 -165 q 809 -230 833 -219 q 753 -240 785 -240 z "},"Ǌ":{"ha":1590,"x_min":-15,"x_max":1615,"o":"m -15 0 l -11 22 l 108 79 l 242 836 l 142 894 l 146 917 l 388 917 l 767 285 l 864 839 l 725 894 l 731 917 l 1079 917 l 1075 894 l 957 838 l 808 -7 l 724 -7 l 307 676 l 203 79 l 340 22 l 336 0 l -15 0 m 997 -240 q 954 -224 968 -240 q 951 -174 940 -207 l 978 -96 l 986 -96 q 1019 -106 1004 -103 q 1051 -108 1033 -108 q 1105 -94 1082 -108 q 1145 -36 1128 -81 q 1179 101 1163 8 l 1310 838 l 1203 894 l 1206 917 l 1615 917 l 1611 894 l 1501 838 l 1407 324 q 1319 63 1379 174 q 1190 -115 1260 -47 q 1109 -192 1140 -165 q 1053 -230 1078 -219 q 997 -240 1029 -240 z "},"Ђ":{"ha":1100,"x_min":79,"x_max":1019,"o":"m 125 0 l 131 22 l 274 79 l 410 843 l 242 843 l 101 611 l 79 611 l 131 917 l 933 917 l 881 638 l 858 638 l 797 843 l 601 843 l 535 468 q 638 516 575 496 q 778 536 701 536 q 964 460 908 536 q 997 253 1019 383 q 949 99 983 172 q 872 -33 914 25 q 794 -125 831 -92 q 685 -211 733 -182 q 588 -240 636 -240 q 551 -200 543 -240 q 588 -97 556 -179 l 599 -97 q 630 -106 618 -103 q 657 -108 642 -108 q 704 -97 683 -108 q 742 -45 725 -85 q 772 75 758 -6 l 799 232 q 789 381 817 331 q 668 431 761 431 q 521 394 581 431 l 465 79 l 592 22 l 588 0 l 125 0 z "},"Є":{"ha":924,"x_min":67,"x_max":864,"o":"m 451 -14 q 246 35 332 -14 q 113 168 160 83 q 67 361 67 253 q 110 577 67 475 q 230 759 153 679 q 408 885 307 839 q 624 931 508 931 q 758 913 706 931 q 864 864 810 894 l 836 604 l 813 604 l 722 824 q 672 855 699 844 q 604 865 644 865 q 457 819 522 865 q 347 692 392 772 q 281 508 301 611 l 542 508 l 640 628 l 663 628 l 608 318 l 586 318 l 529 435 l 271 435 q 267 353 267 394 q 326 136 267 217 q 486 56 385 56 q 567 69 528 56 q 642 103 606 82 l 793 293 l 817 293 l 761 58 q 625 6 703 25 q 451 -14 547 -14 z "},"Ѕ":{"ha":750,"x_min":25,"x_max":704,"o":"m 286 -14 q 141 5 201 -14 q 25 57 81 24 l 51 292 l 75 292 l 147 110 q 209 70 175 86 q 288 54 243 54 q 422 99 369 54 q 474 221 474 144 q 457 290 474 261 q 400 348 440 318 q 289 419 360 378 q 176 515 211 467 q 142 639 142 563 q 188 786 142 719 q 311 892 233 853 q 482 931 389 931 q 603 914 547 931 q 704 867 658 897 l 681 644 l 657 644 l 586 813 q 538 847 564 832 q 468 861 511 861 q 360 817 404 861 q 315 708 315 774 q 344 623 315 660 q 456 536 374 586 q 565 463 522 497 q 628 388 608 428 q 649 290 649 347 q 601 137 649 206 q 471 27 553 68 q 286 -14 389 -14 z "},"І":{"ha":525,"x_min":-19,"x_max":546,"o":"m -19 0 l -15 22 l 99 79 l 233 838 l 132 894 l 136 917 l 546 917 l 542 894 l 424 838 l 290 79 l 393 22 l 389 0 l -19 0 z "},"Ї":{"ha":525,"x_min":-19,"x_max":575,"o":"m -19 0 l -15 22 l 99 79 l 233 838 l 132 894 l 136 917 l 546 917 l 542 894 l 424 838 l 290 79 l 393 22 l 389 0 l -19 0 m 242 1018 q 189 1040 210 1018 q 168 1092 168 1061 q 189 1144 168 1122 q 242 1165 210 1165 q 294 1144 272 1165 q 315 1092 315 1122 q 294 1040 315 1061 q 242 1018 272 1018 m 503 1018 q 450 1040 471 1018 q 429 1092 429 1061 q 450 1144 429 1122 q 503 1165 471 1165 q 554 1144 533 1165 q 575 1092 575 1122 q 554 1040 575 1061 q 503 1018 533 1018 z "},"Ј":{"ha":539,"x_min":-111,"x_max":564,"o":"m -54 -240 q -97 -224 -83 -240 q -100 -174 -111 -207 l -74 -96 l -65 -96 q -33 -106 -47 -103 q 0 -108 -18 -108 q 53 -94 31 -108 q 94 -36 76 -81 q 128 101 111 8 l 258 838 l 151 894 l 154 917 l 564 917 l 560 894 l 450 838 l 356 324 q 268 63 328 174 q 139 -115 208 -47 q 58 -192 89 -165 q 2 -230 26 -219 q -54 -240 -22 -240 z "},"Љ":{"ha":1336,"x_min":-33,"x_max":1283,"o":"m 392 708 q 322 383 358 514 q 239 164 285 251 q 131 23 186 60 q 11 -14 75 -14 q -26 -6 -19 -14 q -29 26 -33 3 l -11 133 l -3 140 l 11 140 q 188 282 119 140 q 306 710 257 424 l 328 838 l 219 894 l 224 917 l 1003 917 l 999 894 l 867 838 l 817 546 l 913 546 q 1186 482 1089 546 q 1283 294 1283 418 q 1229 143 1283 210 q 1078 38 1175 76 q 849 0 981 0 l 424 0 l 428 22 l 543 81 l 678 843 l 415 843 l 392 708 m 733 74 l 828 74 q 1017 137 951 74 q 1082 294 1082 200 q 1028 431 1082 389 q 869 472 974 472 l 803 472 l 733 74 z "},"Њ":{"ha":1435,"x_min":-19,"x_max":1382,"o":"m -19 0 l -15 22 l 99 79 l 233 838 l 132 894 l 136 917 l 538 917 l 533 894 l 424 838 l 368 522 l 719 522 l 775 838 l 675 894 l 679 917 l 1101 917 l 1097 894 l 967 838 l 910 522 l 1013 522 q 1285 462 1188 522 q 1382 283 1382 401 q 1328 138 1382 203 q 1176 37 1274 74 q 947 0 1078 0 l 522 0 l 526 22 l 642 81 l 707 449 l 356 449 l 290 79 l 385 22 l 381 0 l -19 0 m 832 74 l 926 74 q 1115 134 1050 74 q 1181 285 1181 194 q 1126 410 1181 371 q 968 449 1072 449 l 897 449 l 832 74 z "},"Ћ":{"ha":1186,"x_min":79,"x_max":1060,"o":"m 125 0 l 131 22 l 274 79 l 410 843 l 242 843 l 101 611 l 79 611 l 131 917 l 933 917 l 881 638 l 858 638 l 797 843 l 601 843 l 535 468 q 638 516 575 496 q 778 536 701 536 q 954 465 900 536 q 985 258 1008 393 l 953 79 l 1060 22 l 1056 0 l 744 0 l 789 251 q 778 383 803 336 q 667 431 753 431 q 521 394 581 431 l 465 79 l 592 22 l 588 0 l 125 0 z "},"Џ":{"ha":1057,"x_min":-19,"x_max":1076,"o":"m 356 0 l -19 0 l -15 22 l 100 79 l 235 838 l 132 894 l 136 917 l 536 917 l 532 894 l 425 838 l 289 74 l 632 74 l 767 838 l 672 894 l 676 917 l 1076 917 l 1072 894 l 958 838 l 824 79 l 925 22 l 921 0 l 528 0 l 411 -239 l 389 -239 l 356 0 z "},"А":{"ha":996,"x_min":-46,"x_max":896,"o":"m -46 0 l -42 22 l 39 65 l 526 924 l 636 924 l 815 71 l 896 22 l 890 0 l 489 0 l 492 22 l 613 72 l 567 304 l 260 304 l 128 69 l 232 22 l 226 0 l -46 0 m 300 378 l 553 378 l 486 710 l 300 378 z "},"Б":{"ha":913,"x_min":-19,"x_max":838,"o":"m 136 917 l 836 917 l 794 676 l 772 676 l 707 843 l 425 843 l 369 532 l 469 532 q 740 469 643 532 q 838 286 838 407 q 784 138 838 203 q 633 37 731 74 q 406 0 536 0 l -19 0 l -15 22 l 99 81 l 233 838 l 132 894 l 136 917 m 289 74 l 383 74 q 572 134 507 74 q 636 286 636 194 q 583 417 636 376 q 426 458 529 458 l 357 458 l 289 74 z "},"В":{"ha":914,"x_min":-19,"x_max":835,"o":"m -19 0 l -15 22 l 103 79 l 236 838 l 138 894 l 142 917 l 525 917 q 747 869 661 917 q 832 725 832 822 q 772 586 832 651 q 606 494 711 521 q 777 423 719 478 q 835 283 835 368 q 789 147 835 213 q 653 41 743 82 q 429 0 564 0 l -19 0 m 474 843 l 428 843 l 368 506 l 422 506 q 578 560 525 506 q 632 694 632 614 q 597 805 632 767 q 474 843 561 843 m 443 440 l 357 440 l 292 74 l 404 74 q 531 102 481 74 q 605 178 581 131 q 629 282 629 225 q 585 401 629 363 q 443 440 542 440 z "},"Г":{"ha":813,"x_min":-19,"x_max":814,"o":"m -19 0 l -15 22 l 103 79 l 236 838 l 138 894 l 142 917 l 814 917 l 772 676 l 750 676 l 685 843 l 429 843 l 293 79 l 428 22 l 424 0 l -19 0 z "},"Ѓ":{"ha":813,"x_min":-19,"x_max":814,"o":"m -19 0 l -15 22 l 103 79 l 236 838 l 138 894 l 142 917 l 814 917 l 772 676 l 750 676 l 685 843 l 429 843 l 293 79 l 428 22 l 424 0 l -19 0 z "},"Ғ":{"ha":808,"x_min":-24,"x_max":810,"o":"m -24 0 l -19 22 l 99 79 l 163 442 l 58 442 l 69 507 l 174 507 l 232 838 l 133 894 l 138 917 l 810 917 l 768 676 l 746 676 l 681 843 l 425 843 l 365 507 l 586 507 l 575 442 l 353 442 l 289 79 l 424 22 l 419 0 l -24 0 z "},"Д":{"ha":1001,"x_min":-74,"x_max":1010,"o":"m 125 0 l -51 -239 l -74 -239 l -18 74 l 74 74 q 197 335 146 185 q 289 710 247 485 l 311 838 l 203 894 l 207 917 l 1010 917 l 1006 894 l 889 838 l 753 74 l 883 74 l 828 -239 l 806 -239 l 715 0 l 125 0 m 376 708 q 291 339 339 493 q 176 74 243 185 l 563 74 l 699 843 l 400 843 l 376 708 z "},"Е":{"ha":865,"x_min":-19,"x_max":833,"o":"m -19 0 l -15 22 l 103 79 l 236 838 l 138 894 l 142 917 l 833 917 l 792 676 l 769 676 l 704 843 l 429 843 l 369 506 l 558 506 l 658 626 l 681 626 l 626 322 l 604 322 l 547 440 l 357 440 l 292 74 l 607 74 l 744 283 l 767 283 l 717 0 l -19 0 z "},"Ё":{"ha":865,"x_min":-19,"x_max":833,"o":"m -19 0 l -15 22 l 103 79 l 236 838 l 138 894 l 142 917 l 833 917 l 792 676 l 769 676 l 704 843 l 429 843 l 369 506 l 558 506 l 658 626 l 681 626 l 626 322 l 604 322 l 547 440 l 357 440 l 292 74 l 607 74 l 744 283 l 767 283 l 717 0 l -19 0 m 431 1018 q 378 1040 399 1018 q 357 1092 357 1061 q 378 1144 357 1122 q 431 1165 399 1165 q 483 1144 461 1165 q 504 1092 504 1122 q 483 1040 504 1061 q 431 1018 461 1018 m 692 1018 q 639 1040 660 1018 q 618 1092 618 1061 q 639 1144 618 1122 q 692 1165 660 1165 q 743 1144 722 1165 q 764 1092 764 1122 q 743 1040 764 1061 q 692 1018 722 1018 z "},"Ж":{"ha":1460,"x_min":-71,"x_max":1456,"o":"m 450 0 l 453 22 l 574 79 l 706 838 l 607 894 l 610 917 l 1021 917 l 1017 894 l 897 838 l 764 79 l 864 22 l 860 0 l 450 0 m 1114 0 l 833 464 l 1240 846 l 1151 894 l 1156 917 l 1456 917 l 1450 894 l 1365 861 l 1003 526 l 1292 72 l 1372 22 l 1368 0 l 1114 0 m 194 0 l -71 0 l -67 22 l 32 72 l 486 540 l 263 853 l 164 894 l 167 917 l 475 917 l 471 894 l 371 849 l 638 464 l 194 0 z "},"З":{"ha":889,"x_min":53,"x_max":810,"o":"m 479 864 q 358 829 413 864 l 182 607 l 157 607 l 218 865 q 351 913 283 896 q 517 931 419 931 q 738 872 665 931 q 810 728 810 814 q 778 623 810 675 q 686 531 747 571 q 536 478 625 492 q 717 412 656 464 q 778 282 778 360 q 728 141 778 208 q 583 30 679 74 q 346 -14 486 -14 q 176 6 250 -14 q 53 58 101 26 l 72 293 l 97 293 l 206 92 q 263 66 231 75 q 340 57 294 57 q 468 88 417 57 q 547 167 519 119 q 574 265 574 215 q 526 387 574 338 q 376 436 478 436 l 283 436 l 297 510 l 385 510 q 506 542 457 510 q 581 625 556 575 q 607 724 607 675 q 575 822 607 781 q 479 864 543 864 z "},"И":{"ha":1085,"x_min":-19,"x_max":1104,"o":"m -19 0 l -15 22 l 99 79 l 233 838 l 132 894 l 136 917 l 538 917 l 533 894 l 424 838 l 322 260 l 783 776 l 794 838 l 700 894 l 704 917 l 1104 917 l 1100 894 l 985 838 l 850 79 l 953 22 l 949 0 l 549 0 l 553 22 l 660 79 l 761 647 l 300 133 l 290 79 l 385 22 l 381 0 l -19 0 z "},"Й":{"ha":1085,"x_min":-19,"x_max":1104,"o":"m -19 0 l -15 22 l 99 79 l 233 838 l 132 894 l 136 917 l 538 917 l 533 894 l 424 838 l 322 260 l 783 776 l 794 838 l 700 894 l 704 917 l 1104 917 l 1100 894 l 985 838 l 850 79 l 953 22 l 949 0 l 549 0 l 553 22 l 660 79 l 761 647 l 300 133 l 290 79 l 385 22 l 381 0 l -19 0 m 426 1197 l 563 1197 q 567 1078 550 1125 q 639 1031 585 1031 q 726 1078 694 1031 q 771 1197 758 1125 l 907 1197 q 821 1047 892 1108 q 631 986 750 986 q 463 1047 514 986 q 426 1197 411 1108 z "},"Ӣ":{"ha":1085,"x_min":-19,"x_max":1104,"o":"m -19 0 l -15 22 l 99 79 l 233 838 l 132 894 l 136 917 l 538 917 l 533 894 l 424 838 l 322 260 l 783 776 l 794 838 l 700 894 l 704 917 l 1104 917 l 1100 894 l 985 838 l 850 79 l 953 22 l 949 0 l 549 0 l 553 22 l 660 79 l 761 647 l 300 133 l 290 79 l 385 22 l 381 0 l -19 0 z "},"К":{"ha":1001,"x_min":-19,"x_max":992,"o":"m -19 0 l -15 22 l 103 79 l 236 838 l 138 894 l 142 917 l 551 917 l 546 894 l 428 838 l 293 79 l 394 22 l 389 0 l -19 0 m 650 0 l 364 464 l 776 846 l 689 894 l 693 917 l 992 917 l 986 894 l 901 861 l 535 528 l 832 72 l 913 22 l 908 0 l 650 0 z "},"Ќ":{"ha":1001,"x_min":-19,"x_max":992,"o":"m -19 0 l -15 22 l 103 79 l 236 838 l 138 894 l 142 917 l 551 917 l 546 894 l 428 838 l 293 79 l 394 22 l 389 0 l -19 0 m 650 0 l 364 464 l 776 846 l 689 894 l 693 917 l 992 917 l 986 894 l 901 861 l 535 528 l 832 72 l 913 22 l 908 0 l 650 0 z "},"Л":{"ha":990,"x_min":-33,"x_max":1010,"o":"m 444 0 l 449 22 l 564 79 l 699 843 l 415 843 l 392 708 q 322 383 358 514 q 239 164 285 251 q 131 23 186 60 q 11 -14 75 -14 q -26 -6 -19 -14 q -29 26 -33 3 l -11 133 l -3 140 l 11 140 q 188 282 119 140 q 306 710 257 424 l 328 838 l 219 894 l 224 917 l 1010 917 l 1006 894 l 889 838 l 754 79 l 858 22 l 854 0 l 444 0 z "},"М":{"ha":1297,"x_min":-19,"x_max":1292,"o":"m -19 0 l -15 22 l 103 79 l 264 838 l 151 894 l 157 917 l 478 917 l 632 267 l 988 917 l 1292 917 l 1286 894 l 1169 839 l 1082 79 l 1171 22 l 1167 0 l 779 0 l 783 22 l 893 78 l 968 717 l 569 -7 l 497 -7 l 325 735 l 190 78 l 293 22 l 289 0 l -19 0 z "},"Н":{"ha":1071,"x_min":-19,"x_max":1090,"o":"m -19 0 l -15 22 l 99 79 l 233 838 l 132 894 l 136 917 l 538 917 l 533 894 l 424 838 l 367 510 l 722 510 l 781 838 l 686 894 l 690 917 l 1090 917 l 1086 894 l 971 838 l 836 79 l 939 22 l 935 0 l 535 0 l 539 22 l 646 79 l 710 436 l 353 436 l 290 79 l 385 22 l 381 0 l -19 0 z "},"О":{"ha":1075,"x_min":67,"x_max":1008,"o":"m 467 -14 q 251 36 340 -14 q 114 176 161 86 q 67 382 67 265 q 108 593 67 494 q 222 768 149 692 q 394 888 296 844 q 607 931 492 931 q 823 881 733 931 q 960 741 913 831 q 1008 535 1008 651 q 969 325 1008 424 q 857 150 929 226 q 685 30 785 74 q 467 -14 586 -14 m 493 56 q 622 95 564 56 q 721 203 679 135 q 785 363 763 272 q 807 553 807 453 q 751 776 807 690 q 585 861 696 861 q 459 822 517 861 q 359 715 401 783 q 293 556 317 646 q 269 365 269 467 q 296 205 269 275 q 372 95 322 135 q 493 56 422 56 z "},"П":{"ha":1057,"x_min":-19,"x_max":1076,"o":"m -19 0 l -15 22 l 99 79 l 233 838 l 132 894 l 136 917 l 1076 917 l 1072 894 l 957 838 l 822 79 l 925 22 l 921 0 l 521 0 l 525 22 l 632 79 l 768 843 l 425 843 l 290 79 l 385 22 l 381 0 l -19 0 z "},"Р":{"ha":883,"x_min":-19,"x_max":863,"o":"m -19 0 l -15 22 l 103 79 l 236 838 l 138 894 l 142 917 l 511 917 q 863 696 863 917 q 813 554 863 619 q 666 449 764 489 q 421 410 568 410 l 351 410 l 293 79 l 415 22 l 411 0 l -19 0 m 428 843 l 363 475 l 444 475 q 608 536 556 475 q 660 688 660 597 q 612 803 660 764 q 474 843 564 843 l 428 843 z "},"С":{"ha":924,"x_min":67,"x_max":864,"o":"m 451 -14 q 246 35 332 -14 q 113 168 160 83 q 67 361 67 253 q 110 577 67 475 q 230 759 153 679 q 408 885 307 839 q 624 931 508 931 q 758 913 706 931 q 864 864 810 894 l 836 604 l 813 604 l 722 824 q 672 855 699 844 q 604 865 644 865 q 467 825 529 865 q 360 715 404 785 q 291 551 315 644 q 267 353 267 458 q 326 136 267 217 q 486 56 385 56 q 567 69 528 56 q 642 103 606 82 l 793 293 l 817 293 l 761 58 q 625 6 703 25 q 451 -14 547 -14 z "},"Т":{"ha":889,"x_min":79,"x_max":933,"o":"m 139 0 l 144 22 l 288 79 l 424 843 l 242 843 l 101 611 l 79 611 l 131 917 l 933 917 l 881 611 l 858 611 l 797 843 l 615 843 l 479 79 l 606 22 l 601 0 l 139 0 z "},"У":{"ha":964,"x_min":93,"x_max":1042,"o":"m 585 301 q 451 121 511 190 q 335 19 392 51 q 214 -14 278 -14 q 176 -6 183 -14 q 174 26 169 3 l 193 133 l 201 140 l 228 140 q 338 159 292 140 q 422 224 383 178 l 199 829 l 93 894 l 97 917 l 492 917 l 488 894 l 382 849 l 382 840 l 543 407 l 558 407 l 838 839 l 838 846 l 740 894 l 744 917 l 1042 917 l 1038 894 l 942 846 l 585 301 z "},"Ў":{"ha":964,"x_min":93,"x_max":1042,"o":"m 585 301 q 451 121 511 190 q 335 19 392 51 q 214 -14 278 -14 q 176 -6 183 -14 q 174 26 169 3 l 193 133 l 201 140 l 228 140 q 338 159 292 140 q 422 224 383 178 l 199 829 l 93 894 l 97 917 l 492 917 l 488 894 l 382 849 l 382 840 l 543 407 l 558 407 l 838 839 l 838 846 l 740 894 l 744 917 l 1042 917 l 1038 894 l 942 846 l 585 301 m 426 1197 l 563 1197 q 567 1078 550 1125 q 639 1031 585 1031 q 726 1078 694 1031 q 771 1197 758 1125 l 907 1197 q 821 1047 892 1108 q 631 986 750 986 q 463 1047 514 986 q 426 1197 411 1108 z "},"Ӯ":{"ha":964,"x_min":93,"x_max":1042,"o":"m 585 301 q 451 121 511 190 q 335 19 392 51 q 214 -14 278 -14 q 176 -6 183 -14 q 174 26 169 3 l 193 133 l 201 140 l 228 140 q 338 159 292 140 q 422 224 383 178 l 199 829 l 93 894 l 97 917 l 492 917 l 488 894 l 382 849 l 382 840 l 543 407 l 558 407 l 838 839 l 838 846 l 740 894 l 744 917 l 1042 917 l 1038 894 l 942 846 l 585 301 z "},"Ф":{"ha":1213,"x_min":44,"x_max":1165,"o":"m 311 -28 l 315 -6 l 439 51 l 450 111 q 147 199 249 118 q 44 415 44 279 q 107 605 44 518 q 287 746 169 692 q 569 806 404 800 l 581 865 l 474 922 l 478 944 l 901 944 l 897 922 l 772 865 l 761 806 q 1063 718 961 799 q 1165 501 1165 638 q 1103 312 1165 399 q 923 171 1040 225 q 640 111 806 117 l 629 51 l 740 -6 l 736 -28 l 311 -28 m 246 421 q 303 254 246 317 q 461 181 361 192 l 558 739 q 392 695 463 736 q 284 584 322 654 q 246 421 246 514 m 964 496 q 906 662 964 600 q 750 735 849 724 l 651 178 q 817 222 747 181 q 926 333 888 263 q 964 496 964 403 z "},"Х":{"ha":992,"x_min":-53,"x_max":1024,"o":"m -53 0 l -47 22 l 60 74 l 407 446 l 196 849 l 122 894 l 126 917 l 529 917 l 525 894 l 407 846 l 406 839 l 558 556 l 818 839 l 819 844 l 724 894 l 728 917 l 1024 917 l 1019 894 l 928 847 l 593 490 l 817 76 l 901 22 l 897 0 l 489 0 l 492 22 l 601 71 l 601 76 l 442 379 l 167 79 l 163 74 l 261 22 l 257 0 l -53 0 z "},"Ц":{"ha":1068,"x_min":-19,"x_max":1076,"o":"m 789 0 l -19 0 l -15 22 l 100 79 l 235 838 l 132 894 l 136 917 l 536 917 l 532 894 l 425 838 l 289 74 l 632 74 l 767 838 l 672 894 l 676 917 l 1076 917 l 1072 894 l 958 838 l 822 74 l 953 74 l 897 -239 l 875 -239 l 789 0 z "},"Ч":{"ha":1032,"x_min":111,"x_max":1051,"o":"m 496 0 l 500 22 l 607 79 l 667 417 q 570 385 622 399 q 458 372 518 372 q 230 444 304 372 q 183 676 156 515 l 211 838 l 111 894 l 115 917 l 515 917 l 511 894 l 403 838 l 372 672 q 388 511 351 558 q 519 464 424 464 q 601 469 561 464 q 681 490 640 475 l 742 838 l 647 894 l 651 917 l 1051 917 l 1047 894 l 932 838 l 797 79 l 900 22 l 896 0 l 496 0 z "},"Ш":{"ha":1481,"x_min":-19,"x_max":1500,"o":"m 536 917 l 532 894 l 425 838 l 289 74 l 578 74 l 714 838 l 614 894 l 618 917 l 1018 917 l 1014 894 l 904 838 l 768 74 l 1056 74 l 1190 838 l 1096 894 l 1100 917 l 1500 917 l 1496 894 l 1382 838 l 1247 79 l 1349 22 l 1344 0 l -19 0 l -15 22 l 100 79 l 235 838 l 132 894 l 136 917 l 536 917 z "},"Щ":{"ha":1492,"x_min":-19,"x_max":1500,"o":"m 536 917 l 532 894 l 425 838 l 289 74 l 578 74 l 714 838 l 614 894 l 618 917 l 1018 917 l 1014 894 l 904 838 l 768 74 l 1056 74 l 1190 838 l 1096 894 l 1100 917 l 1500 917 l 1496 894 l 1382 838 l 1246 74 l 1378 74 l 1322 -239 l 1300 -239 l 1214 0 l -19 0 l -15 22 l 100 79 l 235 838 l 132 894 l 136 917 l 536 917 z "},"Ъ":{"ha":1035,"x_min":74,"x_max":982,"o":"m 701 917 l 697 894 l 567 838 l 515 546 l 613 546 q 885 482 788 546 q 982 294 982 418 q 928 143 982 210 q 776 38 874 76 q 547 0 678 0 l 122 0 l 126 22 l 242 81 l 376 843 l 247 843 l 96 611 l 74 611 l 128 917 l 701 917 m 432 74 l 526 74 q 715 137 650 74 q 781 294 781 200 q 726 431 781 389 q 568 472 672 472 l 501 472 l 432 74 z "},"Ы":{"ha":1418,"x_min":-19,"x_max":1438,"o":"m 136 917 l 560 917 l 556 894 l 424 838 l 372 546 l 469 546 q 743 482 646 546 q 840 294 840 418 q 786 143 840 210 q 634 38 732 76 q 406 0 536 0 l -19 0 l -15 22 l 99 81 l 233 838 l 132 894 l 136 917 m 289 74 l 383 74 q 573 137 508 74 q 638 294 638 200 q 584 431 638 389 q 426 472 531 472 l 360 472 l 289 74 m 872 0 l 876 22 l 990 79 l 1125 838 l 1024 894 l 1028 917 l 1438 917 l 1433 894 l 1315 838 l 1182 79 l 1285 22 l 1281 0 l 872 0 z "},"Ь":{"ha":892,"x_min":-19,"x_max":840,"o":"m 136 917 l 560 917 l 556 894 l 424 838 l 372 546 l 469 546 q 743 482 646 546 q 840 294 840 418 q 786 143 840 210 q 634 38 732 76 q 406 0 536 0 l -19 0 l -15 22 l 99 81 l 233 838 l 132 894 l 136 917 m 289 74 l 383 74 q 573 137 508 74 q 638 294 638 200 q 584 431 638 389 q 426 472 531 472 l 360 472 l 289 74 z "},"Э":{"ha":926,"x_min":53,"x_max":860,"o":"m 350 628 l 408 511 l 658 511 q 660 553 660 532 q 601 783 660 704 q 444 861 543 861 q 372 848 407 861 q 301 814 336 835 l 150 624 l 126 624 l 182 858 q 314 910 239 890 q 474 931 389 931 q 678 883 592 931 q 813 752 765 836 q 860 556 860 668 q 817 336 860 439 q 697 154 774 233 q 519 31 619 75 q 304 -14 419 -14 q 161 3 215 -14 q 53 53 107 21 l 81 313 l 106 313 l 194 93 q 248 61 219 71 q 322 51 276 51 q 481 102 413 51 q 592 240 549 153 q 651 438 636 328 l 394 438 l 296 318 l 274 318 l 328 628 l 350 628 z "},"Ю":{"ha":1461,"x_min":-19,"x_max":1394,"o":"m -19 0 l -15 22 l 99 79 l 233 838 l 132 894 l 136 917 l 538 917 l 533 894 l 424 838 l 367 510 l 494 510 q 595 724 522 629 q 774 875 668 819 q 1007 931 881 931 q 1216 881 1129 931 q 1349 741 1303 831 q 1394 535 1394 651 q 1356 325 1394 424 q 1247 150 1318 226 q 1080 30 1176 74 q 867 -14 983 -14 q 658 36 744 -14 q 526 176 572 86 q 481 382 481 265 q 483 436 481 410 l 353 436 l 290 79 l 385 22 l 381 0 l -19 0 m 893 56 q 1015 95 960 56 q 1110 203 1071 135 q 1172 363 1150 272 q 1193 553 1193 453 q 1142 776 1193 690 q 985 861 1090 861 q 865 822 919 861 q 769 715 810 783 q 706 556 729 646 q 683 365 683 467 q 708 205 683 275 q 781 95 733 135 q 893 56 828 56 z "},"Я":{"ha":994,"x_min":-54,"x_max":1015,"o":"m 222 0 l -54 0 l -50 22 l 58 78 l 364 424 q 222 498 271 444 q 172 633 172 551 q 225 782 172 718 q 375 881 278 846 q 607 917 472 917 l 1015 917 l 1011 894 l 896 836 l 763 79 l 863 22 l 858 0 l 444 0 l 449 22 l 571 79 l 626 397 l 549 397 l 222 0 m 586 467 l 639 467 l 706 843 l 628 843 q 438 783 503 843 q 374 633 374 724 q 427 506 374 546 q 586 467 481 467 z "},"Ґ":{"ha":810,"x_min":-19,"x_max":851,"o":"m -19 0 l -15 22 l 103 79 l 236 838 l 138 894 l 142 917 l 656 917 l 829 1156 l 851 1156 l 797 843 l 429 843 l 293 79 l 428 22 l 424 0 l -19 0 z "},"Қ":{"ha":1029,"x_min":-19,"x_max":992,"o":"m -19 0 l -15 22 l 103 79 l 236 838 l 138 894 l 142 917 l 551 917 l 546 894 l 428 838 l 293 79 l 394 22 l 389 0 l -19 0 m 650 0 l 364 464 l 776 846 l 689 894 l 693 917 l 992 917 l 986 894 l 901 861 l 535 528 l 832 74 l 957 74 l 901 -239 l 879 -239 l 793 0 l 650 0 z "},"Җ":{"ha":1488,"x_min":-71,"x_max":1456,"o":"m 450 0 l 453 22 l 574 79 l 706 838 l 607 894 l 610 917 l 1021 917 l 1017 894 l 897 838 l 764 79 l 864 22 l 860 0 l 450 0 m 1114 0 l 833 464 l 1240 846 l 1151 894 l 1156 917 l 1456 917 l 1450 894 l 1365 861 l 1003 526 l 1292 74 l 1418 74 l 1363 -239 l 1340 -239 l 1254 0 l 1114 0 m 194 0 l -71 0 l -67 22 l 31 72 l 485 542 l 263 853 l 164 894 l 167 917 l 475 917 l 471 894 l 371 849 l 638 464 l 194 0 z "},"Ҳ":{"ha":1024,"x_min":-53,"x_max":1024,"o":"m -53 0 l -47 22 l 60 74 l 407 446 l 196 849 l 122 894 l 126 917 l 529 917 l 525 894 l 407 846 l 406 839 l 558 556 l 818 839 l 819 844 l 724 894 l 728 917 l 1024 917 l 1019 894 l 928 847 l 594 490 l 819 74 l 946 74 l 890 -239 l 868 -239 l 782 0 l 489 0 l 492 22 l 601 71 l 601 76 l 442 379 l 167 79 l 163 74 l 261 22 l 257 0 l -53 0 z "},"Ң":{"ha":1082,"x_min":-19,"x_max":1090,"o":"m -19 0 l -15 22 l 99 79 l 233 838 l 132 894 l 136 917 l 538 917 l 533 894 l 424 838 l 367 510 l 722 510 l 781 838 l 686 894 l 690 917 l 1090 917 l 1086 894 l 971 838 l 835 74 l 967 74 l 911 -239 l 889 -239 l 803 0 l 535 0 l 539 22 l 646 79 l 710 436 l 353 436 l 290 79 l 385 22 l 381 0 l -19 0 z "},"Ҷ":{"ha":1056,"x_min":124,"x_max":1064,"o":"m 508 0 l 513 22 l 619 79 l 679 417 q 583 385 635 399 q 471 372 531 372 q 242 444 317 372 q 196 676 168 515 l 225 838 l 124 894 l 128 917 l 528 917 l 524 894 l 415 838 l 385 672 q 400 511 364 558 q 532 464 436 464 q 613 469 574 464 q 693 490 653 475 l 754 838 l 660 894 l 664 917 l 1064 917 l 1060 894 l 944 838 l 808 74 l 944 74 l 889 -239 l 867 -239 l 781 0 l 508 0 z "},"Ү":{"ha":953,"x_min":101,"x_max":1032,"o":"m 204 0 l 208 22 l 332 79 l 393 426 l 175 847 l 101 894 l 107 917 l 493 917 l 488 894 l 376 847 l 375 842 l 556 500 l 829 840 l 831 846 l 735 894 l 740 917 l 1032 917 l 1028 894 l 939 853 l 585 431 l 522 79 l 628 22 l 624 0 l 204 0 z "},"Ұ":{"ha":953,"x_min":101,"x_max":1032,"o":"m 204 0 l 208 22 l 332 79 l 381 354 l 176 354 l 190 428 l 393 428 l 175 847 l 101 894 l 107 917 l 493 917 l 488 894 l 376 847 l 375 842 l 556 500 l 829 840 l 831 846 l 735 894 l 740 917 l 1032 917 l 1028 894 l 939 853 l 585 431 l 583 428 l 788 428 l 775 354 l 571 354 l 522 79 l 628 22 l 624 0 l 204 0 z "},"Һ":{"ha":1032,"x_min":31,"x_max":971,"o":"m 586 917 l 582 894 l 475 838 l 415 500 q 512 531 460 518 q 624 544 564 544 q 852 473 778 544 q 899 240 926 401 l 871 79 l 971 22 l 967 0 l 567 0 l 571 22 l 679 79 l 710 244 q 694 406 731 358 q 563 453 658 453 q 481 447 521 453 q 401 426 442 442 l 340 79 l 435 22 l 431 0 l 31 0 l 35 22 l 150 79 l 285 838 l 182 894 l 186 917 l 586 917 z "},"Ӏ":{"ha":525,"x_min":-19,"x_max":546,"o":"m -19 0 l -15 22 l 99 79 l 233 838 l 132 894 l 136 917 l 546 917 l 542 894 l 424 838 l 290 79 l 393 22 l 389 0 l -19 0 z "},"Ә":{"ha":903,"x_min":54,"x_max":849,"o":"m 360 -12 q 133 69 211 -12 q 54 299 54 150 q 56 351 54 324 q 61 406 57 378 l 72 415 l 647 415 q 654 525 654 468 q 594 726 654 653 q 401 799 533 799 q 251 768 317 799 q 117 679 186 738 l 111 679 l 119 728 q 277 874 179 817 q 493 931 375 931 q 756 836 663 931 q 849 582 849 742 q 813 349 849 457 q 710 160 776 240 q 555 33 644 79 q 360 -12 465 -12 m 238 283 q 272 117 238 172 q 389 63 306 63 q 545 140 482 63 q 636 342 608 217 l 240 342 q 239 312 240 326 q 238 283 238 297 z "},"Ө":{"ha":1075,"x_min":67,"x_max":1008,"o":"m 467 -14 q 251 36 340 -14 q 114 176 161 86 q 67 382 67 265 q 108 593 67 494 q 222 768 149 692 q 394 888 296 844 q 607 931 492 931 q 823 881 733 931 q 960 741 913 831 q 1008 535 1008 651 q 969 325 1008 424 q 857 150 929 226 q 685 30 785 74 q 467 -14 586 -14 m 585 861 q 450 815 511 861 q 345 690 389 769 q 283 510 301 611 l 806 510 q 807 553 807 531 q 751 776 807 690 q 585 861 696 861 m 493 56 q 636 106 572 56 q 742 243 700 157 q 799 436 783 329 l 272 436 q 269 365 269 401 q 296 205 269 275 q 372 95 322 135 q 493 56 422 56 z "},"Ѣ":{"ha":1033,"x_min":42,"x_max":972,"o":"m 203 688 l 64 521 l 42 521 l 85 761 l 349 761 l 363 838 l 254 894 l 258 917 l 721 917 l 717 894 l 568 838 l 554 761 l 863 761 l 821 521 l 799 521 l 718 688 l 542 688 l 504 474 l 608 474 q 876 420 781 474 q 972 260 972 367 q 919 127 972 186 q 769 34 865 68 q 543 0 672 0 l 101 0 l 106 22 l 228 79 l 336 688 l 203 688 m 435 74 l 522 74 q 708 127 644 74 q 771 260 771 181 q 719 367 771 335 q 564 400 667 400 l 492 400 l 435 74 z "},"Ѳ":{"ha":1075,"x_min":67,"x_max":1008,"o":"m 467 -14 q 251 36 340 -14 q 114 176 161 86 q 67 382 67 265 q 108 593 67 494 q 222 768 149 692 q 394 888 296 844 q 607 931 492 931 q 823 881 733 931 q 960 741 913 831 q 1008 535 1008 651 q 969 325 1008 424 q 857 150 929 226 q 685 30 785 74 q 467 -14 586 -14 m 585 861 q 444 811 507 861 q 337 675 381 761 q 278 479 293 589 q 408 533 350 521 q 513 541 465 546 q 599 524 560 536 q 674 500 639 511 q 740 488 708 489 q 806 508 772 488 q 807 553 807 531 q 751 776 807 690 q 585 861 696 861 m 493 56 q 638 108 574 56 q 744 248 703 160 q 800 446 786 336 q 681 389 733 403 q 584 380 628 375 q 502 398 540 385 q 428 424 464 411 q 353 437 392 436 q 271 417 315 438 q 269 365 269 392 q 296 205 269 275 q 372 95 322 135 q 493 56 422 56 z "},"Ѵ":{"ha":1047,"x_min":99,"x_max":1094,"o":"m 810 599 l 468 -7 l 369 -7 l 179 844 l 99 894 l 104 917 l 494 917 l 489 894 l 376 846 l 510 233 l 521 233 l 725 617 q 769 695 744 651 q 824 781 794 739 q 883 853 853 822 q 969 913 928 896 q 1050 931 1010 931 q 1088 922 1081 931 q 1090 890 1094 914 l 1072 783 l 1064 776 l 1036 776 q 949 763 983 776 q 883 710 914 749 q 810 599 853 672 z "},"ȷ":{"ha":406,"x_min":-107,"x_max":339,"o":"m -107 -319 l -107 -294 q -28 -230 -58 -261 q 21 -149 3 -199 q 53 -14 39 -100 l 140 535 l 44 581 l 44 597 l 335 647 l 339 647 l 238 33 q 135 -172 219 -87 q -107 -319 51 -257 z "},"ĸ":{"ha":725,"x_min":33,"x_max":706,"o":"m 40 0 l 133 533 l 33 581 l 33 597 l 328 647 l 332 647 l 283 367 q 448 533 383 471 q 555 621 513 594 q 626 647 597 647 q 655 644 643 647 q 674 635 667 640 q 685 622 681 629 q 690 606 690 615 q 688 594 690 603 l 651 503 l 646 501 l 624 510 q 599 517 614 514 q 561 521 583 521 q 479 492 519 521 l 418 443 l 547 174 q 576 126 563 143 q 607 110 589 110 q 646 132 629 110 q 681 208 663 154 l 706 200 q 633 36 675 86 q 531 -14 592 -14 q 440 23 469 -14 q 389 113 411 60 l 282 358 l 282 360 l 219 0 l 40 0 z "},"ẗ":{"ha":478,"x_min":49,"x_max":547,"o":"m 207 -14 q 104 25 140 -14 q 68 139 68 64 q 70 169 68 153 q 74 204 72 186 l 139 572 l 49 572 l 53 592 l 201 661 l 328 781 l 353 781 l 328 633 l 496 633 l 496 572 l 317 572 l 260 249 q 254 213 256 225 q 253 190 253 200 q 301 128 253 128 q 366 158 333 128 q 426 256 399 188 l 453 246 q 349 53 411 119 q 207 -14 286 -14 m 214 922 q 161 944 182 922 q 140 996 140 967 q 161 1048 140 1026 q 214 1069 182 1069 q 266 1048 244 1069 q 288 996 288 1026 q 266 944 288 967 q 214 922 244 922 m 475 922 q 422 944 443 922 q 401 996 401 967 q 422 1048 401 1026 q 475 1069 443 1069 q 526 1048 506 1069 q 547 996 547 1026 q 526 944 547 967 q 475 922 506 922 z "},"a":{"ha":881,"x_min":-46,"x_max":779,"o":"m -46 0 l -42 22 l 31 63 l 450 785 l 551 785 l 707 71 l 779 22 l 775 0 l 411 0 l 415 22 l 517 67 l 476 257 l 226 257 l 117 64 l 201 22 l 196 0 l -46 0 m 265 324 l 461 324 l 408 574 l 265 324 z "},"b":{"ha":794,"x_min":-19,"x_max":733,"o":"m -19 0 l -15 22 l 88 79 l 197 699 l 114 756 l 118 778 l 468 778 q 659 736 586 778 q 732 610 732 694 q 678 487 732 540 q 526 417 624 433 q 681 358 629 403 q 733 242 733 313 q 694 126 733 181 q 578 35 656 71 q 386 0 501 0 l -19 0 m 413 707 l 383 707 l 335 436 l 374 436 q 500 481 457 436 q 543 599 543 526 q 513 679 543 651 q 413 707 483 707 m 381 369 l 322 369 l 269 71 l 350 71 q 494 122 447 71 q 540 242 540 172 q 503 338 540 306 q 381 369 465 369 z "},"c":{"ha":833,"x_min":67,"x_max":775,"o":"m 417 -14 q 230 27 308 -14 q 109 141 151 68 q 67 310 67 214 q 104 493 67 406 q 209 648 142 581 q 366 754 276 715 q 560 793 456 793 q 681 778 633 793 q 775 736 728 764 l 751 507 l 728 507 l 651 690 q 608 716 632 707 q 550 725 585 725 q 395 667 461 725 q 292 512 329 610 q 256 296 256 414 q 308 120 256 185 q 449 56 360 56 q 581 92 525 56 l 714 256 l 736 256 l 686 50 q 569 3 639 21 q 417 -14 500 -14 z "},"d":{"ha":904,"x_min":-19,"x_max":864,"o":"m -19 0 l -15 22 l 86 79 l 196 699 l 115 756 l 119 778 l 463 778 q 683 736 594 778 q 818 619 772 694 q 864 447 864 544 q 799 213 864 314 q 622 56 735 113 q 361 0 508 0 l -19 0 m 417 707 l 383 707 l 268 68 l 351 68 q 525 116 453 68 q 636 250 597 164 q 675 450 675 336 q 609 638 675 569 q 417 707 543 707 z "},"e":{"ha":769,"x_min":-19,"x_max":738,"o":"m -19 0 l -15 22 l 89 79 l 199 699 l 115 756 l 119 778 l 738 778 l 701 574 l 679 574 l 628 707 l 385 707 l 336 435 l 501 435 l 585 532 l 607 532 l 560 271 l 536 271 l 490 371 l 325 371 l 271 71 l 544 71 l 658 242 l 681 242 l 638 0 l -19 0 z "},"f":{"ha":726,"x_min":-19,"x_max":736,"o":"m -19 0 l -15 22 l 89 79 l 199 699 l 115 756 l 119 778 l 736 778 l 700 574 l 678 574 l 624 707 l 385 707 l 336 435 l 488 435 l 571 532 l 593 532 l 544 271 l 522 271 l 476 371 l 325 371 l 272 79 l 381 22 l 376 0 l -19 0 z "},"g":{"ha":871,"x_min":67,"x_max":825,"o":"m 406 -14 q 226 26 303 -14 q 108 138 150 67 q 67 306 67 210 q 107 497 67 408 q 217 651 147 585 q 376 756 286 718 q 564 793 465 793 q 698 778 644 793 q 803 736 751 764 l 778 525 l 754 525 l 683 686 q 633 714 658 706 q 569 722 608 722 q 406 664 476 722 q 295 509 335 606 q 256 297 256 413 q 308 121 256 186 q 442 56 360 56 q 508 65 472 56 l 546 275 l 458 332 l 463 353 l 825 353 l 821 332 l 729 275 l 693 74 q 567 10 640 35 q 406 -14 494 -14 z "},"h":{"ha":932,"x_min":-19,"x_max":951,"o":"m -19 0 l -15 22 l 83 79 l 193 699 l 110 756 l 114 778 l 476 778 l 472 756 l 376 699 l 331 436 l 617 436 l 664 699 l 586 756 l 590 778 l 951 778 l 947 756 l 847 699 l 736 79 l 822 22 l 818 0 l 456 0 l 460 22 l 553 79 l 604 368 l 318 368 l 267 79 l 349 22 l 344 0 l -19 0 z "},"i":{"ha":463,"x_min":-19,"x_max":482,"o":"m -19 0 l -15 22 l 85 79 l 193 699 l 110 756 l 114 778 l 482 778 l 478 756 l 376 699 l 268 79 l 354 22 l 350 0 l -19 0 z "},"ı":{"ha":463,"x_min":-19,"x_max":482,"o":"m -19 0 l -15 22 l 85 79 l 193 699 l 110 756 l 114 778 l 482 778 l 478 756 l 376 699 l 268 79 l 354 22 l 350 0 l -19 0 z "},"j":{"ha":457,"x_min":-124,"x_max":481,"o":"m -58 -204 q -106 -151 -124 -204 l -83 -81 l -76 -81 q -19 -94 -47 -94 q 26 -82 6 -94 q 61 -31 46 -69 q 90 86 76 8 l 197 699 l 107 756 l 111 778 l 481 778 l 476 756 l 381 699 l 308 286 q 233 56 285 153 q 119 -101 181 -42 q 18 -183 58 -162 q -58 -204 -22 -204 z "},"k":{"ha":874,"x_min":-19,"x_max":865,"o":"m -19 0 l -15 22 l 88 79 l 197 699 l 114 756 l 118 778 l 489 778 l 485 756 l 381 699 l 271 79 l 356 22 l 350 0 l -19 0 m 551 0 l 331 393 l 658 711 l 589 756 l 593 778 l 865 778 l 860 756 l 774 717 l 492 454 l 715 75 l 794 22 l 792 0 l 551 0 z "},"l":{"ha":719,"x_min":-19,"x_max":649,"o":"m -19 0 l -15 22 l 88 79 l 197 699 l 114 756 l 119 778 l 500 778 l 496 756 l 381 699 l 269 71 l 490 71 l 626 279 l 649 279 l 596 0 l -19 0 z "},"m":{"ha":1132,"x_min":-19,"x_max":1126,"o":"m -19 0 l -15 22 l 88 81 l 219 701 l 128 756 l 132 778 l 429 778 l 550 261 l 839 778 l 1126 778 l 1122 756 l 1019 701 l 949 81 l 1022 22 l 1018 0 l 665 0 l 669 22 l 765 79 l 826 596 l 483 -6 l 422 -6 l 279 610 l 169 81 l 256 22 l 251 0 l -19 0 z "},"n":{"ha":917,"x_min":-15,"x_max":939,"o":"m -15 0 l -11 22 l 93 81 l 204 706 l 119 758 l 124 778 l 350 778 l 667 254 l 744 700 l 631 757 l 633 778 l 939 778 l 936 757 l 832 700 l 707 -6 l 617 -6 l 267 568 l 181 79 l 296 22 l 293 0 l -15 0 z "},"o":{"ha":944,"x_min":67,"x_max":878,"o":"m 414 -14 q 231 28 308 -14 q 110 147 153 71 q 67 325 67 222 q 100 501 67 417 q 194 651 133 585 q 341 755 256 717 q 531 793 426 793 q 714 751 636 793 q 835 632 792 708 q 878 454 878 556 q 844 280 878 364 q 750 130 811 196 q 603 25 689 64 q 414 -14 518 -14 m 428 57 q 565 115 507 57 q 656 265 624 172 q 688 468 688 358 q 671 598 688 540 q 617 690 654 656 q 521 724 581 724 q 415 690 463 724 q 332 599 367 657 q 278 467 297 542 q 258 311 258 393 q 275 181 258 239 q 329 90 292 124 q 428 57 367 57 z "},"p":{"ha":764,"x_min":-19,"x_max":761,"o":"m -19 0 l -15 22 l 88 79 l 197 699 l 115 756 l 119 778 l 465 778 q 761 592 761 778 q 719 466 761 522 q 594 376 678 410 q 386 342 511 342 l 318 342 l 271 79 l 374 22 l 369 0 l -19 0 m 383 707 l 329 406 l 382 406 q 522 457 478 406 q 567 588 567 508 q 425 707 567 707 l 383 707 z "},"q":{"ha":946,"x_min":67,"x_max":942,"o":"m 763 -207 q 640 -191 710 -207 q 490 -131 571 -175 q 322 -4 408 -87 q 135 108 203 21 q 67 325 67 196 q 100 501 67 417 q 194 651 133 585 q 341 755 256 717 q 531 793 426 793 q 714 751 636 793 q 835 632 792 708 q 878 454 878 556 q 837 262 878 354 q 721 101 796 169 q 543 3 646 32 q 674 -92 621 -60 q 770 -137 726 -125 q 864 -149 814 -149 q 907 -145 886 -149 q 942 -136 928 -142 l 933 -169 q 858 -197 903 -186 q 763 -207 814 -207 m 428 57 q 565 115 507 57 q 656 265 624 172 q 688 468 688 358 q 671 598 688 540 q 617 690 654 656 q 521 724 581 724 q 415 690 463 724 q 332 599 367 657 q 278 467 297 542 q 258 311 258 393 q 275 181 258 239 q 329 90 292 124 q 428 57 367 57 z "},"r":{"ha":842,"x_min":-19,"x_max":764,"o":"m -19 0 l -17 22 l 88 79 l 197 699 l 114 756 l 118 778 l 453 778 q 656 731 583 778 q 729 601 729 685 q 681 476 729 528 q 550 396 632 425 l 688 78 l 764 22 l 760 0 l 517 0 l 378 358 l 319 358 l 269 79 l 350 22 l 347 0 l -19 0 m 417 707 l 381 707 l 331 422 l 389 422 q 502 472 461 422 q 543 592 543 521 q 417 707 543 707 z "},"s":{"ha":638,"x_min":8,"x_max":608,"o":"m 240 -14 q 110 1 165 -14 q 8 46 56 17 l 31 247 l 53 247 l 113 100 q 165 67 133 81 q 240 53 197 53 q 351 86 310 53 q 392 176 392 119 q 376 239 392 214 q 326 288 360 264 q 236 346 292 311 q 139 429 169 386 q 108 544 108 472 q 149 672 108 615 q 257 760 189 728 q 410 793 325 793 q 608 739 526 793 l 588 542 l 565 542 l 507 685 q 465 713 489 701 q 406 725 442 725 q 315 693 353 725 q 278 606 278 661 q 304 533 278 564 q 394 465 331 503 q 519 369 479 415 q 560 244 560 322 q 517 113 560 171 q 403 20 475 54 q 240 -14 331 -14 z "},"t":{"ha":786,"x_min":79,"x_max":831,"o":"m 133 0 l 136 22 l 263 79 l 374 707 l 222 707 l 101 518 l 79 518 l 124 778 l 831 778 l 788 518 l 765 518 l 708 707 l 558 707 l 446 79 l 553 22 l 549 0 l 133 0 z "},"u":{"ha":957,"x_min":143,"x_max":986,"o":"m 450 -14 q 229 51 306 -14 q 153 244 153 117 q 156 288 153 265 q 163 335 158 310 l 228 699 l 143 756 l 147 778 l 518 778 l 514 756 l 410 699 l 343 319 q 338 282 340 300 q 336 249 336 264 q 380 121 336 163 q 504 79 424 79 q 655 136 601 79 q 726 299 708 193 l 797 700 l 704 756 l 708 778 l 986 778 l 983 756 l 879 699 l 815 328 q 689 65 783 144 q 450 -14 594 -14 z "},"v":{"ha":844,"x_min":99,"x_max":913,"o":"m 321 -6 l 169 710 l 99 756 l 103 778 l 465 778 l 463 756 l 361 710 l 461 221 l 472 221 l 751 714 l 665 756 l 669 778 l 913 778 l 908 756 l 838 718 l 422 -6 l 321 -6 z "},"w":{"ha":1153,"x_min":99,"x_max":1232,"o":"m 256 -6 l 172 711 l 99 757 l 103 778 l 468 778 l 467 757 l 364 707 l 408 276 l 418 276 l 675 785 l 778 785 l 867 276 l 875 276 l 1063 711 l 975 757 l 979 778 l 1232 778 l 1228 757 l 1149 714 l 828 -6 l 724 -6 l 636 525 l 626 525 l 360 -6 l 256 -6 z "},"x":{"ha":861,"x_min":-53,"x_max":894,"o":"m -53 0 l -49 22 l 50 71 l 346 378 l 169 711 l 100 756 l 106 778 l 479 778 l 475 756 l 378 713 l 376 706 l 494 485 l 704 708 l 706 714 l 625 756 l 628 778 l 894 778 l 890 756 l 810 717 l 528 422 l 715 69 l 789 22 l 786 0 l 415 0 l 419 22 l 508 67 l 510 71 l 381 314 l 154 74 l 151 68 l 232 22 l 228 0 l -53 0 z "},"y":{"ha":840,"x_min":101,"x_max":919,"o":"m 189 0 l 193 22 l 303 79 l 351 363 l 165 717 l 101 756 l 106 778 l 464 778 l 458 756 l 368 714 l 367 710 l 511 436 l 733 708 l 735 713 l 656 756 l 660 778 l 919 778 l 917 756 l 836 717 l 538 364 l 486 79 l 574 22 l 569 0 l 189 0 z "},"z":{"ha":754,"x_min":11,"x_max":739,"o":"m 11 0 l 18 43 l 507 707 l 256 707 l 136 536 l 114 536 l 158 778 l 739 778 l 731 735 l 243 71 l 517 71 l 640 253 l 663 253 l 615 0 l 11 0 z "},"à":{"ha":881,"x_min":-46,"x_max":779,"o":"m -46 0 l -42 22 l 31 63 l 450 785 l 551 785 l 707 71 l 779 22 l 775 0 l 411 0 l 415 22 l 517 67 l 476 257 l 226 257 l 117 64 l 201 22 l 196 0 l -46 0 m 265 324 l 461 324 l 408 574 l 265 324 m 501 882 l 303 1040 q 273 1085 275 1063 q 274 1128 271 1107 l 408 1128 l 529 882 l 501 882 z "},"á":{"ha":881,"x_min":-46,"x_max":785,"o":"m -46 0 l -42 22 l 31 63 l 450 785 l 551 785 l 707 71 l 779 22 l 775 0 l 411 0 l 415 22 l 517 67 l 476 257 l 226 257 l 117 64 l 201 22 l 196 0 l -46 0 m 265 324 l 461 324 l 408 574 l 265 324 m 501 882 l 636 1128 l 785 1128 q 769 1087 781 1107 q 725 1040 757 1067 l 528 882 l 501 882 z "},"â":{"ha":881,"x_min":-46,"x_max":779,"o":"m -46 0 l -42 22 l 31 63 l 450 785 l 551 785 l 707 71 l 779 22 l 775 0 l 411 0 l 415 22 l 517 67 l 476 257 l 226 257 l 117 64 l 201 22 l 196 0 l -46 0 m 265 324 l 461 324 l 408 574 l 265 324 m 303 882 l 528 1128 l 589 1128 l 719 882 l 693 882 l 538 1007 l 329 882 l 303 882 z "},"ã":{"ha":881,"x_min":-46,"x_max":779,"o":"m -46 0 l -42 22 l 31 63 l 450 785 l 551 785 l 707 71 l 779 22 l 775 0 l 411 0 l 415 22 l 517 67 l 476 257 l 226 257 l 117 64 l 201 22 l 196 0 l -46 0 m 265 324 l 461 324 l 408 574 l 265 324 m 304 910 q 368 1033 342 993 q 418 1086 394 1074 q 469 1099 442 1099 q 520 1085 497 1099 q 563 1054 543 1072 q 603 1023 583 1036 q 647 1010 624 1010 q 688 1025 669 1010 q 738 1099 706 1040 l 768 1099 q 704 975 731 1015 q 654 922 678 935 q 601 910 631 910 q 551 923 574 910 q 509 954 529 936 q 468 985 489 972 q 425 999 447 999 q 385 983 403 999 q 335 910 367 968 l 304 910 z "},"ä":{"ha":881,"x_min":-46,"x_max":779,"o":"m -46 0 l -42 22 l 31 63 l 450 785 l 551 785 l 707 71 l 779 22 l 775 0 l 411 0 l 415 22 l 517 67 l 476 257 l 226 257 l 117 64 l 201 22 l 196 0 l -46 0 m 265 324 l 461 324 l 408 574 l 265 324 m 406 929 q 353 951 374 929 q 332 1003 332 974 q 353 1055 332 1033 q 406 1076 374 1076 q 458 1055 436 1076 q 479 1003 479 1033 q 458 951 479 974 q 406 929 436 929 m 667 929 q 614 951 635 929 q 593 1003 593 974 q 614 1055 593 1033 q 667 1076 635 1076 q 718 1055 697 1076 q 739 1003 739 1033 q 718 951 739 974 q 667 929 697 929 z "},"ā":{"ha":881,"x_min":-46,"x_max":779,"o":"m -46 0 l -42 22 l 31 63 l 450 785 l 551 785 l 707 71 l 779 22 l 775 0 l 411 0 l 415 22 l 517 67 l 476 257 l 226 257 l 117 64 l 201 22 l 196 0 l -46 0 m 265 324 l 461 324 l 408 574 l 265 324 m 331 963 l 344 1043 l 742 1043 l 726 963 l 331 963 z "},"ă":{"ha":881,"x_min":-46,"x_max":779,"o":"m -46 0 l -42 22 l 31 63 l 450 785 l 551 785 l 707 71 l 779 22 l 775 0 l 411 0 l 415 22 l 517 67 l 476 257 l 226 257 l 117 64 l 201 22 l 196 0 l -46 0 m 265 324 l 461 324 l 408 574 l 265 324 m 518 896 q 381 954 419 896 q 340 1128 343 1013 l 367 1128 q 402 1042 381 1071 q 456 1005 424 1014 q 533 996 489 996 q 614 1006 578 996 q 682 1043 650 1015 q 744 1128 714 1071 l 771 1128 q 668 950 728 1004 q 518 896 608 896 z "},"å":{"ha":881,"x_min":-46,"x_max":779,"o":"m -46 0 l -42 22 l 31 63 l 450 785 l 551 785 l 707 71 l 779 22 l 775 0 l 411 0 l 415 22 l 517 67 l 476 257 l 226 257 l 117 64 l 201 22 l 196 0 l -46 0 m 265 324 l 461 324 l 408 574 l 265 324 m 519 886 q 444 915 468 886 q 421 986 421 943 q 458 1082 421 1042 q 554 1122 494 1122 q 628 1094 604 1122 q 653 1022 653 1065 q 617 926 653 967 q 519 886 581 886 m 526 918 q 571 947 554 918 q 588 1022 588 976 q 549 1090 588 1090 q 504 1063 521 1090 q 488 986 488 1035 q 526 918 488 918 z "},"ǻ":{"ha":881,"x_min":-46,"x_max":840,"o":"m -46 0 l -42 22 l 31 63 l 450 785 l 551 785 l 707 71 l 779 22 l 775 0 l 411 0 l 415 22 l 517 67 l 476 257 l 226 257 l 117 64 l 201 22 l 196 0 l -46 0 m 265 324 l 461 324 l 408 574 l 265 324 m 519 886 q 444 915 468 886 q 421 986 421 943 q 458 1082 421 1042 q 554 1122 494 1122 q 628 1094 604 1122 q 653 1022 653 1065 q 617 926 653 967 q 519 886 581 886 m 526 918 q 571 947 554 918 q 588 1022 588 976 q 549 1090 588 1090 q 504 1063 521 1090 q 488 986 488 1035 q 526 918 488 918 m 557 1192 l 692 1438 l 840 1438 q 824 1397 836 1417 q 781 1350 813 1376 l 583 1192 l 557 1192 z "},"ạ":{"ha":881,"x_min":-46,"x_max":779,"o":"m -46 0 l -42 22 l 31 63 l 450 785 l 551 785 l 707 71 l 779 22 l 775 0 l 411 0 l 415 22 l 517 67 l 476 257 l 226 257 l 117 64 l 201 22 l 196 0 l -46 0 m 265 324 l 461 324 l 408 574 l 265 324 m 281 -307 q 213 -280 240 -307 q 185 -212 185 -253 q 213 -143 185 -171 q 281 -115 240 -115 q 349 -143 322 -115 q 376 -212 376 -171 q 349 -280 376 -253 q 281 -307 322 -307 z "},"ą":{"ha":881,"x_min":-46,"x_max":779,"o":"m -46 0 l -42 22 l 31 63 l 450 785 l 551 785 l 707 71 l 779 22 l 775 0 l 629 0 q 579 -93 599 -46 q 560 -186 560 -140 q 636 -261 560 -261 q 667 -256 650 -261 q 699 -239 685 -250 l 703 -239 l 697 -265 q 644 -315 676 -297 q 569 -333 613 -333 q 481 -303 514 -333 q 449 -222 449 -274 q 488 -108 449 -164 q 583 0 526 -53 l 411 0 l 415 22 l 517 67 l 476 257 l 226 257 l 117 64 l 201 22 l 196 0 l -46 0 m 265 324 l 461 324 l 408 574 l 265 324 z "},"ȁ":{"ha":881,"x_min":-46,"x_max":779,"o":"m -46 0 l -42 22 l 31 63 l 450 785 l 551 785 l 707 71 l 779 22 l 775 0 l 411 0 l 415 22 l 517 67 l 476 257 l 226 257 l 117 64 l 201 22 l 196 0 l -46 0 m 265 324 l 461 324 l 408 574 l 265 324 m 588 882 l 431 1043 q 406 1084 411 1064 q 404 1128 400 1104 l 521 1128 l 614 882 l 588 882 m 404 882 l 219 1043 q 192 1083 196 1063 q 192 1128 188 1104 l 308 1128 l 431 882 l 404 882 z "},"ȃ":{"ha":881,"x_min":-46,"x_max":779,"o":"m -46 0 l -42 22 l 31 63 l 450 785 l 551 785 l 707 71 l 779 22 l 775 0 l 411 0 l 415 22 l 517 67 l 476 257 l 226 257 l 117 64 l 201 22 l 196 0 l -46 0 m 265 324 l 461 324 l 408 574 l 265 324 m 307 896 q 410 1074 350 1019 q 560 1128 469 1128 q 697 1069 658 1128 q 738 896 735 1010 l 711 896 q 676 982 697 954 q 622 1019 654 1010 q 544 1028 589 1028 q 464 1018 500 1028 q 396 980 428 1008 q 333 896 364 951 l 307 896 z "},"ắ":{"ha":881,"x_min":-46,"x_max":782,"o":"m -46 0 l -42 22 l 31 63 l 450 785 l 551 785 l 707 71 l 779 22 l 775 0 l 411 0 l 415 22 l 517 67 l 476 257 l 226 257 l 117 64 l 201 22 l 196 0 l -46 0 m 265 324 l 461 324 l 408 574 l 265 324 z "},"ặ":{"ha":881,"x_min":-46,"x_max":779,"o":"m -46 0 l -42 22 l 31 63 l 450 785 l 551 785 l 707 71 l 779 22 l 775 0 l 411 0 l 415 22 l 517 67 l 476 257 l 226 257 l 117 64 l 201 22 l 196 0 l -46 0 m 265 324 l 461 324 l 408 574 l 265 324 m 518 896 q 381 954 419 896 q 340 1128 343 1013 l 367 1128 q 402 1042 381 1071 q 456 1005 424 1014 q 533 996 489 996 q 614 1006 578 996 q 682 1043 650 1015 q 744 1128 714 1071 l 771 1128 q 668 950 728 1004 q 518 896 608 896 m 281 -307 q 213 -280 240 -307 q 185 -212 185 -253 q 213 -143 185 -171 q 281 -115 240 -115 q 349 -143 322 -115 q 376 -212 376 -171 q 349 -280 376 -253 q 281 -307 322 -307 z "},"ằ":{"ha":881,"x_min":-46,"x_max":779,"o":"m -46 0 l -42 22 l 31 63 l 450 785 l 551 785 l 707 71 l 779 22 l 775 0 l 411 0 l 415 22 l 517 67 l 476 257 l 226 257 l 117 64 l 201 22 l 196 0 l -46 0 m 265 324 l 461 324 l 408 574 l 265 324 z "},"ẳ":{"ha":881,"x_min":-46,"x_max":779,"o":"m -46 0 l -42 22 l 31 63 l 450 785 l 551 785 l 707 71 l 779 22 l 775 0 l 411 0 l 415 22 l 517 67 l 476 257 l 226 257 l 117 64 l 201 22 l 196 0 l -46 0 m 265 324 l 461 324 l 408 574 l 265 324 z "},"ẵ":{"ha":881,"x_min":-46,"x_max":803,"o":"m -46 0 l -42 22 l 31 63 l 450 785 l 551 785 l 707 71 l 779 22 l 775 0 l 411 0 l 415 22 l 517 67 l 476 257 l 226 257 l 117 64 l 201 22 l 196 0 l -46 0 m 265 324 l 461 324 l 408 574 l 265 324 z "},"ấ":{"ha":881,"x_min":-46,"x_max":919,"o":"m -46 0 l -42 22 l 31 63 l 450 785 l 551 785 l 707 71 l 779 22 l 775 0 l 411 0 l 415 22 l 517 67 l 476 257 l 226 257 l 117 64 l 201 22 l 196 0 l -46 0 m 265 324 l 461 324 l 408 574 l 265 324 m 690 1031 l 781 1229 l 919 1229 q 904 1187 915 1208 q 861 1142 893 1165 l 715 1031 l 690 1031 m 301 882 l 528 1128 l 588 1128 l 719 882 l 693 882 l 536 1007 l 329 882 l 301 882 z "},"ậ":{"ha":881,"x_min":-46,"x_max":779,"o":"m -46 0 l -42 22 l 31 63 l 450 785 l 551 785 l 707 71 l 779 22 l 775 0 l 411 0 l 415 22 l 517 67 l 476 257 l 226 257 l 117 64 l 201 22 l 196 0 l -46 0 m 265 324 l 461 324 l 408 574 l 265 324 m 303 882 l 528 1128 l 589 1128 l 719 882 l 693 882 l 538 1007 l 329 882 l 303 882 m 281 -307 q 213 -280 240 -307 q 185 -212 185 -253 q 213 -143 185 -171 q 281 -115 240 -115 q 349 -143 322 -115 q 376 -212 376 -171 q 349 -280 376 -253 q 281 -307 322 -307 z "},"ầ":{"ha":881,"x_min":-46,"x_max":779,"o":"m -46 0 l -42 22 l 31 63 l 450 785 l 551 785 l 707 71 l 779 22 l 775 0 l 411 0 l 415 22 l 517 67 l 476 257 l 226 257 l 117 64 l 201 22 l 196 0 l -46 0 m 265 324 l 461 324 l 408 574 l 265 324 m 353 1031 l 206 1142 q 168 1182 178 1164 q 163 1229 158 1200 l 292 1229 l 379 1031 l 353 1031 m 301 882 l 528 1128 l 588 1128 l 719 882 l 693 882 l 536 1007 l 329 882 l 301 882 z "},"ẩ":{"ha":881,"x_min":-46,"x_max":779,"o":"m -46 0 l -42 22 l 31 63 l 450 785 l 551 785 l 707 71 l 779 22 l 775 0 l 411 0 l 415 22 l 517 67 l 476 257 l 226 257 l 117 64 l 201 22 l 196 0 l -46 0 m 265 324 l 461 324 l 408 574 l 265 324 z "},"ẫ":{"ha":881,"x_min":-46,"x_max":826,"o":"m -46 0 l -42 22 l 31 63 l 450 785 l 551 785 l 707 71 l 779 22 l 775 0 l 411 0 l 415 22 l 517 67 l 476 257 l 226 257 l 117 64 l 201 22 l 196 0 l -46 0 m 265 324 l 461 324 l 408 574 l 265 324 z "},"ả":{"ha":881,"x_min":-46,"x_max":779,"o":"m -46 0 l -42 22 l 31 63 l 450 785 l 551 785 l 707 71 l 779 22 l 775 0 l 411 0 l 415 22 l 517 67 l 476 257 l 226 257 l 117 64 l 201 22 l 196 0 l -46 0 m 265 324 l 461 324 l 408 574 l 265 324 m 456 899 l 456 900 q 528 932 506 914 q 550 978 550 950 q 531 1016 550 1000 q 468 1042 513 1032 l 500 1128 q 601 1088 571 1119 q 631 1019 631 1056 q 588 933 631 964 q 465 888 544 901 l 456 899 z "},"æ":{"ha":1185,"x_min":-46,"x_max":1154,"o":"m -46 0 l -42 22 l 38 63 l 610 778 l 1154 778 l 1118 574 l 1094 574 l 1043 707 l 800 707 l 751 438 l 918 438 l 1001 535 l 1024 535 l 975 268 l 951 268 l 906 367 l 739 367 l 686 71 l 961 71 l 1074 242 l 1096 242 l 1053 0 l 396 0 l 400 22 l 504 79 l 536 257 l 283 257 l 128 63 l 206 22 l 201 0 l -46 0 m 338 324 l 547 324 l 608 661 l 338 324 z "},"ǽ":{"ha":1185,"x_min":-46,"x_max":1154,"o":"m -46 0 l -42 22 l 38 63 l 610 778 l 1154 778 l 1118 574 l 1094 574 l 1043 707 l 800 707 l 751 438 l 918 438 l 1001 535 l 1024 535 l 975 268 l 951 268 l 906 367 l 739 367 l 686 71 l 961 71 l 1074 242 l 1096 242 l 1053 0 l 396 0 l 400 22 l 504 79 l 536 257 l 283 257 l 128 63 l 206 22 l 201 0 l -46 0 m 338 324 l 547 324 l 608 661 l 338 324 m 736 882 l 871 1128 l 1019 1128 q 1003 1087 1015 1107 q 960 1040 992 1067 l 763 882 l 736 882 z "},"ć":{"ha":833,"x_min":67,"x_max":828,"o":"m 417 -14 q 230 27 308 -14 q 109 141 151 68 q 67 310 67 214 q 104 493 67 406 q 209 648 142 581 q 366 754 276 715 q 560 793 456 793 q 681 778 633 793 q 775 736 728 764 l 751 507 l 728 507 l 651 690 q 608 716 632 707 q 550 725 585 725 q 395 667 461 725 q 292 512 329 610 q 256 296 256 414 q 308 120 256 185 q 449 56 360 56 q 581 92 525 56 l 714 256 l 736 256 l 686 50 q 569 3 639 21 q 417 -14 500 -14 m 544 882 l 679 1128 l 828 1128 q 812 1087 824 1107 q 768 1040 800 1067 l 571 882 l 544 882 z "},"ĉ":{"ha":833,"x_min":67,"x_max":775,"o":"m 417 -14 q 230 27 308 -14 q 109 141 151 68 q 67 310 67 214 q 104 493 67 406 q 209 648 142 581 q 366 754 276 715 q 560 793 456 793 q 681 778 633 793 q 775 736 728 764 l 751 507 l 728 507 l 651 690 q 608 716 632 707 q 550 725 585 725 q 395 667 461 725 q 292 512 329 610 q 256 296 256 414 q 308 120 256 185 q 449 56 360 56 q 581 92 525 56 l 714 256 l 736 256 l 686 50 q 569 3 639 21 q 417 -14 500 -14 m 344 882 l 569 1128 l 631 1128 l 761 882 l 735 882 l 579 1007 l 371 882 l 344 882 z "},"č":{"ha":833,"x_min":67,"x_max":810,"o":"m 417 -14 q 230 27 308 -14 q 109 141 151 68 q 67 310 67 214 q 104 493 67 406 q 209 648 142 581 q 366 754 276 715 q 560 793 456 793 q 681 778 633 793 q 775 736 728 764 l 751 507 l 728 507 l 651 690 q 608 716 632 707 q 550 725 585 725 q 395 667 461 725 q 292 512 329 610 q 256 296 256 414 q 308 120 256 185 q 449 56 360 56 q 581 92 525 56 l 714 256 l 736 256 l 686 50 q 569 3 639 21 q 417 -14 500 -14 m 532 882 l 393 1128 l 419 1128 l 575 1003 l 783 1128 l 810 1128 l 592 882 l 532 882 z "},"ċ":{"ha":833,"x_min":67,"x_max":775,"o":"m 417 -14 q 230 27 308 -14 q 109 141 151 68 q 67 310 67 214 q 104 493 67 406 q 209 648 142 581 q 366 754 276 715 q 560 793 456 793 q 681 778 633 793 q 775 736 728 764 l 751 507 l 728 507 l 651 690 q 608 716 632 707 q 550 725 585 725 q 395 667 461 725 q 292 512 329 610 q 256 296 256 414 q 308 120 256 185 q 449 56 360 56 q 581 92 525 56 l 714 256 l 736 256 l 686 50 q 569 3 639 21 q 417 -14 500 -14 m 576 908 q 508 935 536 908 q 481 1004 481 963 q 508 1074 481 1046 q 576 1101 536 1101 q 646 1074 618 1101 q 674 1004 674 1046 q 646 935 674 963 q 576 908 618 908 z "},"ç":{"ha":833,"x_min":67,"x_max":775,"o":"m 365 -333 q 261 -301 297 -333 l 267 -276 l 271 -276 q 346 -292 301 -292 q 406 -276 385 -292 q 428 -231 428 -260 q 401 -181 428 -203 q 308 -142 375 -158 l 386 -12 q 215 35 286 -7 q 105 148 143 78 q 67 310 67 218 q 104 493 67 406 q 209 648 142 581 q 366 754 276 715 q 560 793 456 793 q 681 778 633 793 q 775 736 728 764 l 751 507 l 728 507 l 651 690 q 608 716 632 707 q 550 725 585 725 q 395 667 461 725 q 292 512 329 610 q 256 296 256 414 q 308 120 256 185 q 449 56 360 56 q 581 92 525 56 l 714 256 l 736 256 l 686 50 q 575 5 640 22 q 432 -14 510 -12 l 400 -67 q 496 -119 467 -86 q 525 -197 525 -151 q 481 -294 525 -256 q 365 -333 438 -333 z "},"ḉ":{"ha":833,"x_min":67,"x_max":828,"o":"m 543 882 l 679 1128 l 828 1128 q 812 1087 824 1107 q 768 1040 800 1067 l 569 882 l 543 882 m 365 -333 q 261 -301 297 -333 l 267 -276 l 271 -276 q 346 -292 301 -292 q 406 -276 385 -292 q 428 -231 428 -260 q 401 -181 428 -203 q 308 -142 375 -158 l 386 -12 q 215 35 286 -7 q 105 148 143 78 q 67 310 67 218 q 104 493 67 406 q 209 648 142 581 q 366 754 276 715 q 560 793 456 793 q 681 778 633 793 q 775 736 728 764 l 751 507 l 728 507 l 651 690 q 608 716 632 707 q 550 725 585 725 q 395 667 461 725 q 292 512 329 610 q 256 296 256 414 q 308 120 256 185 q 449 56 360 56 q 581 92 525 56 l 714 256 l 736 256 l 686 50 q 575 5 640 22 q 432 -14 510 -12 l 400 -67 q 496 -119 467 -86 q 525 -197 525 -151 q 481 -294 525 -256 q 365 -333 438 -333 z "},"ď":{"ha":904,"x_min":-19,"x_max":864,"o":"m -19 0 l -15 22 l 86 79 l 196 699 l 115 756 l 119 778 l 463 778 q 683 736 594 778 q 818 619 772 694 q 864 447 864 544 q 799 213 864 314 q 622 56 735 113 q 361 0 508 0 l -19 0 m 417 707 l 383 707 l 268 68 l 351 68 q 525 116 453 68 q 636 250 597 164 q 675 450 675 336 q 609 638 675 569 q 417 707 543 707 m 467 882 l 328 1128 l 354 1128 l 510 1003 l 718 1128 l 744 1128 l 526 882 l 467 882 z "},"đ":{"ha":904,"x_min":-19,"x_max":864,"o":"m -19 0 l -15 22 l 86 79 l 138 371 l 47 371 l 58 435 l 149 435 l 196 699 l 117 756 l 121 778 l 463 778 q 683 736 594 778 q 818 619 772 694 q 864 447 864 544 q 799 213 864 314 q 622 56 735 113 q 361 0 508 0 l -19 0 m 481 371 l 322 371 l 268 68 l 351 68 q 525 116 453 68 q 636 250 597 164 q 675 450 675 336 q 609 638 675 569 q 417 707 543 707 l 383 707 l 333 435 l 492 435 l 481 371 z "},"ḍ":{"ha":904,"x_min":-19,"x_max":864,"o":"m -19 0 l -15 22 l 86 79 l 196 699 l 115 756 l 119 778 l 463 778 q 683 736 594 778 q 818 619 772 694 q 864 447 864 544 q 799 213 864 314 q 622 56 735 113 q 361 0 508 0 l -19 0 m 417 707 l 383 707 l 268 68 l 351 68 q 525 116 453 68 q 636 250 597 164 q 675 450 675 336 q 609 638 675 569 q 417 707 543 707 m 336 -307 q 268 -280 296 -307 q 240 -212 240 -253 q 268 -143 240 -171 q 336 -115 296 -115 q 405 -143 378 -115 q 432 -212 432 -171 q 405 -280 432 -253 q 336 -307 378 -307 z "},"ḏ":{"ha":904,"x_min":-19,"x_max":864,"o":"m -19 0 l -15 22 l 86 79 l 196 699 l 115 756 l 119 778 l 463 778 q 683 736 594 778 q 818 619 772 694 q 864 447 864 544 q 799 213 864 314 q 622 56 735 113 q 361 0 508 0 l -19 0 m 417 707 l 383 707 l 268 68 l 351 68 q 525 116 453 68 q 636 250 597 164 q 675 450 675 336 q 609 638 675 569 q 417 707 543 707 m 131 -247 l 144 -167 l 542 -167 l 526 -247 l 131 -247 z "},"è":{"ha":769,"x_min":-19,"x_max":738,"o":"m -19 0 l -15 22 l 89 79 l 199 699 l 115 756 l 119 778 l 738 778 l 701 574 l 679 574 l 628 707 l 385 707 l 336 435 l 501 435 l 585 532 l 607 532 l 560 271 l 536 271 l 490 371 l 325 371 l 271 71 l 544 71 l 658 242 l 681 242 l 638 0 l -19 0 m 471 882 l 272 1040 q 242 1085 244 1063 q 243 1128 240 1107 l 378 1128 l 499 882 l 471 882 z "},"é":{"ha":769,"x_min":-19,"x_max":754,"o":"m -19 0 l -15 22 l 89 79 l 199 699 l 115 756 l 119 778 l 738 778 l 701 574 l 679 574 l 628 707 l 385 707 l 336 435 l 501 435 l 585 532 l 607 532 l 560 271 l 536 271 l 490 371 l 325 371 l 271 71 l 544 71 l 658 242 l 681 242 l 638 0 l -19 0 m 471 882 l 606 1128 l 754 1128 q 738 1087 750 1107 q 694 1040 726 1067 l 497 882 l 471 882 z "},"ê":{"ha":769,"x_min":-19,"x_max":738,"o":"m -19 0 l -15 22 l 89 79 l 199 699 l 115 756 l 119 778 l 738 778 l 701 574 l 679 574 l 628 707 l 385 707 l 336 435 l 501 435 l 585 532 l 607 532 l 560 271 l 536 271 l 490 371 l 325 371 l 271 71 l 544 71 l 658 242 l 681 242 l 638 0 l -19 0 m 272 882 l 497 1128 l 558 1128 l 689 882 l 663 882 l 507 1007 l 299 882 l 272 882 z "},"ě":{"ha":769,"x_min":-19,"x_max":738,"o":"m -19 0 l -15 22 l 89 79 l 199 699 l 115 756 l 119 778 l 738 778 l 701 574 l 679 574 l 628 707 l 385 707 l 336 435 l 501 435 l 585 532 l 607 532 l 560 271 l 536 271 l 490 371 l 325 371 l 271 71 l 544 71 l 658 242 l 681 242 l 638 0 l -19 0 m 460 882 l 321 1128 l 347 1128 l 503 1003 l 711 1128 l 738 1128 l 519 882 l 460 882 z "},"ẽ":{"ha":769,"x_min":-19,"x_max":738,"o":"m -19 0 l -15 22 l 89 79 l 199 699 l 115 756 l 119 778 l 738 778 l 701 574 l 679 574 l 628 707 l 385 707 l 336 435 l 501 435 l 585 532 l 607 532 l 560 271 l 536 271 l 490 371 l 325 371 l 271 71 l 544 71 l 658 242 l 681 242 l 638 0 l -19 0 m 274 910 q 338 1033 311 993 q 388 1086 364 1074 q 439 1099 411 1099 q 490 1085 467 1099 q 533 1054 513 1072 q 573 1023 553 1036 q 617 1010 593 1010 q 657 1025 639 1010 q 707 1099 675 1040 l 738 1099 q 674 975 700 1015 q 624 922 647 935 q 571 910 600 910 q 521 923 543 910 q 478 954 499 936 q 438 985 458 972 q 394 999 417 999 q 354 983 372 999 q 304 910 336 968 l 274 910 z "},"ë":{"ha":769,"x_min":-19,"x_max":738,"o":"m -19 0 l -15 22 l 89 79 l 199 699 l 115 756 l 119 778 l 738 778 l 701 574 l 679 574 l 628 707 l 385 707 l 336 435 l 501 435 l 585 532 l 607 532 l 560 271 l 536 271 l 490 371 l 325 371 l 271 71 l 544 71 l 658 242 l 681 242 l 638 0 l -19 0 m 375 929 q 322 951 343 929 q 301 1003 301 974 q 322 1055 301 1033 q 375 1076 343 1076 q 427 1055 406 1076 q 449 1003 449 1033 q 427 951 449 974 q 375 929 406 929 m 636 929 q 583 951 604 929 q 563 1003 563 974 q 583 1055 563 1033 q 636 1076 604 1076 q 688 1055 667 1076 q 708 1003 708 1033 q 688 951 708 974 q 636 929 667 929 z "},"ē":{"ha":769,"x_min":-19,"x_max":738,"o":"m -19 0 l -15 22 l 89 79 l 199 699 l 115 756 l 119 778 l 738 778 l 701 574 l 679 574 l 628 707 l 385 707 l 336 435 l 501 435 l 585 532 l 607 532 l 560 271 l 536 271 l 490 371 l 325 371 l 271 71 l 544 71 l 658 242 l 681 242 l 638 0 l -19 0 m 300 963 l 314 1043 l 711 1043 l 696 963 l 300 963 z "},"ĕ":{"ha":769,"x_min":-19,"x_max":740,"o":"m -19 0 l -15 22 l 89 79 l 199 699 l 115 756 l 119 778 l 738 778 l 701 574 l 679 574 l 628 707 l 385 707 l 336 435 l 501 435 l 585 532 l 607 532 l 560 271 l 536 271 l 490 371 l 325 371 l 271 71 l 544 71 l 658 242 l 681 242 l 638 0 l -19 0 m 488 896 q 351 954 389 896 q 310 1128 313 1013 l 336 1128 q 372 1042 350 1071 q 426 1005 393 1014 q 503 996 458 996 q 583 1006 547 996 q 651 1043 619 1015 q 714 1128 683 1071 l 740 1128 q 638 950 697 1004 q 488 896 578 896 z "},"ė":{"ha":769,"x_min":-19,"x_max":738,"o":"m -19 0 l -15 22 l 89 79 l 199 699 l 115 756 l 119 778 l 738 778 l 701 574 l 679 574 l 628 707 l 385 707 l 336 435 l 501 435 l 585 532 l 607 532 l 560 271 l 536 271 l 490 371 l 325 371 l 271 71 l 544 71 l 658 242 l 681 242 l 638 0 l -19 0 m 503 908 q 435 935 463 908 q 407 1004 407 963 q 435 1074 407 1046 q 503 1101 463 1101 q 572 1074 544 1101 q 600 1004 600 1046 q 572 935 600 963 q 503 908 544 908 z "},"ę":{"ha":769,"x_min":-19,"x_max":738,"o":"m -19 0 l -15 22 l 89 79 l 199 699 l 115 756 l 119 778 l 738 778 l 701 574 l 679 574 l 628 707 l 385 707 l 336 435 l 501 435 l 585 532 l 607 532 l 560 271 l 536 271 l 490 371 l 325 371 l 271 71 l 544 71 l 658 242 l 681 242 l 638 0 l 540 0 q 491 -93 510 -46 q 472 -186 472 -140 q 547 -261 472 -261 q 578 -256 561 -261 q 610 -239 596 -250 l 615 -239 l 608 -265 q 556 -315 588 -297 q 481 -333 524 -333 q 392 -303 425 -333 q 360 -222 360 -274 q 399 -108 360 -164 q 494 0 438 -53 l -19 0 z "},"ẹ":{"ha":769,"x_min":-19,"x_max":738,"o":"m -19 0 l -15 22 l 89 79 l 199 699 l 115 756 l 119 778 l 738 778 l 701 574 l 679 574 l 628 707 l 385 707 l 336 435 l 501 435 l 585 532 l 607 532 l 560 271 l 536 271 l 490 371 l 325 371 l 271 71 l 544 71 l 658 242 l 681 242 l 638 0 l -19 0 m 318 -307 q 250 -280 278 -307 q 222 -212 222 -253 q 250 -143 222 -171 q 318 -115 278 -115 q 387 -143 360 -115 q 414 -212 414 -171 q 387 -280 414 -253 q 318 -307 360 -307 z "},"ȅ":{"ha":769,"x_min":-19,"x_max":738,"o":"m -19 0 l -15 22 l 89 79 l 199 699 l 115 756 l 119 778 l 738 778 l 701 574 l 679 574 l 628 707 l 385 707 l 336 435 l 501 435 l 585 532 l 607 532 l 560 271 l 536 271 l 490 371 l 325 371 l 271 71 l 544 71 l 658 242 l 681 242 l 638 0 l -19 0 m 557 882 l 400 1043 q 375 1084 381 1064 q 374 1128 369 1104 l 490 1128 l 583 882 l 557 882 m 374 882 l 189 1043 q 161 1083 165 1063 q 161 1128 157 1104 l 278 1128 l 400 882 l 374 882 z "},"ȇ":{"ha":769,"x_min":-19,"x_max":738,"o":"m -19 0 l -15 22 l 89 79 l 199 699 l 115 756 l 119 778 l 738 778 l 701 574 l 679 574 l 628 707 l 385 707 l 336 435 l 501 435 l 585 532 l 607 532 l 560 271 l 536 271 l 490 371 l 325 371 l 271 71 l 544 71 l 658 242 l 681 242 l 638 0 l -19 0 m 276 896 q 379 1074 319 1019 q 529 1128 439 1128 q 666 1069 628 1128 q 707 896 704 1010 l 681 896 q 645 982 667 954 q 591 1019 624 1010 q 514 1028 558 1028 q 433 1018 469 1028 q 365 980 397 1008 q 303 896 333 951 l 276 896 z "},"ế":{"ha":769,"x_min":-19,"x_max":889,"o":"m -19 0 l -15 22 l 89 79 l 199 699 l 115 756 l 119 778 l 738 778 l 701 574 l 679 574 l 628 707 l 385 707 l 336 435 l 501 435 l 585 532 l 607 532 l 560 271 l 536 271 l 490 371 l 325 371 l 271 71 l 544 71 l 658 242 l 681 242 l 638 0 l -19 0 m 660 1031 l 750 1229 l 889 1229 q 874 1187 885 1208 q 831 1142 863 1165 l 685 1031 l 660 1031 m 271 882 l 497 1128 l 557 1128 l 689 882 l 663 882 l 506 1007 l 299 882 l 271 882 z "},"ệ":{"ha":769,"x_min":-19,"x_max":738,"o":"m -19 0 l -15 22 l 89 79 l 199 699 l 115 756 l 119 778 l 738 778 l 701 574 l 679 574 l 628 707 l 385 707 l 336 435 l 501 435 l 585 532 l 607 532 l 560 271 l 536 271 l 490 371 l 325 371 l 271 71 l 544 71 l 658 242 l 681 242 l 638 0 l -19 0 m 272 882 l 497 1128 l 558 1128 l 689 882 l 663 882 l 507 1007 l 299 882 l 272 882 m 318 -307 q 250 -280 278 -307 q 222 -212 222 -253 q 250 -143 222 -171 q 318 -115 278 -115 q 387 -143 360 -115 q 414 -212 414 -171 q 387 -280 414 -253 q 318 -307 360 -307 z "},"ề":{"ha":769,"x_min":-19,"x_max":738,"o":"m -19 0 l -15 22 l 89 79 l 199 699 l 115 756 l 119 778 l 738 778 l 701 574 l 679 574 l 628 707 l 385 707 l 336 435 l 501 435 l 585 532 l 607 532 l 560 271 l 536 271 l 490 371 l 325 371 l 271 71 l 544 71 l 658 242 l 681 242 l 638 0 l -19 0 m 322 1031 l 175 1142 q 138 1182 147 1164 q 132 1229 128 1200 l 261 1229 l 349 1031 l 322 1031 m 271 882 l 497 1128 l 557 1128 l 689 882 l 663 882 l 506 1007 l 299 882 l 271 882 z "},"ể":{"ha":769,"x_min":-19,"x_max":738,"o":"m -19 0 l -15 22 l 89 79 l 199 699 l 115 756 l 119 778 l 738 778 l 701 574 l 679 574 l 628 707 l 385 707 l 336 435 l 501 435 l 585 532 l 607 532 l 560 271 l 536 271 l 490 371 l 325 371 l 271 71 l 544 71 l 658 242 l 681 242 l 638 0 l -19 0 z "},"ễ":{"ha":769,"x_min":-19,"x_max":796,"o":"m -19 0 l -15 22 l 89 79 l 199 699 l 115 756 l 119 778 l 738 778 l 701 574 l 679 574 l 628 707 l 385 707 l 336 435 l 501 435 l 585 532 l 607 532 l 560 271 l 536 271 l 490 371 l 325 371 l 271 71 l 544 71 l 658 242 l 681 242 l 638 0 l -19 0 z "},"ẻ":{"ha":769,"x_min":-19,"x_max":738,"o":"m -19 0 l -15 22 l 89 79 l 199 699 l 115 756 l 119 778 l 738 778 l 701 574 l 679 574 l 628 707 l 385 707 l 336 435 l 501 435 l 585 532 l 607 532 l 560 271 l 536 271 l 490 371 l 325 371 l 271 71 l 544 71 l 658 242 l 681 242 l 638 0 l -19 0 m 425 899 l 425 900 q 497 932 475 914 q 519 978 519 950 q 501 1016 519 1000 q 438 1042 482 1032 l 469 1128 q 570 1088 540 1119 q 600 1019 600 1056 q 557 933 600 964 q 435 888 514 901 l 425 899 z "},"ḕ":{"ha":769,"x_min":-19,"x_max":738,"o":"m -19 0 l -15 22 l 89 79 l 199 699 l 115 756 l 119 778 l 738 778 l 701 574 l 679 574 l 628 707 l 385 707 l 336 435 l 501 435 l 585 532 l 607 532 l 560 271 l 536 271 l 490 371 l 325 371 l 271 71 l 544 71 l 658 242 l 681 242 l 638 0 l -19 0 z "},"ḗ":{"ha":769,"x_min":-19,"x_max":799,"o":"m -19 0 l -15 22 l 89 79 l 199 699 l 115 756 l 119 778 l 738 778 l 701 574 l 679 574 l 628 707 l 385 707 l 336 435 l 501 435 l 585 532 l 607 532 l 560 271 l 536 271 l 490 371 l 325 371 l 271 71 l 544 71 l 658 242 l 681 242 l 638 0 l -19 0 z "},"ḝ":{"ha":769,"x_min":-19,"x_max":740,"o":"m 488 896 q 351 955 389 896 q 308 1128 313 1014 l 336 1128 q 372 1042 350 1069 q 426 1005 393 1014 q 503 996 458 996 q 583 1006 547 996 q 651 1044 619 1015 q 714 1128 683 1072 l 740 1128 q 638 950 697 1004 q 488 896 578 896 m -19 0 l -15 22 l 89 79 l 199 699 l 115 756 l 119 778 l 738 778 l 701 574 l 679 574 l 628 707 l 385 707 l 336 435 l 501 435 l 585 532 l 607 532 l 560 271 l 536 271 l 490 371 l 325 371 l 271 71 l 544 71 l 658 242 l 681 242 l 638 0 l 382 0 l 343 -67 q 438 -119 410 -86 q 467 -197 467 -151 q 423 -294 467 -256 q 308 -333 379 -333 q 204 -301 239 -333 l 208 -276 l 213 -276 q 288 -292 243 -292 q 348 -276 326 -292 q 369 -231 369 -260 q 344 -181 369 -203 q 250 -142 318 -158 l 336 0 l -19 0 z "},"ĝ":{"ha":871,"x_min":67,"x_max":825,"o":"m 406 -14 q 226 26 303 -14 q 108 138 150 67 q 67 306 67 210 q 107 497 67 408 q 217 651 147 585 q 376 756 286 718 q 564 793 465 793 q 698 778 644 793 q 803 736 751 764 l 778 525 l 754 525 l 683 686 q 633 714 658 706 q 569 722 608 722 q 406 664 476 722 q 295 509 335 606 q 256 297 256 413 q 308 121 256 186 q 442 56 360 56 q 508 65 472 56 l 546 275 l 458 332 l 463 353 l 825 353 l 821 332 l 729 275 l 693 74 q 567 10 640 35 q 406 -14 494 -14 m 353 882 l 578 1128 l 639 1128 l 769 882 l 743 882 l 588 1007 l 379 882 l 353 882 z "},"ğ":{"ha":871,"x_min":67,"x_max":825,"o":"m 406 -14 q 226 26 303 -14 q 108 138 150 67 q 67 306 67 210 q 107 497 67 408 q 217 651 147 585 q 376 756 286 718 q 564 793 465 793 q 698 778 644 793 q 803 736 751 764 l 778 525 l 754 525 l 683 686 q 633 714 658 706 q 569 722 608 722 q 406 664 476 722 q 295 509 335 606 q 256 297 256 413 q 308 121 256 186 q 442 56 360 56 q 508 65 472 56 l 546 275 l 458 332 l 463 353 l 825 353 l 821 332 l 729 275 l 693 74 q 567 10 640 35 q 406 -14 494 -14 m 569 896 q 433 954 471 896 q 392 1128 394 1013 l 418 1128 q 453 1042 432 1071 q 508 1005 475 1014 q 585 996 540 996 q 665 1006 629 996 q 733 1043 701 1015 q 796 1128 765 1071 l 822 1128 q 719 950 779 1004 q 569 896 660 896 z "},"ġ":{"ha":871,"x_min":67,"x_max":825,"o":"m 406 -14 q 226 26 303 -14 q 108 138 150 67 q 67 306 67 210 q 107 497 67 408 q 217 651 147 585 q 376 756 286 718 q 564 793 465 793 q 698 778 644 793 q 803 736 751 764 l 778 525 l 754 525 l 683 686 q 633 714 658 706 q 569 722 608 722 q 406 664 476 722 q 295 509 335 606 q 256 297 256 413 q 308 121 256 186 q 442 56 360 56 q 508 65 472 56 l 546 275 l 458 332 l 463 353 l 825 353 l 821 332 l 729 275 l 693 74 q 567 10 640 35 q 406 -14 494 -14 m 585 908 q 517 935 544 908 q 489 1004 489 963 q 517 1074 489 1046 q 585 1101 544 1101 q 654 1074 626 1101 q 682 1004 682 1046 q 654 935 682 963 q 585 908 626 908 z "},"ģ":{"ha":871,"x_min":67,"x_max":825,"o":"m 406 -14 q 226 26 303 -14 q 108 138 150 67 q 67 306 67 210 q 107 497 67 408 q 217 651 147 585 q 376 756 286 718 q 564 793 465 793 q 698 778 644 793 q 803 736 751 764 l 778 525 l 754 525 l 683 686 q 633 714 658 706 q 569 722 608 722 q 406 664 476 722 q 295 509 335 606 q 256 297 256 413 q 308 121 256 186 q 442 56 360 56 q 508 65 472 56 l 546 275 l 458 332 l 463 353 l 825 353 l 821 332 l 729 275 l 693 74 q 567 10 640 35 q 406 -14 494 -14 m 613 892 q 509 920 544 892 q 474 996 474 949 q 524 1087 474 1056 q 650 1118 575 1118 q 677 1117 663 1118 q 703 1114 692 1115 l 697 1092 q 678 1094 688 1093 q 660 1094 668 1094 q 575 1035 575 1094 q 600 992 575 1004 q 678 979 625 979 l 667 921 q 653 900 664 908 q 613 892 642 892 z "},"ǧ":{"ha":871,"x_min":67,"x_max":825,"o":"m 406 -14 q 226 26 303 -14 q 108 138 150 67 q 67 306 67 210 q 107 497 67 408 q 217 651 147 585 q 376 756 286 718 q 564 793 465 793 q 698 778 644 793 q 803 736 751 764 l 778 525 l 754 525 l 683 686 q 633 714 658 706 q 569 722 608 722 q 406 664 476 722 q 295 509 335 606 q 256 297 256 413 q 308 121 256 186 q 442 56 360 56 q 508 65 472 56 l 546 275 l 458 332 l 463 353 l 825 353 l 821 332 l 729 275 l 693 74 q 567 10 640 35 q 406 -14 494 -14 m 542 882 l 403 1128 l 429 1128 l 585 1003 l 793 1128 l 819 1128 l 601 882 l 542 882 z "},"ḡ":{"ha":871,"x_min":67,"x_max":825,"o":"m 406 -14 q 226 26 303 -14 q 108 138 150 67 q 67 306 67 210 q 107 497 67 408 q 217 651 147 585 q 376 756 286 718 q 564 793 465 793 q 698 778 644 793 q 803 736 751 764 l 778 525 l 754 525 l 683 686 q 633 714 658 706 q 569 722 608 722 q 406 664 476 722 q 295 509 335 606 q 256 297 256 413 q 308 121 256 186 q 442 56 360 56 q 508 65 472 56 l 546 275 l 458 332 l 463 353 l 825 353 l 821 332 l 729 275 l 693 74 q 567 10 640 35 q 406 -14 494 -14 m 382 963 l 396 1043 l 793 1043 l 778 963 l 382 963 z "},"ĥ":{"ha":932,"x_min":-19,"x_max":951,"o":"m -19 0 l -15 22 l 83 79 l 193 699 l 110 756 l 114 778 l 476 778 l 472 756 l 376 699 l 331 436 l 617 436 l 664 699 l 586 756 l 590 778 l 951 778 l 947 756 l 847 699 l 736 79 l 822 22 l 818 0 l 456 0 l 460 22 l 553 79 l 604 368 l 318 368 l 267 79 l 349 22 l 344 0 l -19 0 m 344 882 l 569 1128 l 631 1128 l 761 882 l 735 882 l 579 1007 l 371 882 l 344 882 z "},"ħ":{"ha":932,"x_min":-19,"x_max":951,"o":"m -19 0 l -15 22 l 83 79 l 168 561 l 75 561 l 88 625 l 181 625 l 193 699 l 110 756 l 114 778 l 476 778 l 472 756 l 376 699 l 364 625 l 650 625 l 664 699 l 586 756 l 590 778 l 951 778 l 947 756 l 847 699 l 833 625 l 926 625 l 914 561 l 822 561 l 736 79 l 822 22 l 818 0 l 456 0 l 460 22 l 553 79 l 604 368 l 318 368 l 267 79 l 349 22 l 344 0 l -19 0 m 331 436 l 617 436 l 639 561 l 351 561 l 331 436 z "},"ḥ":{"ha":932,"x_min":-19,"x_max":951,"o":"m -19 0 l -15 22 l 83 79 l 193 699 l 110 756 l 114 778 l 476 778 l 472 756 l 376 699 l 331 436 l 617 436 l 664 699 l 586 756 l 590 778 l 951 778 l 947 756 l 847 699 l 736 79 l 822 22 l 818 0 l 456 0 l 460 22 l 553 79 l 604 368 l 318 368 l 267 79 l 349 22 l 344 0 l -19 0 m 361 -307 q 293 -280 321 -307 q 265 -212 265 -253 q 293 -143 265 -171 q 361 -115 321 -115 q 430 -143 403 -115 q 457 -212 457 -171 q 430 -280 457 -253 q 361 -307 403 -307 z "},"ḫ":{"ha":932,"x_min":-19,"x_max":951,"o":"m -19 0 l -15 22 l 83 79 l 193 699 l 110 756 l 114 778 l 476 778 l 472 756 l 376 699 l 331 436 l 617 436 l 664 699 l 586 756 l 590 778 l 951 778 l 947 756 l 847 699 l 736 79 l 822 22 l 818 0 l 456 0 l 460 22 l 553 79 l 604 368 l 318 368 l 267 79 l 349 22 l 344 0 l -19 0 m 344 -326 q 208 -267 247 -326 q 165 -94 169 -208 l 193 -94 q 228 -181 207 -153 q 282 -219 250 -210 q 360 -228 314 -228 q 440 -218 404 -228 q 508 -179 476 -208 q 571 -94 540 -150 l 597 -94 q 493 -272 553 -218 q 344 -326 433 -326 z "},"ì":{"ha":463,"x_min":-19,"x_max":482,"o":"m -19 0 l -15 22 l 85 79 l 193 699 l 110 756 l 114 778 l 482 778 l 478 756 l 376 699 l 268 79 l 354 22 l 350 0 l -19 0 m 303 882 l 104 1040 q 74 1085 76 1063 q 75 1128 72 1107 l 210 1128 l 331 882 l 303 882 z "},"í":{"ha":463,"x_min":-19,"x_max":588,"o":"m -19 0 l -15 22 l 85 79 l 193 699 l 110 756 l 114 778 l 482 778 l 478 756 l 376 699 l 268 79 l 354 22 l 350 0 l -19 0 m 304 882 l 439 1128 l 588 1128 q 572 1087 583 1107 q 528 1040 560 1067 l 331 882 l 304 882 z "},"î":{"ha":463,"x_min":-19,"x_max":521,"o":"m -19 0 l -15 22 l 85 79 l 193 699 l 110 756 l 114 778 l 482 778 l 478 756 l 376 699 l 268 79 l 354 22 l 350 0 l -19 0 m 104 882 l 329 1128 l 390 1128 l 521 882 l 494 882 l 339 1007 l 131 882 l 104 882 z "},"ĩ":{"ha":463,"x_min":-19,"x_max":571,"o":"m -19 0 l -15 22 l 85 79 l 193 699 l 110 756 l 114 778 l 482 778 l 478 756 l 376 699 l 268 79 l 354 22 l 350 0 l -19 0 m 107 910 q 171 1033 144 993 q 221 1086 197 1074 q 272 1099 244 1099 q 323 1085 300 1099 q 366 1054 346 1072 q 406 1023 386 1036 q 450 1010 426 1010 q 490 1025 472 1010 q 540 1099 508 1040 l 571 1099 q 507 975 533 1015 q 457 922 481 935 q 404 910 433 910 q 354 923 376 910 q 312 954 332 936 q 271 985 292 972 q 228 999 250 999 q 188 983 206 999 q 138 910 169 968 l 107 910 z "},"ï":{"ha":463,"x_min":-19,"x_max":542,"o":"m -19 0 l -15 22 l 85 79 l 193 699 l 110 756 l 114 778 l 482 778 l 478 756 l 376 699 l 268 79 l 354 22 l 350 0 l -19 0 m 208 929 q 156 951 176 929 q 135 1003 135 974 q 156 1055 135 1033 q 208 1076 176 1076 q 260 1055 239 1076 q 282 1003 282 1033 q 260 951 282 974 q 208 929 239 929 m 469 929 q 417 951 438 929 q 396 1003 396 974 q 417 1055 396 1033 q 469 1076 438 1076 q 521 1055 500 1076 q 542 1003 542 1033 q 521 951 542 974 q 469 929 500 929 z "},"ī":{"ha":463,"x_min":-19,"x_max":544,"o":"m -19 0 l -15 22 l 85 79 l 193 699 l 110 756 l 114 778 l 482 778 l 478 756 l 376 699 l 268 79 l 354 22 l 350 0 l -19 0 m 133 963 l 147 1043 l 544 1043 l 529 963 l 133 963 z "},"ĭ":{"ha":463,"x_min":-19,"x_max":572,"o":"m -19 0 l -15 22 l 85 79 l 193 699 l 110 756 l 114 778 l 482 778 l 478 756 l 376 699 l 268 79 l 354 22 l 350 0 l -19 0 m 319 896 q 183 954 221 896 q 142 1128 144 1013 l 168 1128 q 203 1042 182 1071 q 258 1005 225 1014 q 335 996 290 996 q 415 1006 379 996 q 483 1043 451 1015 q 546 1128 515 1071 l 572 1128 q 469 950 529 1004 q 319 896 410 896 z "},"į":{"ha":463,"x_min":-19,"x_max":482,"o":"m -19 0 l -15 22 l 85 79 l 193 699 l 110 756 l 114 778 l 482 778 l 478 756 l 376 699 l 268 79 l 354 22 l 350 0 l 185 0 q 134 -93 153 -46 q 115 -186 115 -140 q 190 -261 115 -261 q 222 -256 206 -261 q 253 -239 239 -250 l 258 -239 l 253 -265 q 199 -315 231 -297 q 125 -333 168 -333 q 36 -303 68 -333 q 4 -222 4 -274 q 43 -108 4 -164 q 138 0 82 -53 l -19 0 z "},"ị":{"ha":463,"x_min":-19,"x_max":482,"o":"m -19 0 l -15 22 l 85 79 l 193 699 l 110 756 l 114 778 l 482 778 l 478 756 l 376 699 l 268 79 l 354 22 l 350 0 l -19 0 m 124 -307 q 56 -280 83 -307 q 28 -212 28 -253 q 56 -143 28 -171 q 124 -115 83 -115 q 192 -143 165 -115 q 219 -212 219 -171 q 192 -280 219 -253 q 124 -307 165 -307 z "},"ȉ":{"ha":463,"x_min":-19,"x_max":482,"o":"m -19 0 l -15 22 l 85 79 l 193 699 l 110 756 l 114 778 l 482 778 l 478 756 l 376 699 l 268 79 l 354 22 l 350 0 l -19 0 m 390 882 l 233 1043 q 208 1084 214 1064 q 207 1128 203 1104 l 324 1128 l 417 882 l 390 882 m 207 882 l 22 1043 q -6 1083 -1 1063 q -6 1128 -10 1104 l 111 1128 l 233 882 l 207 882 z "},"ȋ":{"ha":463,"x_min":-19,"x_max":539,"o":"m -19 0 l -15 22 l 85 79 l 193 699 l 110 756 l 114 778 l 482 778 l 478 756 l 376 699 l 268 79 l 354 22 l 350 0 l -19 0 m 108 896 q 211 1074 151 1019 q 361 1128 271 1128 q 498 1069 460 1128 q 539 896 536 1010 l 513 896 q 477 982 499 954 q 423 1019 456 1010 q 346 1028 390 1028 q 265 1018 301 1028 q 197 980 229 1008 q 135 896 165 951 l 108 896 z "},"ỉ":{"ha":463,"x_min":-19,"x_max":482,"o":"m -19 0 l -15 22 l 85 79 l 193 699 l 110 756 l 114 778 l 482 778 l 478 756 l 376 699 l 268 79 l 354 22 l 350 0 l -19 0 m 258 899 l 258 900 q 331 932 308 914 q 353 978 353 950 q 334 1016 353 1000 q 271 1042 315 1032 l 303 1128 q 403 1088 374 1119 q 433 1019 433 1056 q 390 933 433 964 q 268 888 347 901 l 258 899 z "},"ḯ":{"ha":463,"x_min":-19,"x_max":631,"o":"m -19 0 l -15 22 l 85 79 l 193 699 l 110 756 l 114 778 l 482 778 l 478 756 l 376 699 l 268 79 l 354 22 l 350 0 l -19 0 z "},"ĳ":{"ha":919,"x_min":-19,"x_max":943,"o":"m -19 0 l -15 22 l 85 79 l 193 699 l 110 756 l 114 778 l 482 778 l 478 756 l 376 699 l 268 79 l 354 22 l 350 0 l -19 0 m 404 -204 q 357 -151 339 -204 l 379 -81 l 386 -81 q 443 -94 415 -94 q 488 -82 468 -94 q 524 -31 508 -69 q 553 86 539 8 l 660 699 l 569 756 l 574 778 l 943 778 l 939 756 l 843 699 l 771 286 q 695 56 747 153 q 582 -101 643 -42 q 481 -183 521 -162 q 404 -204 440 -204 z "},"ĵ":{"ha":457,"x_min":-124,"x_max":526,"o":"m -58 -204 q -106 -151 -124 -204 l -83 -81 l -76 -81 q -19 -94 -47 -94 q 26 -82 6 -94 q 61 -31 46 -69 q 90 86 76 8 l 197 699 l 107 756 l 111 778 l 481 778 l 476 756 l 381 699 l 308 286 q 233 56 285 153 q 119 -101 181 -42 q 18 -183 58 -162 q -58 -204 -22 -204 m 110 882 l 335 1128 l 396 1128 l 526 882 l 500 882 l 344 1007 l 136 882 l 110 882 z "},"ķ":{"ha":874,"x_min":-19,"x_max":865,"o":"m -19 0 l -15 22 l 88 79 l 197 699 l 114 756 l 118 778 l 489 778 l 485 756 l 381 699 l 271 79 l 356 22 l 350 0 l -19 0 m 551 0 l 331 393 l 658 711 l 589 756 l 593 778 l 865 778 l 860 756 l 774 717 l 492 454 l 715 75 l 794 22 l 792 0 l 551 0 m 300 -332 q 272 -331 288 -332 q 247 -326 257 -329 l 253 -306 q 272 -308 263 -307 q 290 -308 282 -308 q 375 -249 375 -308 q 349 -206 375 -218 q 272 -193 324 -193 l 283 -135 q 297 -114 285 -122 q 338 -106 308 -106 q 442 -133 407 -106 q 476 -210 476 -161 q 426 -301 476 -269 q 300 -332 375 -332 z "},"ĺ":{"ha":719,"x_min":-19,"x_max":649,"o":"m -19 0 l -15 22 l 88 79 l 197 699 l 114 756 l 119 778 l 500 778 l 496 756 l 381 699 l 269 71 l 490 71 l 626 279 l 649 279 l 596 0 l -19 0 m 303 882 l 438 1128 l 586 1128 q 570 1087 582 1107 q 526 1040 558 1067 l 329 882 l 303 882 z "},"ľ":{"ha":719,"x_min":-19,"x_max":696,"o":"m -19 0 l -15 22 l 88 79 l 197 699 l 114 756 l 119 778 l 500 778 l 496 756 l 381 699 l 269 71 l 490 71 l 626 279 l 649 279 l 596 0 l -19 0 m 489 518 l 560 778 l 693 778 q 691 734 696 757 q 664 685 686 711 l 517 518 l 489 518 z "},"ļ":{"ha":719,"x_min":-19,"x_max":649,"o":"m -19 0 l -15 22 l 88 79 l 197 699 l 114 756 l 119 778 l 500 778 l 496 756 l 381 699 l 269 71 l 490 71 l 626 279 l 649 279 l 596 0 l -19 0 m 218 -332 q 190 -331 206 -332 q 165 -326 175 -329 l 171 -306 q 190 -308 181 -307 q 208 -308 200 -308 q 293 -249 293 -308 q 267 -206 293 -218 q 190 -193 242 -193 l 201 -135 q 215 -114 203 -122 q 256 -106 226 -106 q 360 -133 325 -106 q 394 -210 394 -161 q 344 -301 394 -269 q 218 -332 293 -332 z "},"ł":{"ha":719,"x_min":-19,"x_max":649,"o":"m -19 0 l -15 22 l 88 79 l 117 246 l 8 185 l 25 267 l 132 328 l 197 699 l 114 756 l 119 778 l 500 778 l 496 756 l 381 699 l 332 426 l 539 542 l 521 460 l 318 346 l 269 71 l 490 71 l 626 279 l 649 279 l 596 0 l -19 0 z "},"ŀ":{"ha":719,"x_min":-19,"x_max":689,"o":"m -19 0 l -15 22 l 88 79 l 197 699 l 114 756 l 119 778 l 500 778 l 496 756 l 381 699 l 269 71 l 490 71 l 626 279 l 649 279 l 596 0 l -19 0 m 592 328 q 524 355 551 328 q 496 424 496 382 q 524 493 496 465 q 592 521 551 521 q 661 493 633 521 q 689 424 689 465 q 661 355 689 382 q 592 328 633 328 z "},"ḷ":{"ha":719,"x_min":-19,"x_max":649,"o":"m -19 0 l -15 22 l 88 79 l 197 699 l 114 756 l 119 778 l 500 778 l 496 756 l 381 699 l 269 71 l 490 71 l 626 279 l 649 279 l 596 0 l -19 0 m 285 -307 q 217 -280 244 -307 q 189 -212 189 -253 q 217 -143 189 -171 q 285 -115 244 -115 q 353 -143 326 -115 q 381 -212 381 -171 q 353 -280 381 -253 q 285 -307 326 -307 z "},"ḻ":{"ha":719,"x_min":-19,"x_max":649,"o":"m -19 0 l -15 22 l 88 79 l 197 699 l 114 756 l 119 778 l 500 778 l 496 756 l 381 699 l 269 71 l 490 71 l 626 279 l 649 279 l 596 0 l -19 0 m 78 -247 l 92 -167 l 489 -167 l 474 -247 l 78 -247 z "},"ṃ":{"ha":1132,"x_min":-19,"x_max":1126,"o":"m -19 0 l -15 22 l 88 81 l 219 701 l 128 756 l 132 778 l 429 778 l 550 261 l 839 778 l 1126 778 l 1122 756 l 1019 701 l 949 81 l 1022 22 l 1018 0 l 665 0 l 669 22 l 765 79 l 826 596 l 483 -6 l 422 -6 l 279 610 l 169 81 l 256 22 l 251 0 l -19 0 m 417 -307 q 349 -280 376 -307 q 321 -212 321 -253 q 349 -143 321 -171 q 417 -115 376 -115 q 485 -143 458 -115 q 513 -212 513 -171 q 485 -280 513 -253 q 417 -307 458 -307 z "},"ń":{"ha":917,"x_min":-15,"x_max":939,"o":"m -15 0 l -11 22 l 93 81 l 204 706 l 119 758 l 124 778 l 350 778 l 667 254 l 744 700 l 631 757 l 633 778 l 939 778 l 936 757 l 832 700 l 707 -6 l 617 -6 l 267 568 l 181 79 l 296 22 l 293 0 l -15 0 m 542 882 l 676 1128 l 825 1128 q 809 1087 821 1107 q 765 1040 797 1067 l 568 882 l 542 882 z "},"ň":{"ha":917,"x_min":-15,"x_max":939,"o":"m -15 0 l -11 22 l 93 81 l 204 706 l 119 758 l 124 778 l 350 778 l 667 254 l 744 700 l 631 757 l 633 778 l 939 778 l 936 757 l 832 700 l 707 -6 l 617 -6 l 267 568 l 181 79 l 296 22 l 293 0 l -15 0 m 531 882 l 392 1128 l 418 1128 l 574 1003 l 782 1128 l 808 1128 l 590 882 l 531 882 z "},"ñ":{"ha":917,"x_min":-15,"x_max":939,"o":"m -15 0 l -11 22 l 93 81 l 204 706 l 119 758 l 124 778 l 350 778 l 667 254 l 744 700 l 631 757 l 633 778 l 939 778 l 936 757 l 832 700 l 707 -6 l 617 -6 l 267 568 l 181 79 l 296 22 l 293 0 l -15 0 m 344 910 q 408 1033 382 993 q 458 1086 435 1074 q 510 1099 482 1099 q 560 1085 538 1099 q 603 1054 583 1072 q 644 1023 624 1036 q 688 1010 664 1010 q 728 1025 710 1010 q 778 1099 746 1040 l 808 1099 q 744 975 771 1015 q 694 922 718 935 q 642 910 671 910 q 592 923 614 910 q 549 954 569 936 q 508 985 529 972 q 465 999 488 999 q 425 983 443 999 q 375 910 407 968 l 344 910 z "},"ņ":{"ha":917,"x_min":-15,"x_max":939,"o":"m -15 0 l -11 22 l 93 81 l 204 706 l 119 758 l 124 778 l 350 778 l 667 254 l 744 700 l 631 757 l 633 778 l 939 778 l 936 757 l 832 700 l 707 -6 l 617 -6 l 267 568 l 181 79 l 296 22 l 293 0 l -15 0 m 303 -333 q 275 -332 290 -333 q 250 -328 260 -331 l 256 -307 q 275 -309 265 -308 q 293 -310 285 -310 q 378 -250 378 -310 q 352 -207 378 -219 q 275 -194 326 -194 l 286 -136 q 299 -115 288 -124 q 340 -107 311 -107 q 444 -135 410 -107 q 479 -211 479 -162 q 428 -302 479 -271 q 303 -333 378 -333 z "},"ṅ":{"ha":917,"x_min":-15,"x_max":939,"o":"m -15 0 l -11 22 l 93 81 l 204 706 l 119 758 l 124 778 l 350 778 l 667 254 l 744 700 l 631 757 l 633 778 l 939 778 l 936 757 l 832 700 l 707 -6 l 617 -6 l 267 568 l 181 79 l 296 22 l 293 0 l -15 0 m 574 908 q 506 935 533 908 q 478 1004 478 963 q 506 1074 478 1046 q 574 1101 533 1101 q 643 1074 615 1101 q 671 1004 671 1046 q 643 935 671 963 q 574 908 615 908 z "},"ṇ":{"ha":917,"x_min":-15,"x_max":939,"o":"m -15 0 l -11 22 l 93 81 l 204 706 l 119 758 l 124 778 l 350 778 l 667 254 l 744 700 l 631 757 l 633 778 l 939 778 l 936 757 l 832 700 l 707 -6 l 617 -6 l 267 568 l 181 79 l 296 22 l 293 0 l -15 0 m 369 -308 q 301 -281 329 -308 q 274 -214 274 -254 q 301 -144 274 -172 q 369 -117 329 -117 q 438 -144 411 -117 q 465 -214 465 -172 q 438 -281 465 -254 q 369 -308 411 -308 z "},"ṉ":{"ha":917,"x_min":-15,"x_max":939,"o":"m -15 0 l -11 22 l 93 81 l 204 706 l 119 758 l 124 778 l 350 778 l 667 254 l 744 700 l 631 757 l 633 778 l 939 778 l 936 757 l 832 700 l 707 -6 l 617 -6 l 267 568 l 181 79 l 296 22 l 293 0 l -15 0 m 163 -249 l 176 -168 l 574 -168 l 558 -249 l 163 -249 z "},"ò":{"ha":944,"x_min":67,"x_max":878,"o":"m 414 -14 q 231 28 308 -14 q 110 147 153 71 q 67 325 67 222 q 100 501 67 417 q 194 651 133 585 q 341 755 256 717 q 531 793 426 793 q 714 751 636 793 q 835 632 792 708 q 878 454 878 556 q 844 280 878 364 q 750 130 811 196 q 603 25 689 64 q 414 -14 518 -14 m 428 57 q 565 115 507 57 q 656 265 624 172 q 688 468 688 358 q 671 598 688 540 q 617 690 654 656 q 521 724 581 724 q 415 690 463 724 q 332 599 367 657 q 278 467 297 542 q 258 311 258 393 q 275 181 258 239 q 329 90 292 124 q 428 57 367 57 m 546 882 l 347 1040 q 317 1085 319 1063 q 318 1128 315 1107 l 453 1128 l 574 882 l 546 882 z "},"ó":{"ha":944,"x_min":67,"x_max":878,"o":"m 414 -14 q 231 28 308 -14 q 110 147 153 71 q 67 325 67 222 q 100 501 67 417 q 194 651 133 585 q 341 755 256 717 q 531 793 426 793 q 714 751 636 793 q 835 632 792 708 q 878 454 878 556 q 844 280 878 364 q 750 130 811 196 q 603 25 689 64 q 414 -14 518 -14 m 428 57 q 565 115 507 57 q 656 265 624 172 q 688 468 688 358 q 671 598 688 540 q 617 690 654 656 q 521 724 581 724 q 415 690 463 724 q 332 599 367 657 q 278 467 297 542 q 258 311 258 393 q 275 181 258 239 q 329 90 292 124 q 428 57 367 57 m 546 882 l 681 1128 l 829 1128 q 813 1087 825 1107 q 769 1040 801 1067 l 572 882 l 546 882 z "},"ô":{"ha":944,"x_min":67,"x_max":878,"o":"m 414 -14 q 231 28 308 -14 q 110 147 153 71 q 67 325 67 222 q 100 501 67 417 q 194 651 133 585 q 341 755 256 717 q 531 793 426 793 q 714 751 636 793 q 835 632 792 708 q 878 454 878 556 q 844 280 878 364 q 750 130 811 196 q 603 25 689 64 q 414 -14 518 -14 m 428 57 q 565 115 507 57 q 656 265 624 172 q 688 468 688 358 q 671 598 688 540 q 617 690 654 656 q 521 724 581 724 q 415 690 463 724 q 332 599 367 657 q 278 467 297 542 q 258 311 258 393 q 275 181 258 239 q 329 90 292 124 q 428 57 367 57 m 347 882 l 572 1128 l 633 1128 l 764 882 l 738 882 l 582 1007 l 374 882 l 347 882 z "},"õ":{"ha":944,"x_min":67,"x_max":878,"o":"m 414 -14 q 231 28 308 -14 q 110 147 153 71 q 67 325 67 222 q 100 501 67 417 q 194 651 133 585 q 341 755 256 717 q 531 793 426 793 q 714 751 636 793 q 835 632 792 708 q 878 454 878 556 q 844 280 878 364 q 750 130 811 196 q 603 25 689 64 q 414 -14 518 -14 m 428 57 q 565 115 507 57 q 656 265 624 172 q 688 468 688 358 q 671 598 688 540 q 617 690 654 656 q 521 724 581 724 q 415 690 463 724 q 332 599 367 657 q 278 467 297 542 q 258 311 258 393 q 275 181 258 239 q 329 90 292 124 q 428 57 367 57 m 349 910 q 413 1033 386 993 q 463 1086 439 1074 q 514 1099 486 1099 q 565 1085 542 1099 q 608 1054 588 1072 q 648 1023 628 1036 q 692 1010 668 1010 q 732 1025 714 1010 q 782 1099 750 1040 l 813 1099 q 749 975 775 1015 q 699 922 722 935 q 646 910 675 910 q 596 923 618 910 q 553 954 574 936 q 513 985 533 972 q 469 999 492 999 q 429 983 447 999 q 379 910 411 968 l 349 910 z "},"ö":{"ha":944,"x_min":67,"x_max":878,"o":"m 414 -14 q 231 28 308 -14 q 110 147 153 71 q 67 325 67 222 q 100 501 67 417 q 194 651 133 585 q 341 755 256 717 q 531 793 426 793 q 714 751 636 793 q 835 632 792 708 q 878 454 878 556 q 844 280 878 364 q 750 130 811 196 q 603 25 689 64 q 414 -14 518 -14 m 428 57 q 565 115 507 57 q 656 265 624 172 q 688 468 688 358 q 671 598 688 540 q 617 690 654 656 q 521 724 581 724 q 415 690 463 724 q 332 599 367 657 q 278 467 297 542 q 258 311 258 393 q 275 181 258 239 q 329 90 292 124 q 428 57 367 57 m 451 929 q 399 951 419 929 q 378 1003 378 974 q 399 1055 378 1033 q 451 1076 419 1076 q 503 1055 482 1076 q 525 1003 525 1033 q 503 951 525 974 q 451 929 482 929 m 713 929 q 660 951 681 929 q 639 1003 639 974 q 660 1055 639 1033 q 713 1076 681 1076 q 764 1055 743 1076 q 785 1003 785 1033 q 764 951 785 974 q 713 929 743 929 z "}}}
